<?xml version="1.0" encoding="UTF-8" standalone="no"?>
<!-- Created with Inkscape (http://www.inkscape.org/) -->

<svg
   xmlns:dc="http://purl.org/dc/elements/1.1/"
   xmlns:cc="http://creativecommons.org/ns#"
   xmlns:rdf="http://www.w3.org/1999/02/22-rdf-syntax-ns#"
   xmlns:svg="http://www.w3.org/2000/svg"
   xmlns="http://www.w3.org/2000/svg"
   xmlns:sodipodi="http://sodipodi.sourceforge.net/DTD/sodipodi-0.dtd"
   xmlns:inkscape="http://www.inkscape.org/namespaces/inkscape"
   width="64"
   height="64"
   viewBox="0 0 16.933333 16.933334"
   version="1.1"
   id="svg8"
   inkscape:version="0.92.1 r15371"
   sodipodi:docname="favicon.svg">
  <defs
     id="defs2" />
  <sodipodi:namedview
     id="base"
     pagecolor="#ffffff"
     bordercolor="#666666"
     borderopacity="1.0"
     inkscape:pageopacity="0.0"
     inkscape:pageshadow="2"
     inkscape:zoom="3.959798"
     inkscape:cx="-3.7271464"
     inkscape:cy="28.068428"
     inkscape:document-units="mm"
     inkscape:current-layer="g4767"
     showgrid="false"
     units="px"
     inkscape:window-width="1920"
     inkscape:window-height="1017"
     inkscape:window-x="-8"
     inkscape:window-y="-8"
     inkscape:window-maximized="1" />
  <metadata
     id="metadata5">
    <rdf:RDF>
      <cc:Work
         rdf:about="">
        <dc:format>image/svg+xml</dc:format>
        <dc:type
           rdf:resource="http://purl.org/dc/dcmitype/StillImage" />
        <dc:title></dc:title>
      </cc:Work>
    </rdf:RDF>
  </metadata>
  <g
     inkscape:label="Capa 1"
     inkscape:groupmode="layer"
     id="layer1"
     transform="translate(0,-280.06664)">
    <g
       transform="matrix(0.26458333,0,0,0.26458333,-6.6486078,25.056174)"
       id="layer1-0"
       inkscape:label="Capa 1">
      <g
         transform="matrix(0.27559286,0,0,0.27559286,46.705874,855.9707)"
         id="g4767">
        <path
           inkscape:connector-curvature="0"
           d="m 38.041405,457.34312 c -5.573384,-3.12633 -12.416461,-1.33467 -17.653955,1.64707 -20.14995002,11.46192 -40.294245,23.12272 -60.436191,34.42974 h -20.891026 c -7.805584,0 -14.133711,6.29749 -14.133711,14.10304 v 26.3829 c 0,7.80559 6.328127,14.16438 14.133711,14.16438 h 21.543064 c 19.762214,11.30694 39.53008694,22.9385 59.293244,34.4207 3.78077,2.10174 8.084009,3.63192 12.468774,3.24894 3.329891,-0.26232 6.536352,-1.88503 8.653586,-4.47899 3.097642,-3.74311 4.096415,-8.75162 4.139297,-13.49863 0.114518,-31.5964 0.279836,-63.19846 0.375967,-94.79477 -0.04799,-5.90131 -2.057392,-12.53664 -7.492744,-15.62438 z"
           id="path4757"
           style="stroke-width:3.96255136" />
        <g
           style="fill:#217844"
           transform="matrix(-0.10799838,0,0,0.13526438,151.34032,424.04208)"
           id="g4881">
          <g
             style="fill:#217844"
             id="g4883">
            <g
               style="fill:#217844"
               id="g4885">
              <g
                 style="fill:#217844"
                 id="g4887">
                <path
                   sodipodi:nodetypes="sccccccccscccccccccc"
                   style="fill:#217844"
                   inkscape:connector-curvature="0"
                   d="m 830.2,929.5 c -192.9,0 -518,-56.8 -551.9,-433.4 H 10 L 435.6,70.5 861.2,496.1 H 581.8 c -5.6,42.1 -13.8,164 61.6,257.7 66.7,82.8 177.88945,124.2828 338.68945,124.2828 l 0.685,40.1688 C 980.17445,918.5516 921.7,929.5 830.2,929.5 Z M 102.7,457.6 h 211.5 l 1.2,18 C 335.8,797.1 574,880.8 787.1,890.2 713.3,867.3 655.2,829.6 613.4,777.5 509.7,648.4 545.3,479.8 546.9,472.7 l 3.3,-15.1 H 768.5 L 435.6,124.8 Z"
                   id="path4889" />
              </g>
            </g>
          </g>
          <g
             style="fill:#217844"
             id="g4891" />
          <g
             style="fill:#217844"
             id="g4893" />
          <g
             style="fill:#217844"
             id="g4895" />
          <g
             style="fill:#217844"
             id="g4897" />
          <g
             style="fill:#217844"
             id="g4899" />
          <g
             style="fill:#217844"
             id="g4901" />
          <g
             style="fill:#217844"
             id="g4903" />
          <g
             style="fill:#217844"
             id="g4905" />
          <g
             style="fill:#217844"
             id="g4907" />
          <g
             style="fill:#217844"
             id="g4909" />
          <g
             style="fill:#217844"
             id="g4911" />
          <g
             style="fill:#217844"
             id="g4913" />
          <g
             style="fill:#217844"
             id="g4915" />
          <g
             style="fill:#217844"
             id="g4917" />
          <g
             style="fill:#217844"
             id="g4919" />
        </g>
        <path
           inkscape:connector-curvature="0"
           id="path4949"
           d="m 69.334302,543.18106 c 1.231276,-0.60184 2.900247,-1.50023 3.708822,-1.99642 9.912397,-6.08291 16.466643,-16.49951 18.962111,-30.13631 0.816187,-4.46013 0.964727,-6.38228 0.967743,-12.52261 0.0029,-5.87302 -0.09265,-7.31032 -0.739393,-11.12348 l -0.237317,-1.39918 -11.753747,-0.0697 -11.753748,-0.0697 17.861985,-22.36424 c 9.824088,-12.30035 17.903032,-22.36076 17.953222,-22.35648 0.0958,0.008 35.75871,44.61457 35.75871,44.72623 0,0.0357 -5.09714,0.0646 -11.32699,0.0646 h -11.32699 l -0.0696,0.45474 c -0.0384,0.25004 -0.10679,1.24175 -0.15217,2.2037 -0.52183,11.06003 -3.02812,21.77334 -6.88905,29.44786 -7.112,14.13679 -19.272657,22.73707 -36.007783,25.46553 -2.437215,0.39736 -5.62271,0.77131 -6.564838,0.77076 -0.609333,-4.4e-4 -0.557452,-0.0357 1.609049,-1.09466 z"
           style="fill:#217844;fill-opacity:1;stroke-width:3.96255136" />
        <path
           inkscape:connector-curvature="0"
           d="m 93.965624,487.54077 c -0.04644,1.12743 -0.07715,2.25846 -1.3e-4,3.38549 0.02615,0.38397 0.0695,0.76616 0.104215,1.14926 0.312883,2.78508 0.813955,5.54432 1.330268,8.29746 0.257407,1.20172 0.405099,2.42714 0.727199,3.61432 0,0 -1.795063,0.96996 -1.795063,0.96996 v 0 c -0.272267,-1.22404 -0.352311,-2.47874 -0.572208,-3.71252 -0.449263,-2.76657 -0.977716,-5.52051 -1.356417,-8.29826 -0.04525,-0.3808 -0.09859,-0.76112 -0.135639,-1.14295 -0.107345,-1.10532 -0.09748,-2.21487 -0.146772,-3.32292 0,0 1.844547,-0.93984 1.844547,-0.93984 z"
           id="path4957"
           style="fill:#217844;fill-opacity:1;stroke-width:3.96255136" />
        <path
           inkscape:connector-curvature="0"
           d="m 92.658403,501.61195 c -0.197098,-1.07068 -0.251622,-2.15733 -0.288078,-3.24295 -0.04398,-1.87587 -0.04101,-3.75246 -0.03725,-5.62873 -0.02536,-1.75636 -0.0014,-3.52013 -0.266165,-5.26064 -0.146059,-0.96381 -0.589164,-1.84286 -1.021763,-2.70527 -0.07553,-0.12126 -0.202566,-0.37367 -0.348507,-0.45918 -0.04014,-0.0238 -0.09863,-0.0357 -0.138966,-0.0119 -0.05227,0.0317 -0.156006,0.17475 -0.101204,0.14978 0.545616,-0.24964 1.032015,-0.62755 1.595506,-0.83396 0.108217,-0.04 -0.105404,0.20487 -0.158106,0.3075 -0.337847,0.88389 -0.427801,1.83577 -0.394551,2.77474 0.205616,1.44133 0.615198,0.56517 -1.67822,1.85934 0,0 1.70868,-1.20307 1.70868,-1.20307 v 0 c -0.583906,0.35188 -1.170855,0.6988 -1.751717,1.05571 -0.01228,0.008 0.03966,0.0119 0.04279,-0.008 0.0099,-0.0448 -0.0037,-0.0923 -0.0107,-0.13829 -0.125454,-0.78419 0.01981,0.36178 -0.0991,-0.6497 -0.02813,-0.9606 0.04248,-1.92667 0.334479,-2.84828 0.400729,-1.0139 0.09589,-0.42431 2.021753,-1.61221 0.05801,-0.0357 0.137976,-0.0277 0.204151,-0.0119 0.276665,0.0682 0.398684,0.4255 0.526516,0.63045 0.422859,0.89094 0.897411,1.78418 1.030421,2.77355 0.208589,1.76638 0.131319,3.54941 0.20003,5.32396 0.0091,1.86577 0.0083,3.73233 0.08143,5.59698 0.05635,1.05983 0.104215,2.13217 0.370815,3.16454 0,0 -1.822286,0.97427 -1.822286,0.97427 z"
           id="path4959"
           style="fill:#217844;fill-opacity:1;stroke-width:3.96255136" />
        <path
           inkscape:connector-curvature="0"
           d="m 89.544812,487.18287 c -0.633695,-0.0697 -1.270184,-0.0911 -1.904509,-0.15572 -0.48292,-0.0567 -0.968194,-0.0832 -1.454007,-0.0959 -0.539874,-0.002 -1.073427,0.11729 -1.608562,0.18466 -0.643047,0.0788 -1.291387,0.0765 -1.938032,0.0765 -1.00694,-0.008 -2.013888,-3.1e-4 -3.020835,-6.3e-4 -1.076947,-0.004 -2.153889,-0.008 -3.230835,-0.004 -0.968317,-0.004 -1.937252,0.0238 -2.904926,-0.0159 -0.763128,-0.082 -1.529466,-0.14226 -2.290969,-0.23815 -0.639837,-0.0828 -1.284208,-0.11967 -1.928649,-0.14028 -0.510642,-0.0535 -1.021526,-0.10223 -1.534296,-0.12838 -0.216197,-0.0119 -0.631005,-0.0119 -0.709757,-0.28649 -0.01625,-0.0555 -0.0067,-0.11492 -0.0103,-0.17317 0.8719,-1.1487 2.174874,-1.2635 3.421183,-1.29912 1.044862,-0.0119 2.089818,-0.0159 3.134743,-0.0198 0.965167,-0.008 1.928863,-0.002 2.892809,0.0471 1.03719,0.0598 2.07203,0.1486 3.110219,0.19377 0.792668,0.0317 1.586038,0.0357 2.379218,0.0317 0.436218,-0.004 0.872388,-0.004 1.308617,-0.002 0.585011,0.063 1.176311,0.0638 1.759519,0.14067 0.596,0.0951 1.191714,0.18228 1.793384,0.23498 0.388211,0.0317 0.777769,0.0396 1.167122,0.0404 0.406839,0.0717 0.819083,0.10025 1.231073,0.12205 0.286691,0.0119 0.573679,0.0159 0.860607,0.0198 0,0 -1.675715,1.21492 -1.675715,1.21492 v 0 c -0.286097,-0.004 -0.572217,-0.0119 -0.857762,-0.0317 -0.412026,-0.0277 -0.822471,-0.0741 -1.233927,-0.10699 -0.386626,-0.0119 -0.773042,-0.0277 -1.157635,-0.069 -0.60184,-0.0658 -1.199853,-0.15731 -1.80014,-0.23498 -0.579828,-0.0606 -1.163056,-0.0991 -1.745527,-0.12046 -0.434855,0.004 -0.869697,0.008 -1.304524,-0.002 -0.783555,-0.0119 -1.567078,-0.0317 -2.350034,-0.0642 -1.03845,-0.0523 -2.074075,-0.14464 -3.112719,-0.19219 -0.962928,-0.0432 -1.925863,-0.0416 -2.889663,-0.0396 -1.046264,-0.002 -2.093095,-0.0119 -3.138681,0.0317 -0.297152,0.0198 -0.476446,0.0198 -0.765288,0.0586 -0.09871,0.0119 -0.197176,0.0277 -0.294814,0.0452 -0.08567,0.0159 -0.327148,0.10817 -0.254752,0.0594 1.396086,-0.93762 2.179851,-1.00759 1.418122,-0.92022 -0.161236,-0.0277 -0.0588,0.0357 0.0099,0.061 0.156323,0.0543 0.326277,0.0444 0.488234,0.0598 0.507436,0.0396 1.012872,0.0983 1.520554,0.13235 0.644778,0.0277 1.28815,0.084 1.929172,0.15969 0.752809,0.0836 1.504454,0.18188 2.259732,0.23973 0.963233,0.0277 1.927088,0.0119 2.890614,0.0198 1.080005,0.002 2.16001,7e-5 3.240015,-0.002 1.009599,0.001 2.019285,0.0119 3.028796,-0.0119 0.648472,-0.0119 1.29841,-0.0277 1.942594,-0.10977 0.544799,-0.0713 1.088191,-0.19693 1.640365,-0.16761 0.483895,0.0198 0.966435,0.0575 1.446874,0.11927 0.643883,0.0678 1.290357,0.0872 1.935496,0.13869 0,0 -1.692251,1.19764 -1.692251,1.19764 z"
           id="path4961"
           style="fill:#217844;fill-opacity:1;stroke-width:3.96255136" />
        <path
           inkscape:connector-curvature="0"
           d="m 69.518557,484.91237 c 0.0823,-0.0404 0.164605,-0.0808 0.246788,-0.12165 0.298142,-0.1474 0.40777,-0.19892 0.704466,-0.36218 0.117648,-0.065 0.46665,-0.26667 0.349973,-0.2001 -1.506784,0.86054 -1.873463,1.10404 -1.138949,0.63036 0.367289,-0.25123 0.689992,-0.5592 0.970223,-0.90362 0.220278,-0.26866 0.383536,-0.57334 0.600117,-0.84478 0.19361,-0.23894 0.377591,-0.49504 0.469962,-0.79072 9.43e-4,-0.0277 0.0099,-0.0539 0.0029,-0.0796 -0.0016,-0.008 -0.09379,0.0507 -0.207915,0.10342 -0.215365,0.0991 -0.108257,0.0408 -0.314706,0.17316 2.84252,-1.64418 1.74168,-1.17331 1.279555,-0.57025 -0.138491,0.18109 -0.249561,0.3812 -0.359641,0.57984 -0.170429,0.34871 -0.378186,0.67324 -0.646197,0.9543 -0.304165,0.29204 -0.63385,0.55528 -0.946582,0.83797 -0.386269,0.39894 -0.668043,0.88784 -0.881592,1.39755 -0.194522,-0.16524 0.02417,0.27698 -0.05298,0.24488 -0.02655,-0.0119 0.02061,-0.0979 -0.0055,-0.086 -0.587528,0.27103 -1.145011,0.60325 -1.727427,0.88495 -0.06411,0.0317 0.115271,-0.084 0.168805,-0.13076 0.0701,-0.0614 0.134449,-0.12918 0.201614,-0.19377 0.433876,-0.46354 0.738156,-1.02535 1.036901,-1.58046 0.284115,-0.53035 0.610185,-1.03447 0.959635,-1.52345 0.308445,-0.39641 0.526048,-0.85084 0.782437,-1.28034 0.429573,-0.6663 0.99552,-1.22878 1.54387,-1.79598 0.538241,-0.55726 1.048998,-1.14011 1.56562,-1.71721 0,0 1.831574,-0.77021 1.831574,-0.77021 v 0 c -0.515496,0.57255 -1.020591,1.15461 -1.547008,1.71718 -0.534045,0.55388 -1.082101,1.10321 -1.521227,1.73801 -0.267155,0.42641 -0.469551,0.8926 -0.775519,1.29342 -0.348665,0.48731 -0.70031,0.97185 -0.980914,1.50351 -0.297944,0.56518 -0.60031,1.1338 -1.00499,1.6317 -0.06233,0.0658 -0.125137,0.13116 -0.186953,0.19773 -0.04787,0.0515 -0.08096,0.12125 -0.142058,0.15612 -0.08317,0.0472 -1.764607,1.56806 -2.053227,0.89602 -0.03012,-0.0697 0.0321,-0.27857 0.042,-0.32216 0.205854,-0.53237 0.495778,-1.03296 0.849781,-1.48057 0.297865,-0.29243 0.622643,-0.55206 0.934603,-0.82892 0.282768,-0.25757 0.514102,-0.55092 0.678544,-0.89938 0.656273,-1.2767 0.92915,-1.23913 2.56402,-2.14612 0.29628,-0.13235 0.733959,-0.28927 0.777559,0.19456 -0.04466,0.33483 -0.237396,0.61816 -0.434981,0.88559 -0.230739,0.2643 -0.402286,0.55428 -0.602704,0.83974 -0.280588,0.36654 -0.597596,0.70078 -0.971586,0.97535 -1.169792,0.78367 -2.415618,1.45699 -3.678618,2.07816 0,0 1.620366,-1.28411 1.620366,-1.28411 z"
           id="path4963"
           style="fill:#217844;fill-opacity:1;stroke-width:3.96255136" />
        <path
           inkscape:connector-curvature="0"
           d="m 104.94792,440.75636 c 0.40985,0.69962 0.91915,1.33894 1.42874,1.96827 0.52387,0.63607 1.09951,1.22606 1.68196,1.808 0.46755,0.51144 1.0533,0.8804 1.61914,1.27007 0.81154,0.52259 1.52915,1.16242 2.21686,1.83546 0.95021,1.05891 1.85087,2.16292 2.76246,3.25563 0.49169,0.58658 0.98888,1.168 1.46338,1.76869 0.42879,0.6111 0.86643,1.21634 1.32132,1.80834 0.28233,0.38199 0.62363,0.71315 0.93137,1.07298 0.29263,0.33326 0.53764,0.70296 0.77068,1.07905 0.30143,0.45521 0.58003,0.92434 0.86855,1.38772 0.36202,0.51878 0.684,1.06343 1.05048,1.57892 0.36293,0.52357 0.76783,1.01596 1.17206,1.50767 0.34827,0.42086 0.72769,0.81375 1.07996,1.23109 0.2632,0.29006 0.4902,0.6092 0.73647,0.91313 0.31364,0.40303 0.56541,0.85329 0.84734,1.28038 0.25769,0.39467 0.56653,0.75383 0.82091,1.15056 0.144,0.22468 0.28725,0.49707 0.4142,0.72899 0.49844,0.93414 1.06371,1.82646 1.70677,2.66704 0.59893,0.71445 1.15582,1.46226 1.72425,2.20068 0.6027,0.83681 1.1861,1.68492 1.83489,2.48714 0.55426,0.73984 1.20468,1.39351 1.8431,2.0583 0.68255,0.78514 1.27375,1.64244 1.91692,2.459 0.71178,0.88857 1.39724,1.79758 2.10871,2.68642 0.49931,0.64193 1.02224,1.2646 1.54173,1.89013 0.47658,0.54703 0.94457,1.10155 1.42939,1.64141 0.54017,0.57893 1.07503,1.16301 1.5946,1.76048 0.40482,0.46485 0.77737,0.95629 1.15736,1.44142 0.21021,0.22071 0.3407,0.57025 0.60213,0.74203 0.0305,0.0198 0.076,0.0432 0.10707,0.0238 0.0361,-0.0198 0.0301,-0.0793 0.0451,-0.11887 -3.40709,1.9323 -1.40047,1.34893 -1.61514,0.499 -0.0419,-0.16603 -0.0985,-0.22666 -0.19056,-0.36693 -0.38782,-0.52373 -1.03486,-0.67998 -1.62618,-0.86863 -1.0134,-0.26193 -2.04248,-0.45784 -3.07452,-0.62993 -0.75468,-0.13631 -1.52224,-0.14344 -2.28331,-0.21239 -0.75966,-0.0582 -1.50677,-0.21279 -2.26216,-0.3075 -0.5344,-0.0666 -1.07277,-0.082 -1.61056,-0.0915 -0.62447,-0.008 -1.24897,-0.004 -1.87345,-0.008 -0.70883,-10e-4 -1.41766,0.004 -2.1265,0.002 -0.77867,-0.0277 -1.5484,0.001 -2.31708,0.12839 -0.70244,0.12284 -1.41201,0.18981 -2.11286,0.32097 -0.41298,0.0539 -0.81496,0.12997 -1.2178,0.23498 -0.39539,0.12244 -0.7935,0.21239 -1.20448,0.26469 -0.34522,0.0491 -0.69542,0.0198 -1.04006,0.0658 -0.43218,0.0396 -0.85914,0.10303 -1.28385,0.191 -0.4394,0.0868 -0.88332,0.18901 -1.33341,0.16524 -0.0497,-0.0238 -0.11099,-0.0317 -0.14907,-0.0741 -0.34823,-0.36931 0.19349,-0.99607 0.3942,-1.28581 0.61009,-0.87731 1.61976,-1.87266 2.75515,-1.80269 0.0821,0.004 0.16238,0.0277 0.24357,0.0396 0.0835,0.0238 0.16956,0.042 0.25052,0.0737 0.1707,0.0678 0.47824,0.24212 0.63077,0.32256 0.32053,0.1692 0.64669,0.32413 0.97414,0.47923 0.55959,0.29283 1.18217,0.42316 1.76009,0.66899 0.50198,0.68667 0.21743,0.22389 -1.77551,1.27745 -0.0857,0.0452 -0.19147,-0.0317 -0.28776,-0.0408 -0.14095,-0.0159 -0.28233,-0.0277 -0.42368,-0.0396 -0.52025,-0.042 -0.66037,-0.0464 -1.19724,-0.0757 -1.03653,-0.0515 -2.07426,-0.0686 -3.11192,-0.0709 -0.41494,0.0159 -0.83462,-0.0277 -1.24704,0.0277 -0.53003,0.16207 -2.46345,1.16472 1.257,-0.75209 0.0584,-0.0317 -0.0969,0.0896 -0.13735,0.14186 -0.0936,0.11967 -0.11864,0.20249 -0.1772,0.33959 -0.15367,0.47218 -0.14281,0.63072 0.0922,1.0666 0.41414,0.64661 0.96526,1.18599 1.47594,1.75395 0.36697,0.40164 0.5604,0.79794 0.64246,1.3305 0.052,0.43469 0.0546,0.87291 0.0511,1.30998 -0.003,0.45621 -0.0127,0.9125 -0.006,1.36867 0.0573,0.7534 0.0593,0.35821 -1.84008,0.87786 -0.0869,0.0238 -3.1e-4,-0.18029 -0.005,-0.27024 -0.007,-0.12601 -0.0178,-0.25123 -0.0289,-0.37645 -0.0541,-0.61011 -0.0487,-0.50804 -0.13916,-1.16776 -0.24865,-1.68979 -0.38112,-3.39194 -0.52996,-5.09228 -0.0174,-0.17554 -0.0321,-0.35108 -0.0521,-0.52587 -0.10509,-0.91027 -0.60676,-0.67628 1.7603,-1.10777 0.14388,-0.0277 -0.0206,0.29165 -0.0269,0.43794 -0.009,0.20804 -0.0123,0.41627 -0.0182,0.62442 -0.042,1.67458 -0.0242,3.34943 -0.006,5.02408 0.002,1.21999 0.002,2.43978 0.0242,3.65966 0.008,0.60005 0.0135,1.20013 0.0186,1.80018 0.006,0.38913 0.005,0.77781 2.4e-4,1.1667 -0.002,0.53268 -0.003,1.06533 -0.007,1.59794 0.009,0.69178 -0.0896,1.38091 -0.19595,2.06302 -0.0899,0.42312 -0.123,0.85746 -0.23855,1.27463 -0.12617,0.39547 -0.38282,0.72265 -0.64178,1.03954 -0.76693,0.84818 -1.7989,1.45184 -2.85985,1.86081 -0.70542,0.32335 -0.77136,-0.14859 -0.83755,-0.75272 0.008,-0.19773 0.007,-0.39626 0.0234,-0.59363 0.043,-0.52445 0.14368,-1.16063 0.23018,-1.67184 0.19112,-1.12929 0.42319,-2.24887 0.66573,-3.36793 0.21164,-0.94119 0.38527,-1.89264 0.64265,-2.82312 0.0991,-0.35861 0.1881,-0.70078 0.43106,-0.98505 0.65431,-0.25599 1.27105,-0.64566 1.96293,-0.76799 0.13627,-0.0238 0.0736,0.26748 0.0937,0.40434 0.0504,0.34157 0.0703,0.98957 0.0797,1.30852 0.0194,0.65675 0.0198,1.1128 0.0262,1.77661 -0.0151,1.3057 0.0527,2.61373 -0.0218,3.91856 -0.0547,0.9566 -0.0867,1.03387 -0.22357,1.98572 -0.24691,1.46392 -0.60473,2.90312 -0.97754,4.33867 -0.12264,0.45213 -0.21572,0.91694 -0.38599,1.35452 -0.1574,0.32533 -0.35212,0.63128 -0.53159,0.94491 -0.22856,0.43826 -0.41878,0.89391 -0.64864,1.33225 -0.4662,0.83618 -0.5742,0.80083 -2.03666,1.41523 -0.0849,0.0357 -0.0968,-0.16128 -0.11309,-0.25202 -0.017,-0.0935 0.008,-0.1902 0.0166,-0.28491 0.0139,-0.15256 0.0337,-0.30512 0.0507,-0.45752 0.29735,-2.18178 0.53094,-4.37113 0.81795,-6.55441 0.19341,-1.49258 0.44665,-2.97647 0.65029,-4.46758 0.10409,-0.76224 0.21667,-1.52534 0.2112,-2.29559 -0.48144,-0.48886 -0.41487,-0.38872 1.69192,-0.791 0.15394,-0.0277 -0.12122,0.28927 -0.17103,0.43802 -0.28712,0.85651 -0.45945,1.74705 -0.65096,2.62789 -0.51732,2.58453 -0.65203,5.22272 -0.72432,7.85108 -0.003,0.33206 -0.008,0.66452 -0.008,0.99682 -4e-5,0.2326 -0.004,0.4656 0.008,0.69804 0.006,0.13076 0.0127,0.26351 0.0457,0.39031 0.009,0.0317 0.10481,0.0571 0.074,0.0729 -1.95998,0.99785 -1.99536,1.23933 -1.44204,0.3281 0.86139,-1.74336 1.38833,-3.62332 1.93061,-5.48322 0.3957,-1.32821 0.70202,-2.67892 0.91456,-4.04782 0.1165,-1.07659 -0.30579,-0.59918 1.84556,-1.31204 0.091,-0.0317 -0.0943,0.16761 -0.13216,0.25558 -0.0762,0.17752 -0.31225,0.85246 -0.36186,0.99202 -0.47094,1.38345 -0.80328,2.80597 -1.09401,4.23621 -0.21072,0.93021 0.0281,0.80654 -1.99293,1.04425 -0.14523,0.0198 -0.0111,-0.29244 -0.0123,-0.43853 -0.003,-0.28769 0.008,-1.21908 0.01,-1.45212 0.0361,-2.121 0.021,-4.24215 0.0262,-6.36326 -5.6e-4,-0.37526 0.008,-0.75071 0.009,-1.12612 5.7e-4,-0.83725 -0.20874,-0.51811 1.85645,-1.0431 0.1226,-0.0317 0.005,0.2532 0.0127,0.37921 0.0119,0.19694 0.0305,0.39309 0.046,0.58939 0.0915,1.41539 0.25682,2.82677 0.31879,4.24393 -0.008,0.13116 -0.0166,0.26233 -0.025,0.39349 0,0 -1.81332,0.90128 -1.81332,0.90128 v 0 c 0.0174,-0.1268 0.0349,-0.25361 0.0523,-0.38041 0.006,-1.41574 -0.12414,-2.83156 -0.2933,-4.23596 -0.0289,-0.1914 -0.0586,-0.38318 -0.0868,-0.57469 -0.0166,-0.11214 -0.13715,-0.26748 -0.0475,-0.33682 2.8747,-2.22759 1.88495,-1.60935 1.77812,-0.8405 -0.0467,0.33603 -0.0694,0.84581 -0.0887,1.15893 -0.0789,2.11561 -0.0397,4.23335 -0.0119,6.34971 0.0139,0.50701 0.019,0.91206 0.0513,1.40988 0.009,0.13235 0.13841,0.31225 0.0357,0.39586 -0.5505,0.44733 -1.23776,0.69431 -1.83951,1.06989 -0.0988,0.0614 0.98215,-0.0642 0.21259,-0.27738 0.37089,-1.41824 0.66503,-2.85684 1.09719,-4.25911 0.001,-0.004 0.28669,-0.89566 0.30911,-0.974 0.0277,-0.0971 -0.0139,-0.24052 0.0719,-0.29402 2.03112,-1.26801 2.05078,-1.54682 1.85772,-0.38714 -0.0701,0.39546 -0.13188,0.79251 -0.20871,1.18678 -0.1929,0.98997 -0.48792,1.95707 -0.77732,2.92191 -0.5508,1.84211 -1.06289,3.70273 -1.8223,5.47339 -0.45988,1.08412 -0.16837,0.65727 -2.17776,1.53355 -0.0604,0.0277 -0.0684,-0.11689 -0.0769,-0.18188 -0.0301,-0.23221 0.0329,-1.02915 0.0397,-1.15528 0.0178,-0.33959 0.0333,-0.67978 0.0501,-1.01965 0.11757,-2.62812 0.2095,-5.26789 0.67803,-7.86289 0.16635,-0.8693 0.32608,-1.73841 0.53783,-2.59808 0.0369,-0.14939 -0.006,-0.35267 0.11595,-0.44599 0.59355,-0.4551 1.26578,-0.80325 1.93883,-1.12944 0.052,-0.0277 0.0313,0.11095 0.0468,0.16682 -0.0964,0.80234 -0.24184,1.59746 -0.37145,2.39497 -0.24156,1.48599 -0.47755,2.97318 -0.66162,4.46765 -0.25729,2.14961 -0.45725,4.30373 -0.64862,6.45999 -0.006,0.14662 -0.0103,0.29283 -0.0182,0.43921 -0.004,0.0741 0.0151,0.15533 -0.0178,0.22151 -0.0123,0.0238 -0.0456,-0.0579 -0.0698,-0.0444 -0.58319,0.32294 -1.13239,0.70426 -1.71317,1.03133 -0.1186,0.0666 0.49637,-0.47444 0.2374,-0.33206 0.23763,-0.43121 0.43013,-0.87822 0.62383,-1.3292 0.1828,-0.3063 0.35996,-0.61566 0.5396,-0.92343 0.21421,-0.4232 0.29533,-0.90438 0.44835,-1.3508 0.42882,-1.43638 0.83749,-2.8795 1.0819,-4.36138 0.0487,-0.32849 0.10806,-0.65525 0.14625,-0.98493 0.18791,-1.62164 0.10343,-3.25769 0.10057,-4.88543 -0.0198,-0.82064 -0.0285,-1.64454 -0.10928,-2.46225 -0.0178,-0.17871 -0.0392,-0.35742 -0.0707,-0.53463 -0.0182,-0.10302 -0.15901,-0.23894 -0.0777,-0.30511 0.52238,-0.4261 1.15464,-0.69603 1.73196,-1.0441 -0.0604,0.0198 -0.13449,0.0119 -0.18133,0.0555 -0.20284,0.18386 -0.34466,0.6262 -0.41594,0.84026 -0.30967,0.92977 -0.49743,1.89592 -0.71967,2.84828 -0.38024,1.80934 -0.77849,3.6509 -0.80746,5.50565 0.0174,0.13433 0.0198,0.38872 0.11396,0.52519 0.10398,0.15058 0.4394,-0.0848 0.54484,-0.10976 0.70989,-0.34791 0.36277,-0.18346 -1.37401,0.82164 -0.0688,0.04 0.13766,-0.0801 0.20177,-0.1268 0.0305,-0.0198 0.33587,-0.28531 0.36432,-0.31225 0.0554,-0.0523 0.10624,-0.10977 0.15933,-0.16445 0.26225,-0.28728 0.50926,-0.60183 0.6692,-0.95842 0.13953,-0.40941 0.1694,-0.84339 0.27358,-1.26251 0.12656,-0.66781 0.21536,-1.35008 0.20887,-2.03053 -0.004,-0.53039 -0.004,-1.0607 -0.007,-1.59108 -0.005,-0.38913 -0.006,-0.77797 2.9e-4,-1.16694 0.005,-0.60638 0.0103,-1.21281 0.0182,-1.81912 0.021,-1.2274 0.021,-2.45473 0.021,-3.68232 0.0155,-1.6722 0.0285,-3.34444 -0.0111,-5.01647 -0.005,-0.20328 -0.008,-0.40648 -0.0139,-0.60976 -0.004,-0.14147 -0.12462,-0.33167 -0.0174,-0.42384 2.20912,-1.89445 1.80535,-1.52875 1.87394,-0.19575 0.085,1.69895 0.24184,3.39298 0.53587,5.06977 0.0901,0.50808 0.17744,1.01537 0.24061,1.52752 0.0111,0.0904 0.10148,0.21676 0.0289,0.27184 -0.57195,0.43318 -1.21624,0.76326 -1.84703,1.10507 -0.0321,0.0198 0.006,-0.0721 0.008,-0.10857 0.01,-0.45653 0.004,-0.91325 0.008,-1.36986 8.9e-4,-0.42839 0.0111,-0.85805 -0.0313,-1.28497 -0.0699,-0.49211 -0.23514,-0.86063 -0.57204,-1.236 -0.50421,-0.59181 -1.05151,-1.14974 -1.50225,-1.78533 -0.28265,-0.46639 -0.33892,-0.69103 -0.18977,-1.21896 0.0545,-0.16761 0.0697,-0.23854 0.15375,-0.39657 0.44992,-0.84525 1.5162,-1.2553 2.43064,-1.42981 0.41195,-0.0198 0.82448,-10e-4 1.23665,0.008 1.02337,0.0277 2.04659,0.0654 3.0694,0.11055 0.55625,0.0238 1.11791,0.0721 1.6749,0.0741 0.86194,0.002 0.93232,-0.46928 -1.31488,1.09969 -0.5641,-0.26668 -1.18693,-0.3919 -1.73898,-0.68972 -0.59573,-0.29125 -1.17626,-0.66646 -1.83012,-0.80266 -0.0724,8e-5 -0.14547,-0.0119 -0.21727,2.8e-4 -0.53315,0.0701 -2.41163,1.33835 1.34951,-0.87196 0.0739,-0.0436 -0.15109,0.0844 -0.21445,0.14226 -0.0972,0.0888 -0.30912,0.39348 -0.3791,0.4902 -0.18006,0.24489 -0.36455,0.48708 -0.49617,0.76283 -0.0258,0.0539 -0.0939,0.14345 -0.0426,0.17436 0.0293,0.0198 0.0674,0.0119 0.10109,0.0198 0.43801,-0.0119 0.86781,-0.10461 1.29618,-0.19139 0.43253,-0.0828 0.86757,-0.14186 1.30615,-0.18188 0.34439,-0.0198 0.69081,-0.0198 1.03292,-0.0721 0.40379,-0.0634 0.79336,-0.17633 1.18822,-0.27976 0.40306,-0.0995 0.81171,-0.15414 1.2216,-0.21833 0.69528,-0.11175 1.39813,-0.17039 2.09098,-0.29957 0.77899,-0.11175 1.55988,-0.1276 2.3462,-0.11135 0.7078,-10e-4 1.41559,0.002 2.12337,-4.4e-4 0.63023,-0.004 1.26052,-0.008 1.89074,-10e-4 0.53891,0.0119 1.07711,0.0416 1.61084,0.12046 0.75227,0.10699 1.49985,0.25638 2.2602,0.2964 0.75813,0.0571 1.51698,0.10699 2.26617,0.24607 1.03808,0.18466 2.0758,0.3808 3.09622,0.64812 0.6442,0.20248 1.33144,0.3808 1.73928,0.96306 0.82598,1.29163 -0.23843,1.36827 -1.59764,2.19683 -0.0492,-0.0119 -0.10148,-0.0119 -0.14749,-0.0317 -0.29248,-0.12997 -0.52499,-0.62727 -0.74044,-0.85737 -0.37605,-0.48284 -0.72339,-0.98715 -1.12816,-1.44677 -0.51698,-0.59866 -1.05667,-1.17708 -1.59685,-1.75474 -0.48765,-0.54128 -0.95811,-1.0975 -1.43616,-1.64715 -0.51701,-0.62703 -1.02932,-1.25759 -1.51147,-1.91225 -0.71066,-0.88939 -1.3909,-1.80236 -2.10305,-2.69065 -0.64557,-0.808 -1.24676,-1.65191 -1.93173,-2.42774 -0.64346,-0.66769 -1.28229,-1.33763 -1.84227,-2.07974 -0.64183,-0.80888 -1.2273,-1.65726 -1.83991,-2.48789 -0.5736,-0.73553 -1.12927,-1.48532 -1.72565,-2.20286 -0.63668,-0.85575 -1.18823,-1.76599 -1.72504,-2.68705 -0.37704,-0.64454 -0.79652,-1.25672 -1.24001,-1.85764 -0.29018,-0.41583 -0.5597,-0.84747 -0.86887,-1.24785 -0.24441,-0.30353 -0.46868,-0.62275 -0.72671,-0.91539 -0.34641,-0.42181 -0.72432,-0.81549 -1.06637,-1.24107 -0.40588,-0.49635 -0.81646,-0.98901 -1.1761,-1.5209 -0.37153,-0.51727 -0.69644,-1.06518 -1.06645,-1.58372 -0.29197,-0.46072 -0.56636,-0.93179 -0.867,-1.38705 -0.23787,-0.36257 -0.48907,-0.71655 -0.77104,-1.04655 -0.30591,-0.36534 -0.64317,-0.70434 -0.91722,-1.09568 -0.44104,-0.59958 -0.87129,-1.20711 -1.31263,-1.80649 -0.47953,-0.593 -0.96223,-1.18346 -1.42464,-1.79004 -0.87656,-1.10948 -1.7619,-2.21935 -2.7442,-3.23729 -0.69972,-0.65116 -1.43318,-1.26025 -2.2326,-1.78687 -0.58172,-0.39229 -1.18775,-0.75891 -1.64908,-1.29869 -0.57284,-0.5989 -1.15377,-1.19217 -1.68428,-1.82939 -0.51201,-0.63841 -0.99791,-1.29754 -1.47507,-1.96229 0,0 1.78115,-1.0437 1.78115,-1.0437 z"
           id="path4965"
           style="fill:#217844;fill-opacity:1;stroke-width:3.96255136" />
        <path
           inkscape:connector-curvature="0"
           d="m 109.40771,448.68986 c 0.62957,0.12997 1.01313,0.59993 1.36746,1.09743 0.607,0.91313 0.95306,1.95484 1.30877,2.98241 0.60039,1.63523 1.25961,3.24644 2.05256,4.79794 0.43402,0.78518 0.85723,1.60404 1.55665,2.18538 0.2807,0.17911 0.14443,0.0927 0.40869,0.25955 0,0 -1.73059,1.10956 -1.73059,1.10956 v 0 c -0.26327,-0.1803 -0.12604,-0.0836 -0.41097,-0.29086 -0.69154,-0.6279 -1.10291,-1.4762 -1.51593,-2.30129 -0.75516,-1.57559 -1.43644,-3.18339 -2.08267,-4.80653 -0.37431,-0.99809 -0.71748,-2.01991 -1.32647,-2.90618 -0.38869,-0.5122 -0.68577,-0.83617 -1.34003,-0.95485 0,0 1.71253,-1.17284 1.71253,-1.17284 z"
           id="path4967"
           style="fill:#217844;fill-opacity:1;stroke-width:3.96255136" />
        <path
           inkscape:connector-curvature="0"
           d="m 113.61614,456.03183 c -0.58433,-0.45248 -0.93164,-1.10182 -1.31548,-1.71665 -0.46011,-0.7011 -0.90944,-1.40964 -1.37361,-2.10808 -0.27048,-0.41516 -0.70787,-0.63916 -1.10243,-0.914 -0.31217,-0.21477 -0.59196,-0.47107 -0.87366,-0.72317 0,0 1.73535,-1.07722 1.73535,-1.07722 v 0 c 0.27734,0.24608 0.55832,0.48878 0.86621,0.69662 0.42345,0.28253 0.86429,0.54081 1.13783,0.9883 0.4437,0.71163 0.86919,1.4344 1.34188,2.12785 0.38069,0.58713 0.72748,1.2184 1.33213,1.60697 0,0 -1.74822,1.11938 -1.74822,1.11938 z"
           id="path4969"
           style="fill:#217844;fill-opacity:1;stroke-width:3.96255136" />
        <path
           inkscape:connector-curvature="0"
           d="m 91.098045,459.03006 c -0.0934,-0.2223 -0.191827,-0.44246 -0.286968,-0.66405 0.0032,-0.0618 -4.52e-4,-0.12442 0.0095,-0.18544 0.01308,-0.0816 0.09736,-0.34118 0.119471,-0.41572 0.06241,-0.21041 0.113686,-0.42129 0.1587,-0.6361 0.04628,-0.31225 0.08868,-0.62181 0.193571,-0.92035 0.154856,-0.37961 0.436752,-0.66646 0.744135,-0.92656 0.649668,-0.4736 1.358953,-0.86197 2.110015,-1.147 0.389004,-0.14503 0.794452,-0.23934 1.189566,-0.36574 0.04628,-0.0198 0.09332,-0.0357 0.138808,-0.0547 0.04545,-0.0198 0.0892,-0.0436 0.133816,-0.0654 -0.243539,0.13829 -0.483669,0.28253 -0.730572,0.41468 -0.05674,0.0317 0.107068,-0.0713 0.159295,-0.10897 0.05761,-0.0412 0.114279,-0.0844 0.170112,-0.12838 0.04906,-0.0396 0.09625,-0.0793 0.144395,-0.11888 -0.01387,-0.0277 0.125613,-0.0884 0.11008,-0.1478 -0.0075,-0.0277 -0.130447,-0.0238 -0.175105,-0.0238 -0.275754,0.008 -0.303452,0.0198 -0.607281,0.0634 -0.739091,0.15969 -1.467059,0.38794 -2.154328,0.70561 -0.175343,0.0808 -0.343038,0.17753 -0.515279,0.2651 -0.125216,0.0634 0.249403,-0.12918 0.374065,-0.19337 -0.34177,0.24052 -0.695459,0.4973 -0.899741,0.87271 -0.07628,0.14027 -0.0863,0.2009 -0.129971,0.3487 -0.07644,0.39978 -0.05857,0.81082 -0.02219,1.21393 0.05302,0.33801 0.111427,0.67649 0.187073,1.01033 0.0099,0.0238 0.01149,0.0531 0.02932,0.0713 0.02893,0.0277 0.128268,-0.0793 0.105959,-0.0682 -0.248254,0.12046 -0.470371,0.29878 -0.731713,0.38714 -0.0953,0.0317 0.146813,-0.13789 0.21485,-0.21199 0.0871,-0.0951 0.166665,-0.19694 0.249997,-0.29482 0.424366,-0.55967 0.818917,-1.14442 1.133793,-1.77344 0.24231,-0.48406 0.294378,-0.64256 0.498009,-1.14692 0.352826,-0.99717 0.618785,-2.0228 0.822785,-3.06 0.09708,-0.47816 -0.02813,-0.32612 0.961358,-0.56645 0.05219,-0.0119 -0.02378,0.10462 -0.03566,0.15732 -0.07826,0.34474 -0.03764,0.16841 -0.13116,0.56415 -0.190995,0.81164 -0.376482,1.62678 -0.670939,2.40879 -0.06443,0.17118 -0.138254,0.3388 -0.207361,0.50788 -0.252375,0.63492 -0.578619,1.23529 -0.869197,1.85237 -0.09593,0.21795 0.02774,-0.0198 -0.04981,0.0119 -0.30575,0.12443 -0.585023,0.30908 -0.893075,0.4276 -0.03804,0.0159 0.04006,-0.0713 0.05991,-0.10699 0.171143,-0.30908 -0.02734,0.0464 0.151925,-0.27381 0.02655,-0.0452 0.05334,-0.0904 0.08,-0.13512 0,0 0.932352,-0.4129 0.932352,-0.4129 v 0 c -0.02734,0.044 -0.05448,0.0884 -0.08179,0.13235 -0.01308,0.0198 -0.192778,0.36693 -0.196978,0.3697 -0.306979,0.19655 -0.623654,0.37962 -0.950688,0.54062 -0.01942,0.0119 -0.02734,-0.0396 -0.02417,-0.0602 0.0037,-0.0277 0.02813,-0.0476 0.04232,-0.0713 0.336064,-0.61392 0.674097,-1.22808 0.940709,-1.87651 0.07045,-0.16761 0.145981,-0.33364 0.211244,-0.50364 0.29521,-0.76889 0.473156,-1.57432 0.636239,-2.37951 0.03646,-0.18347 0.07473,-0.36257 0.104057,-0.54679 0.0079,-0.0503 -0.02259,-0.12284 0.01981,-0.15177 0.298221,-0.20248 0.635918,-0.33959 0.953873,-0.50946 -0.0107,0.0119 -0.02576,0.0198 -0.0321,0.0357 -0.02338,0.0511 -0.03725,0.1062 -0.05559,0.1589 -0.275834,1.03775 -0.522265,2.08497 -0.87469,3.10058 -0.201377,0.51184 -0.248412,0.65988 -0.486237,1.15239 -0.302897,0.62719 -0.684681,1.20992 -1.089864,1.77518 -0.0214,0.0277 -0.357065,0.46524 -0.423291,0.51109 -0.3281,0.22745 -0.67151,0.43295 -1.021847,0.62414 -0.1207,0.0658 -0.204309,-0.0583 -0.227966,-0.14978 -0.07125,-0.34118 -0.109406,-0.68945 -0.170707,-1.03249 -0.04284,-0.41186 -0.07212,-0.8309 -0.0052,-1.24194 0.04394,-0.16563 0.04969,-0.21913 0.12906,-0.37842 0.201734,-0.40506 0.568607,-0.67966 0.929932,-0.93489 0.415763,-0.24607 0.826402,-0.50098 1.24728,-0.73822 0.830278,-0.46798 1.795983,-0.75344 2.719246,-0.96956 0.183307,-0.0277 0.821571,-0.18505 0.926555,0.0915 0.01308,0.0357 0.0103,0.0773 -0.0048,0.11134 -0.01942,0.0448 -0.06233,0.0749 -0.09352,0.11254 -0.523081,0.44389 -1.104997,0.84521 -1.760443,1.06331 -0.393521,0.11571 -0.792558,0.21596 -1.175752,0.36416 -0.168845,0.0666 -0.262836,0.10065 -0.427916,0.17673 -0.07049,0.0317 -0.274803,0.14384 -0.209183,0.10263 0.214334,-0.13552 0.43739,-0.25638 0.656048,-0.38476 0.06923,-0.0408 -0.139918,0.0788 -0.207796,0.12165 -0.06744,0.0424 -0.131953,0.0896 -0.19797,0.13472 -0.304997,0.2433 -0.58557,0.51129 -0.751073,0.87188 -0.117728,0.29204 -0.158146,0.60152 -0.209738,0.91072 -0.08282,0.39724 -0.202289,0.78347 -0.303968,1.17565 0.09482,0.22031 0.190124,0.44055 0.298301,0.65469 0,0 -0.904084,0.51085 -0.904084,0.51085 z"
           id="path4971"
           style="fill:#217844;fill-opacity:1;stroke-width:3.96255136" />
        <path
           inkscape:connector-curvature="0"
           d="m 92.444036,455.73777 c -0.07073,0.30274 -0.14598,0.60429 -0.210609,0.90846 -0.0034,0.0159 -0.0401,0.18425 -0.04398,0.21516 -4.47e-4,0.004 0.0037,0.0119 0.0048,0.0119 0.0087,-0.0277 0.04612,-0.10223 0.01862,-0.0895 -0.262718,0.11927 -0.494349,0.29957 -0.754771,0.42367 -0.07973,0.0396 0.139164,-0.10857 0.208747,-0.16325 0.264976,-0.26153 0.542219,-0.52853 0.746937,-0.8428 0.01743,-0.0277 0.266481,-0.47602 0.292,-0.52195 0.02417,-0.0396 0.174392,-0.27896 0.208351,-0.34197 0.190678,-0.35464 -0.345455,0.0317 0.898235,-0.47324 0.07466,-0.0317 -0.13643,0.0856 -0.204626,0.12878 -0.721977,0.46445 -1.374934,1.03272 -1.979171,1.64077 -0.409467,0.47816 -0.774493,0.73644 -1.458116,0.85473 -0.07311,0.0119 0.06261,-0.13433 0.09387,-0.2017 0.375966,-0.57401 0.91689,-1.00177 1.398768,-1.4795 1.020781,-1.01207 -0.0823,0.0198 0.976238,-0.95263 0.808808,-0.80809 1.302439,-1.71543 1.690242,-2.77644 0.06839,-0.20764 0.13021,-0.41754 0.168092,-0.63282 0.01466,-0.084 0.0099,-0.15652 0.0661,-0.23142 0.195235,-0.25994 0.410223,-0.50463 0.615333,-0.75696 1.458928,-1.81501 2.86706,-3.67008 4.268163,-5.52986 0.42559,-0.53946 0.806601,-1.11439 1.247931,-1.64141 0.21195,-0.23498 0.43263,-0.46235 0.65311,-0.68952 0.1709,-0.17237 0.3275,-0.35742 0.48748,-0.53982 0.17665,-0.20764 0.39574,-0.3705 0.60527,-0.54271 0.39507,-0.34712 0.78377,-0.55377 1.29508,-0.79279 0.0238,-0.0119 0.0439,0.0277 0.0659,0.0436 0.0151,0.0277 0.0361,0.0551 0.0455,0.0856 0.0598,0.19456 -0.0487,0.56557 -0.0939,0.75562 -0.19432,0.60433 -0.41637,1.19926 -0.61374,1.80268 -0.0701,0.29521 -0.24742,0.6037 -0.19258,0.91741 0.006,0.0357 0.021,0.0682 0.0313,0.10303 0.0862,0.17911 0.21751,0.21556 0.38778,0.27975 0.15858,0.063 0.32124,0.13315 0.45962,0.23498 0.0964,0.0662 0.17206,0.15652 0.25987,0.23261 0.0127,0.0159 0.0254,0.0317 0.038,0.0483 0,0 -0.89234,0.53288 -0.89234,0.53288 v 0 c -0.009,-0.0119 -0.0186,-0.0198 -0.0277,-0.0357 -0.0829,-0.0761 -0.16061,-0.15811 -0.25285,-0.22349 -0.13493,-0.0927 -0.2884,-0.1581 -0.44159,-0.21477 -0.19032,-0.0721 -0.34423,-0.16841 -0.43134,-0.36297 -0.0131,-0.0412 -0.0305,-0.0816 -0.0384,-0.12403 -0.0643,-0.33404 0.11265,-0.65826 0.20371,-0.96852 0.20408,-0.59387 0.41421,-1.18595 0.60038,-1.78577 0.05,-0.22111 0.12347,-0.47035 0.0953,-0.69883 -0.32425,0.12284 -6.1e-4,0.002 0.80544,-0.47535 0.0254,-0.0159 -0.0541,0.0238 -0.0789,0.04 -0.0984,0.0642 -0.1791,0.15375 -0.27488,0.22151 -0.2057,0.17237 -0.42804,0.32651 -0.60812,0.52698 -0.16313,0.18109 -0.3168,0.37089 -0.48766,0.54501 -0.22369,0.22864 -0.44909,0.45613 -0.66843,0.6892 -0.47748,0.538 -0.88943,1.13179 -1.35372,1.68096 -1.448797,1.83042 -2.884192,3.67186 -4.287046,5.5377 -0.16294,0.22627 -0.328615,0.45098 -0.48886,0.67934 -0.02298,0.0317 -0.04636,0.0658 -0.06051,0.10343 -0.01308,0.0357 -0.01189,0.0733 -0.01981,0.10936 -0.04945,0.22626 -0.124107,0.4465 -0.201813,0.66448 -0.406966,1.04211 -0.923805,2.03917 -1.723389,2.83957 -0.947513,0.85555 -0.0745,0.0432 -0.96943,0.94756 -0.456692,0.46152 -0.968519,0.8716 -1.340055,1.41138 -0.203042,0.51763 -0.02378,0.18268 -1.047636,0.66643 -0.02179,0.0119 0.03487,-0.0317 0.05437,-0.0464 0.198246,-0.13789 0.146218,-0.0686 0.339075,-0.26073 0.06843,-0.0682 0.129655,-0.14345 0.194482,-0.21517 0.427615,-0.42482 0.87635,-0.81882 1.343309,-1.20002 0.106355,-0.0872 0.21053,-0.17673 0.320451,-0.25915 0.09169,-0.0686 0.189292,-0.12918 0.283917,-0.19377 0.412466,-0.2536 0.579777,-0.36416 1.185829,-0.61134 0.02576,-0.0119 0.03368,0.0491 0.0321,0.0769 -0.0083,0.13394 -0.224756,0.33642 -0.27195,0.45177 -0.04795,0.0812 -0.0993,0.16088 -0.14388,0.2437 -0.05068,0.0947 -0.08638,0.19694 -0.141701,0.28887 -0.04715,0.0785 -0.108098,0.1478 -0.164327,0.21992 -0.176175,0.22626 -0.368081,0.43953 -0.571439,0.64174 -0.420352,0.38952 -0.342801,0.34315 -1.198399,0.75225 -0.07295,0.0357 -0.135321,-0.0547 -0.135123,-0.10937 2.42e-4,-0.0753 0.0596,-0.14305 0.05223,-0.21952 0.06895,-0.30036 0.147367,-0.59867 0.199356,-0.90236 0,0 0.93194,-0.45026 0.93194,-0.45026 z"
           id="path4973"
           style="fill:#217844;fill-opacity:1;stroke-width:3.96255136" />
        <path
           inkscape:connector-curvature="0"
           d="m 99.660048,445.84197 c 0.118283,0.21636 0.269216,0.41504 0.423352,0.60726 0.0238,0.0357 0.0489,0.0709 0.0712,0.10779 0.0721,0.11887 0.0612,0.12204 0.13881,0.23933 0.085,0.12839 0.19059,0.24132 0.2914,0.35703 0.16436,0.19337 0.28443,0.4188 0.41972,0.63266 0.10148,0.16445 0.18699,0.33484 0.23918,0.521 0.0639,0.1902 0.0861,0.38872 0.0956,0.58788 8.9e-4,0.32889 9.3e-4,0.65727 -0.0403,0.98398 -0.0647,0.3816 -0.24854,0.69622 -0.5331,0.95823 -0.0943,0.0872 -0.19052,0.17435 -0.3006,0.24013 -1.073264,0.64114 -2.164083,1.25244 -3.246125,1.87864 -0.342484,0.15018 -0.858142,0.42716 -1.237616,0.22032 -0.20736,-0.11293 -0.227371,-0.23498 -0.327862,-0.4356 -0.09498,-0.30631 -0.09736,-0.62751 -0.147565,-0.94162 -0.0071,-0.0444 -0.03527,-0.2865 -0.08825,-0.33167 4.474549,-2.26472 3.425424,-2.56203 3.075629,-1.20061 -0.05048,0.19614 -0.08508,0.39772 -0.130724,0.59541 -0.01902,0.11055 -0.0548,0.21675 -0.08012,0.32572 -0.0075,0.0317 0.0099,0.0836 -0.01942,0.10144 -0.655096,0.39586 -2.745037,2.9674 -3.279827,1.5387 -0.02576,-0.0682 -0.01942,-0.14463 -0.02893,-0.21675 0.05801,-1.09901 0.0909,-2.19803 0.09399,-3.29859 0.01704,-0.5901 0.0107,-1.18088 0.03447,-1.77082 0.01109,-0.27778 0.0313,-0.54224 0.093,-0.81244 1.050675,-0.59466 2.055364,-1.27915 3.152028,-1.78406 0.09348,-0.0432 0.13437,0.1581 0.182673,0.24885 0.07434,0.13987 0.142335,0.45458 0.170231,0.6008 0.03804,0.20011 0.0993,0.64134 0.12704,0.83356 0.149626,0.94408 0.264579,1.89354 0.440279,2.83326 0.03566,0.1165 0.07232,0.53836 0.188538,0.63302 0.01268,0.0119 0.03804,-0.0159 0.03685,-0.0317 -0.0052,-0.0721 0.0107,-0.24211 -0.05381,-0.20962 -1.015304,0.50646 -1.963729,1.13713 -2.945594,1.70572 0.05191,-0.0721 0.111348,-0.13869 0.155768,-0.21556 0.122245,-0.2116 0.311021,-0.66111 0.393164,-0.86427 0.273694,-0.67708 0.509042,-1.36887 0.749192,-2.05827 0.341334,-0.99983 0.690645,-1.99836 1.111745,-2.96803 0.17677,-0.40703 0.331705,-0.72364 0.52047,-1.11907 0.786826,-1.60943 0.868546,-1.29781 3.616126,-2.44045 0.0984,-0.0408 0.12272,0.17712 0.15989,0.27698 0.0369,0.0991 0.0392,0.20764 0.0591,0.31106 0.0636,0.88428 0.0234,1.77158 0.0441,2.65733 0.0127,0.27381 0.0147,0.41927 0.0422,0.68124 0.007,0.0658 0.0111,0.13235 0.0273,0.19654 0.005,0.0198 0.0384,0.0713 0.0353,0.0511 -0.0131,-0.0777 0.007,-0.26074 -0.0644,-0.22745 -1.02669,0.47697 -1.98297,1.09275 -2.97445,1.63915 0.0623,-0.0697 0.12938,-0.13592 0.18683,-0.20962 0.1337,-0.17198 0.33995,-0.49948 0.44955,-0.67597 0.26319,-0.42376 0.51005,-0.8537 0.74325,-1.29453 0.23138,-0.46362 0.44395,-0.94229 0.54905,-1.45172 0.0498,-0.28213 0.0412,-0.5691 0.038,-0.85421 -0.004,-0.18703 -0.002,-0.37406 -0.005,-0.56121 0,0 3.15744,-1.61205 3.15744,-1.61205 v 0 c -4.7e-4,0.18624 0.006,0.37288 0.007,0.55928 0.003,0.30987 0.007,0.62113 -0.0305,0.92914 -0.0277,0.15533 -0.0384,0.24686 -0.0889,0.3997 -0.14337,0.43493 -0.39901,0.82472 -0.59923,1.23318 -0.39558,0.71433 -0.79173,1.43029 -1.14915,2.16443 -1.05984,0.62394 -2.07591,1.32908 -3.1795,1.87187 -0.085,0.042 -0.13801,-0.13433 -0.1816,-0.21873 -0.04,-0.0773 0.0123,-0.32731 0.0178,-0.38081 0.0305,-0.29045 0.0321,-0.42007 0.0468,-0.72451 0.0178,-0.84153 0.0182,-1.69343 -0.12732,-2.52478 -0.386743,-1.22126 -0.70177,0.22745 2.90055,-1.86727 0.0646,-0.0357 -0.14602,0.0448 -0.20503,0.0911 -0.19586,0.15256 -0.37664,0.45886 -0.50607,0.6478 -0.28023,0.47653 -0.38112,0.62854 -0.63177,1.14184 -0.46343,0.94911 -0.82371,1.94245 -1.13982,2.94901 -0.31479,1.01362 -0.620277,2.03172 -0.873572,3.06254 -1.038045,0.64495 -2.039549,1.35274 -3.114133,1.93472 -0.09403,0.0507 -0.248729,-0.22428 -0.270444,-0.28412 -0.08821,-0.2429 -0.0556,-0.51965 -0.08527,-0.77008 -0.07069,-0.95236 -0.199435,-1.89719 -0.407553,-2.82994 -0.04141,-0.18188 -0.125137,-0.57112 -0.185051,-0.76124 -0.02853,-0.09 -0.06312,-0.17792 -0.10152,-0.26391 -0.0214,-0.0479 -0.03998,-0.0999 -0.07727,-0.1371 -0.0111,-0.0119 -0.03051,0.0519 -0.01704,0.044 0.988363,-0.57643 1.966777,-1.16982 2.950167,-1.75473 -0.05112,0.0277 -0.115984,0.0428 -0.15339,0.0884 -0.123077,0.15018 -0.195711,0.4847 -0.227173,0.64816 -0.113805,0.59097 -0.136907,1.19696 -0.14923,1.79677 0.0063,1.03094 0.0029,2.07341 0.186874,3.09111 0.06269,0.26074 -0.0044,-0.0626 -0.05884,-0.0317 -1.038121,0.55167 -2.02841,1.189 -3.040707,1.78672 -0.02734,0.0159 0.06344,-0.0198 0.08607,-0.0424 0.07117,-0.0709 0.106989,-0.2009 0.139839,-0.28768 0.502079,-1.99146 -0.590472,-0.57485 3.394919,-2.60625 -0.0019,0.14582 -0.0317,0.28728 -0.0321,0.43386 -8.6e-4,0.27064 0.03091,0.54053 0.121333,0.79659 0.02378,0.0396 0.03844,0.0864 0.07125,0.11808 0.05896,0.0575 0.176611,0.0527 0.244449,0.0444 0.302145,-0.0396 0.574721,-0.1906 0.840382,-0.3277 -0.846413,0.49544 -1.691268,0.99357 -2.539238,1.48639 -0.0993,0.0575 0.19999,-0.11412 0.293189,-0.18109 0.194997,-0.14027 0.382109,-0.31859 0.485654,-0.53835 0.02695,-0.0575 0.04367,-0.11888 0.06546,-0.17871 0.05151,-0.29719 0.04034,-0.59541 0.01942,-0.89562 -0.0087,-0.1688 -0.01545,-0.33998 -0.06574,-0.50316 -0.05195,-0.15533 -0.09336,-0.31225 -0.180851,-0.45359 -0.116697,-0.20408 -0.236722,-0.40704 -0.369428,-0.60096 -0.181406,-0.23062 -0.378979,-0.44908 -0.527087,-0.70415 -0.14598,-0.19773 -0.273337,-0.41337 -0.456858,-0.57925 0,0 3.092383,-1.84825 3.092383,-1.84825 z"
           id="path4975"
           style="fill:#217844;fill-opacity:1;stroke-width:3.96255136" />
        <path
           inkscape:connector-curvature="0"
           d="m 105.19686,439.7272 c 0.0127,0.0444 0.0226,0.0888 0.0376,0.13235 0.0309,0.0892 0.17681,0.44559 0.19639,0.49429 0.18988,0.47249 0.3844,0.94273 0.58079,1.41257 0.34764,0.91662 0.86452,1.7518 1.30344,2.62408 0.17613,0.32453 0.24912,0.61249 0.25527,0.9776 0.004,0.23894 0.0107,0.47781 0.0139,0.71675 -0.004,0.13155 0.0174,0.27658 -0.0345,0.4024 -0.0353,0.0856 -0.1123,0.15335 -0.17356,0.21794 -0.39007,0.31185 -0.77957,0.62568 -1.18231,0.92125 -1.28309,0.8418 -0.56517,0.37842 -3.50327,2.04182 -0.1249,0.0705 -0.55173,0.24885 -0.6799,0.29402 -0.33734,0.11888 -0.45914,0.13394 -0.81127,0.212 -1.0334,0.17316 -2.069021,0.33008 -3.098832,0.52385 -0.557297,0.12006 -1.120725,0.21318 -1.673461,0.35425 -0.447261,0.11412 -0.886506,0.25915 -1.323433,0.40696 -0.418084,0.1375 -0.835769,0.27658 -1.277748,0.29798 -0.227213,0.0317 -0.465065,-0.0238 -0.688085,0.0317 -0.710375,1.01501 -0.05548,0.0555 2.913565,-1.62508 0.03725,-0.0198 -0.07283,0.0468 -0.09978,0.08 -0.121849,0.14979 -0.145981,0.36337 -0.181287,0.5445 -0.08504,0.5074 -0.03606,1.01798 0.106157,1.51064 0.03051,0.10659 0.07133,0.20962 0.106989,0.31423 0.102154,0.28689 0.281975,0.53431 0.42043,0.80277 0.08765,0.17 0.08599,0.18228 0.1524,0.36178 0.07295,0.30472 0.156045,0.62815 0.134093,0.94503 -0.0044,0.0606 -0.01664,0.12086 -0.02496,0.18109 -0.117926,0.46798 -0.399735,0.86388 -0.709959,1.22399 -0.407921,0.40002 -0.882611,0.73514 -1.376376,1.02155 -1.089939,0.63211 -2.185264,1.2549 -3.277894,1.88233 -0.688089,0.30987 -1.374676,0.63369 -2.09273,0.87022 -0.142494,0.0468 -0.287444,0.086 -0.431185,0.12918 -0.504064,0.10144 -1.004681,0.29243 -1.524108,0.30313 -0.08658,0.002 -0.175185,0.004 -0.25927,-0.0159 -0.07335,-0.0198 -0.136431,-0.0646 -0.204626,-0.0971 -0.04624,-0.0828 -0.115311,-0.15692 -0.13869,-0.24885 -0.09038,-0.35584 0.143643,-0.75174 0.293388,-1.05119 0.124186,-0.24805 0.350884,-0.65786 0.481576,-0.89712 0.349458,-0.61225 0.683228,-1.23734 1.087376,-1.81639 0.248888,-0.35663 0.322116,-0.42744 0.601238,-0.75637 0.553874,-0.60017 1.186776,-1.12137 1.846664,-1.60012 -1.806555,6.80778 2.211769,-2.36073 3.349735,-1.80173 0.07212,0.0357 0.132626,0.0975 0.174788,0.16603 0.190717,0.30947 0.118678,0.74769 0.104611,1.08368 -0.0571,0.97375 -0.09348,1.95001 -0.235574,2.91604 -0.08202,0.461 -0.257565,0.89553 -0.4101,1.33565 -0.04014,0.11571 -0.148041,0.453 -0.188261,0.57798 -0.115944,0.32335 -0.187745,0.66353 -0.345851,0.97023 -0.721394,1.16285 -1.63487,1.10857 -3.32168,2.0591 -0.03329,0.0198 -0.07517,0.0198 -0.111427,0.0277 -0.04188,0.0159 -0.08159,0.0357 -0.122364,0.0527 -0.274684,0.0721 -0.550251,0.33523 -0.838091,0.33642 -0.05349,2.8e-4 -0.104532,-0.0198 -0.156798,-0.0357 -0.04811,-0.0507 -0.106355,-0.0939 -0.144316,-0.15256 -0.201615,-0.31185 -0.07529,-0.91788 -0.02734,-1.26009 0.01704,-0.15771 0.04918,-0.43216 0.05762,-0.59537 0.0034,-0.0682 0.0059,-0.13671 0.0015,-0.20447 -0.0021,-0.0357 -0.0063,-0.0693 -0.02061,-0.10025 -0.0044,-0.0119 -0.02179,0.0357 -0.01189,0.0277 1.068316,-0.50193 2.130442,-1.0169 3.195663,-1.5253 -0.03646,0.0119 -0.0829,0.008 -0.109327,0.0357 -0.06883,0.0721 -0.201773,0.42792 -0.220872,0.48042 -0.149032,0.40878 -0.268978,0.82857 -0.389242,1.24638 -0.03606,0.12958 -0.07117,0.25915 -0.108693,0.38873 -0.06895,0.23696 -0.126564,0.42732 -0.215602,0.65636 -0.111269,0.28649 -0.25079,0.55987 -0.387141,0.83475 -0.17566,0.34989 -0.404185,0.67011 -0.692805,0.93476 1.218457,1.40402 -2.812104,2.68432 -3.420189,1.50645 -0.09205,-0.17832 -0.0955,-0.38952 -0.111427,-0.584 -0.0017,-0.0357 -0.01664,-0.37328 -0.02061,-0.41714 -0.0044,-0.0503 -0.0091,-0.10144 -0.01862,-0.15097 -0.0055,-0.0277 0.002,-0.0777 -0.02615,-0.0808 -0.02615,-0.002 -0.02021,0.0895 0.0034,0.0785 1.056681,-0.50618 2.092084,-1.05559 3.138122,-1.5834 -0.03963,0.0277 -0.08848,0.0483 -0.118678,0.0872 -0.09003,0.11491 -0.206291,0.41464 -0.251265,0.53213 -0.135639,0.35385 -0.234544,0.71468 -0.331191,1.08063 -0.17772,0.66606 -0.405281,1.31695 -0.616767,1.97255 -0.0034,0.0119 -0.109247,0.35624 -0.121491,0.41199 -0.295329,1.34354 5.169282,-1.69015 -3.228442,1.72145 -0.09122,0.0357 -0.0573,-0.1906 -0.06138,-0.28887 -0.0044,-0.10302 0.02457,-0.20486 0.03685,-0.3071 0.214889,-1.27796 0.498303,-2.54284 0.75317,-3.81308 0.135559,-0.67458 0.292397,-1.3443 0.417023,-2.0211 0.05128,-0.27857 0.105285,-0.55911 0.124583,-0.84212 1.052283,-0.57104 2.05652,-1.24131 3.156853,-1.71317 0.101957,-0.0436 0.07144,0.21081 0.09205,0.31978 0.01427,0.0765 0.0091,0.15533 0.01228,0.23339 0.01149,0.25678 0.01149,0.51169 0.0075,0.76858 -0.02972,0.81109 -0.0554,1.62219 -0.05726,2.43384 0.0015,0.3598 -0.01189,0.72665 0.05591,1.08253 0.0091,0.0483 0.01743,0.0987 0.04204,0.14106 0.0059,0.0119 0.03487,-0.0317 0.02378,-0.0277 -1.05409,0.51251 -2.103802,1.0339 -3.155705,1.5509 0.03408,-0.0832 0.07398,-0.16484 0.101838,-0.25004 0.09792,-0.30115 0.192937,-0.7324 0.255386,-1.02955 0.165635,-0.78791 0.293269,-1.58339 0.431578,-2.37642 0.174471,-0.99797 0.284352,-2.00596 0.466451,-3.00254 0.0067,-0.0412 0.02021,-0.0816 0.021,-0.12364 5.11e-4,-0.0357 -0.01149,-0.0717 -0.01783,-0.10738 1.090075,-0.49726 2.154681,-1.05463 3.270227,-1.49182 0.04264,-0.0198 0.0405,0.57726 0.04093,0.6113 -0.0015,0.42677 -0.0091,0.85338 -0.0091,1.28014 0,0 -3.086392,1.57159 -3.086392,1.57159 v 0 c 0.0022,-0.41666 2.26e-4,-0.8336 -0.01942,-1.24995 -0.01387,-0.21714 -0.0059,-0.15652 -0.03249,-0.35346 -0.0029,-0.0198 -0.02853,-0.0535 -0.0099,-0.0638 1.060192,-0.55171 2.153718,-1.03843 3.208101,-1.60115 0.03527,-0.0198 -0.06768,-0.0642 -0.106196,-0.0543 -0.04739,0.0119 -0.06657,0.0717 -0.09986,0.10778 -0.03923,0.0737 -0.08325,0.14543 -0.117133,0.22151 -0.108138,0.2437 -0.206686,0.55464 -0.27718,0.80495 -0.194205,0.69004 -0.328733,1.39486 -0.469459,2.0971 -0.160761,1.15473 -0.325088,2.31849 -0.320373,3.48657 -1.072096,0.58075 -2.126812,1.19483 -3.21628,1.7423 -0.03527,0.0198 -0.01664,-0.0785 -0.01625,-0.11809 6.77e-4,-0.0634 0.01466,-0.12561 0.01942,-0.18822 0.02972,-0.3804 0.05017,-0.76259 0.04232,-1.14438 0.0013,-0.79216 -0.01704,-1.58419 -0.04862,-2.37571 -0.0091,-0.24013 -0.0079,-0.48383 -0.0317,-0.72321 -0.0059,-0.061 -0.02774,-0.12125 -0.02615,-0.18267 2.93e-4,-0.0119 0.02021,0.0119 0.03011,0.0198 1.021201,-0.58364 2.042402,-1.16729 3.063603,-1.75089 -0.04153,0.0436 -0.09316,0.0788 -0.124583,0.12997 -0.115072,0.18743 -0.248412,0.59074 -0.306226,0.77127 -0.215681,0.67364 -0.372281,1.36344 -0.520679,2.05435 -0.228718,1.19483 -0.47129,2.40051 -0.477111,3.62149 0.0044,0.0761 0.02021,0.15256 0.01308,0.22825 -0.0011,0.0119 -0.02457,-0.004 -0.03447,0.002 -1.045475,0.55797 -2.090452,1.11684 -3.12946,1.6867 -0.03289,0.0198 0.08048,-0.004 0.108891,-0.0317 0.0888,-0.0773 0.194284,-0.33761 0.2328,-0.41924 0.242547,-0.6432 0.420719,-1.30705 0.636524,-1.95932 0.109049,-0.35941 0.211006,-0.71988 0.303571,-1.08412 0.03051,-0.11967 0.102115,-0.40045 0.125534,-0.53585 0.0103,-0.0602 0.01387,-0.12086 0.0214,-0.18109 1.081389,-0.55999 2.13805,-1.17058 3.244157,-1.67996 0.05127,-0.0238 0.06471,0.0943 0.08337,0.1474 0.01506,0.0428 0.01268,0.0899 0.01545,0.13513 0.01189,0.18941 -0.0059,0.38 0.01744,0.5689 0.01109,0.0995 0.0075,0.2746 0.0653,0.36653 0.004,0.008 0.0014,-0.0159 0.0026,-0.0198 0.0037,-0.0198 0.02893,-0.0662 0.01189,-0.0571 -0.99466,0.55674 -1.974912,1.13884 -2.962368,1.70826 0.109565,-0.0531 0.170786,-0.0761 0.269137,-0.15415 0.230105,-0.18267 0.408816,-0.42379 0.575322,-0.66246 0.346327,-0.58693 0.641296,-1.20398 0.837989,-1.85827 0.118599,-0.40006 0.221348,-0.79767 0.302699,-1.20708 0.0321,-0.16088 0.07477,-0.32057 0.089,-0.48406 0.0055,-0.0606 -0.0016,-0.12205 -0.0024,-0.18228 1.093565,-0.52844 2.167912,-1.09858 3.280695,-1.58522 0.04236,-0.0198 0.03725,0.086 0.04244,0.13196 0.01228,0.10461 -0.03051,0.31106 -0.04379,0.40093 -0.04894,0.32572 -0.03883,0.26271 -0.07774,0.60005 -0.01466,0.24766 -0.03051,0.49226 -0.02179,0.74044 0.0014,0.0396 0.0034,0.0785 0.0052,0.11769 4.36e-4,0.0119 0.0014,0.0357 0.0019,0.0277 8.56e-4,-0.0119 -7.33e-4,-0.0277 -0.0011,-0.0396 0.29422,-0.14186 0.592465,-0.2754 0.891816,-0.4062 0.04644,-0.0198 0.09387,-0.0357 0.139323,-0.0587 0.03606,-0.0198 0.139641,-0.0785 0.105008,-0.0582 -0.991716,0.57461 -1.989482,1.13896 -2.976245,1.72209 -0.07913,0.0468 0.377909,-0.12324 0.235812,-0.12839 0.253286,-0.26747 0.362058,-0.59541 0.495493,-0.93374 0.243142,-0.6256 0.459165,-1.26108 0.676558,-1.89604 0.07683,-0.30591 0.134212,-0.50863 0.185051,-0.8254 0.107821,-0.67224 0.116618,-1.3563 0.09898,-2.03524 -0.0016,-0.0198 -0.04081,-0.64701 -0.111625,-0.69523 -0.01149,-0.008 -0.0052,0.0277 -0.01506,0.0396 -0.02338,0.0198 -0.109129,0.067 -0.08147,0.0507 0.928612,-0.54101 1.856241,-1.08368 2.784362,-1.62548 -0.727968,0.43398 -1.390519,0.96793 -1.993659,1.56283 -0.268938,0.28887 -0.393243,0.40873 -0.634614,0.72431 -0.426458,0.55765 -0.772353,1.17153 -1.10848,1.78592 -0.264857,0.51533 -0.533807,1.03209 -0.715078,1.58427 0.190836,0.0444 0.372321,0.0238 0.565892,-0.004 0.383416,-0.0575 0.761079,-0.15177 1.131518,-0.2651 0.845537,-0.29005 1.678018,-0.62461 2.470694,-1.03989 -4.779435,2.77823 -2.126471,1.33043 -1.131669,0.51668 0.06146,-0.0575 0.126089,-0.11135 0.184338,-0.17198 0.236168,-0.24567 0.409272,-0.54061 0.542921,-0.85198 0.11535,-0.33405 0.08084,-0.61931 -0.0059,-0.95791 -0.136351,-0.41793 -0.379295,-0.79326 -0.485646,-1.2234 -0.187904,-0.62517 -0.402306,-1.26271 -0.348982,-1.92501 0.01545,-0.21596 0.02972,-0.43049 0.07283,-0.64276 0.01149,-0.0571 -0.0075,-0.1383 0.04109,-0.1692 2.963394,-1.89561 1.928657,-1.93571 3.256531,-1.85491 0.218614,0.0119 0.438647,0.008 0.65652,-0.0159 0.379454,-0.0606 0.751462,-0.15811 1.120839,-0.26391 0.961695,-0.25677 1.93401,-0.46829 2.912538,-0.65041 1.0539,-0.19536 2.11498,-0.35663 3.15974,-0.59803 0.13786,-0.0408 0.27746,-0.0753 0.41359,-0.12165 0.26399,-0.0896 0.4956,-0.19258 0.74457,-0.31621 0.10948,-0.0543 0.42958,-0.2334 0.32421,-0.17118 -0.77946,0.45822 -3.69913,2.15372 -2.34679,1.3603 0.23296,-0.15494 0.25796,-0.16365 0.47063,-0.33602 0.2074,-0.16841 0.39535,-0.36139 0.62005,-0.50777 0.008,-0.004 0.15736,-0.11055 0.17951,-0.12046 0.0218,-0.0119 0.0501,-0.004 0.0701,-0.0198 0.0571,-0.0396 0.0522,-0.14384 0.0547,-0.19852 0.0107,-0.24053 0.0281,-0.48082 0.0277,-0.72162 -0.0111,-0.3075 -0.0218,-0.61475 -0.11694,-0.91119 -0.28185,-0.93588 -0.67172,-1.83708 -1.12371,-2.7029 -0.33385,-0.64023 -0.66763,-1.28787 -1.1135,-1.85931 0,0 3.12924,-1.78172 3.12924,-1.78172 z"
           id="path4977"
           style="fill:#217844;fill-opacity:1;stroke-width:3.96255136" />
        <path
           inkscape:connector-curvature="0"
           d="m 85.897513,463.84234 c -0.140631,0.66765 -0.158541,1.35729 -0.188023,2.03711 -0.02655,0.81311 -0.05484,1.62781 -0.02893,2.44144 0.01783,0.56023 0.04034,0.69301 0.09526,1.24821 0.05706,0.44967 0.153391,0.89244 0.252019,1.33435 0,0 -3.002746,1.58315 -3.002746,1.58315 v 0 c -0.03051,-0.47554 -0.06336,-0.95093 -0.107821,-1.4254 -0.05603,-0.56994 -0.07687,-0.70058 -0.101006,-1.2748 -0.03368,-0.80249 -0.02655,-1.60661 -0.0531,-2.40931 -0.01625,-0.64728 -0.03487,-1.29551 -0.0806,-1.94129 0,0 3.214774,-1.59346 3.214774,-1.59346 z"
           id="path4979"
           style="fill:#217844;fill-opacity:1;stroke-width:3.96255136" />
        <path
           inkscape:connector-curvature="0"
           d="m 83.868441,466.30851 c -0.170984,0.53883 -0.18826,1.11605 -0.220159,1.67652 -0.02576,0.80622 -0.07493,1.61581 -0.02734,2.4223 0.0083,0.14107 0.02496,0.28174 0.03725,0.42285 0.0552,0.44737 0.02774,0.23379 0.08199,0.64098 0,0 -3.053729,1.58284 -3.053729,1.58284 v 0 c -0.0044,-0.43608 -0.0022,-0.20724 -0.0067,-0.68643 -0.0059,-0.31384 -0.01942,-0.62723 -0.02417,-0.94099 -0.0091,-0.63951 0.0071,-1.27959 -0.01268,-1.9191 -0.0059,-0.54687 -0.01743,-1.09378 -0.0055,-1.64074 0,0 3.230993,-1.55823 3.230993,-1.55823 z"
           id="path4981"
           style="fill:#217844;fill-opacity:1;stroke-width:3.96255136" />
        <path
           inkscape:connector-curvature="0"
           d="m 79.36757,471.40281 c -0.0321,0.0119 -0.06459,0.0198 -0.09609,0.0317 -0.09475,0.0357 -0.15347,0.0658 -0.244093,0.11491 -0.04937,0.0277 -0.195552,0.11095 -0.146813,0.0828 2.940102,-1.68737 3.75894,-2.20163 2.636951,-1.50173 -0.453399,0.3285 -0.753653,0.81058 -1.059138,1.26948 -0.397777,0.59557 -0.702965,1.23913 -0.978025,1.89799 -0.211086,0.52016 -0.369389,1.05966 -0.634294,1.55625 -0.134093,0.21794 -0.289979,0.42043 -0.430428,0.63436 -0.110318,0.17475 -0.196899,0.36218 -0.299331,0.54137 -0.08163,0.16682 -0.132429,0.34514 -0.208193,0.51549 -0.114399,0.22388 -0.265292,0.42668 -0.414938,0.62786 -0.165278,0.2223 -0.384288,0.39713 -0.586204,0.58472 -0.198167,0.19297 -0.377195,0.4035 -0.558859,0.61134 -0.142334,0.19892 -0.235454,0.42902 -0.331626,0.65291 -0.0052,0.004 -0.119946,0.31106 -0.04961,0.18901 0.06669,-0.0238 0.140473,-0.0198 0.210253,-0.0198 0,0 -2.907728,2.0757 -2.907728,2.0757 v 0 c -0.114716,-0.0198 -0.225231,-0.0317 -0.321838,-0.10501 -0.209659,-0.20644 -0.253405,-0.36574 -0.160642,-0.64958 0.06126,-0.16246 0.146377,-0.31502 0.208113,-0.47693 0.01585,-0.0412 0.02338,-0.0848 0.03883,-0.12601 0.01466,-0.0396 0.03447,-0.0761 0.05151,-0.11412 0.136193,-0.2647 0.366814,-0.46017 0.558653,-0.68402 0.174867,-0.19773 0.368081,-0.37802 0.573313,-0.54413 0.15878,-0.17951 0.299768,-0.37248 0.441873,-0.5653 0.100609,-0.15296 0.159611,-0.31938 0.200306,-0.4971 0.08416,-0.2013 0.219803,-0.37446 0.297786,-0.57961 0.135084,-0.23418 0.280707,-0.46302 0.46791,-0.65968 0.357105,-0.46441 0.591894,-0.99631 0.781471,-1.54904 0.255426,-0.6684 0.533553,-1.32797 0.913776,-1.9369 0.283204,-0.47641 0.575398,-0.96052 0.956643,-1.36525 1.0835,-0.9568 0.174867,-0.17475 3.353218,-1.98413 0.181723,-0.10343 0.392332,-0.14939 0.59229,-0.2013 0,0 -2.85524,2.1714 -2.85524,2.1714 z"
           id="path4983"
           style="fill:#217844;fill-opacity:1;stroke-width:3.96255136" />
        <path
           inkscape:connector-curvature="0"
           d="m 81.630008,468.27255 c 0.02457,0.5414 0.291287,1.07944 0.532294,1.55407 0.221427,0.42197 0.467149,0.82968 0.716686,1.23533 0,0 -2.855046,1.66467 -2.855046,1.66467 v 0 c -0.26557,-0.40442 -0.528438,-0.81043 -0.780789,-1.22328 -0.295725,-0.50321 -0.571003,-1.01981 -0.794428,-1.5597 0,0 3.181283,-1.67109 3.181283,-1.67109 z"
           id="path4985"
           style="fill:#217844;fill-opacity:1;stroke-width:3.96255136" />
        <path
           inkscape:connector-curvature="0"
           d="m 84.780209,463.67504 c -0.05659,0.4631 -0.08325,0.93112 -0.05821,1.39755 0.0103,0.19377 0.03091,0.38714 0.0466,0.58087 0.119749,1.0347 0.292555,2.06445 0.53414,3.07795 0.179385,0.75249 0.25923,0.99516 0.475281,1.74281 0.296081,0.89701 0.610201,1.79528 1.102829,2.6053 0,0 -2.986262,1.68476 -2.986262,1.68476 v 0 c -0.300203,-0.93322 -0.495501,-1.89604 -0.778229,-2.83457 -0.230422,-0.74025 -0.317876,-0.99587 -0.518484,-1.73984 -0.268899,-0.99706 -0.4791,-2.00874 -0.711757,-3.01459 -0.06705,-0.31146 -0.151687,-0.68651 -0.206766,-1.0053 -0.04307,-0.24924 -0.05496,-0.49607 -0.08401,-0.74631 -0.0048,-0.0396 -0.01149,-0.0781 -0.01744,-0.11729 0,0 3.202126,-1.63158 3.202126,-1.63158 z"
           id="path4987"
           style="fill:#217844;fill-opacity:1;stroke-width:3.96255136" />
        <path
           inkscape:connector-curvature="0"
           d="m 66.992462,541.13321 c 0.321363,0.53233 0.697334,1.02895 1.076166,1.52118 0.402916,0.52809 0.820819,1.04731 1.284421,1.52396 0.291367,0.29957 0.427797,0.41575 0.735442,0.69662 0.583268,0.4698 1.135441,0.99349 1.769089,1.39787 0.07945,0.0507 0.164208,0.0927 0.246312,0.13869 0.11848,0.0357 0.234306,0.0963 0.362217,0.0515 0.04379,-0.0159 0.151092,-0.10699 0.110397,-0.0848 -0.98141,0.53562 -1.953594,1.08796 -2.933889,1.62564 -0.04957,0.0277 0.100252,-0.0551 0.141185,-0.0939 0.04819,-0.046 0.08187,-0.105 0.12276,-0.15771 0.03447,-0.0682 0.0745,-0.13353 0.103304,-0.20407 0.223963,-0.54873 0.234702,-1.23611 0.266085,-1.81972 0.02259,-0.5714 0.04228,-1.14514 -0.03368,-1.71372 -0.02695,-0.20368 -0.05314,-0.30235 -0.09625,-0.49504 -0.07588,-0.30552 -0.136113,-0.41045 -0.370023,-0.60441 -0.26026,-0.17436 -0.538764,-0.3182 -0.800079,-0.4912 -0.03566,-0.0277 -0.06946,-0.0547 -0.107385,-0.0777 -0.05298,-0.0317 -0.106434,-0.0729 -0.145663,0.008 -0.01862,0.0396 -0.06364,0.14344 -0.02655,0.12363 2.855902,-1.54211 3.63364,-2.60831 2.814889,-1.53212 -0.03764,0.082 -0.08163,0.16128 -0.112695,0.24568 -0.224557,0.61106 -0.244014,1.3156 -0.283996,1.95797 -0.01744,0.65684 0.03606,1.31763 0.201932,1.95421 0.03447,0.0749 0.06019,0.29165 0.177918,0.3079 0.0321,0.004 0.06419,-0.0119 0.09649,-0.0159 0.02298,-0.002 0.04723,1.1e-4 0.06911,-0.008 0.06384,-0.0198 0.220913,-0.15414 0.16195,-0.12165 -0.9764,0.54338 -1.94215,1.10563 -2.915792,1.65389 -0.05548,0.0317 0.109683,-0.065 0.161117,-0.10263 0.05698,-0.0416 0.10905,-0.0895 0.163495,-0.13473 0.466036,-0.47542 0.885615,-0.99634 1.300838,-1.51635 0.110912,-0.13433 0.222458,-0.26826 0.332776,-0.40311 0.310148,-0.37921 0.290613,-0.3705 0.610086,-0.73018 0.218812,-0.24647 0.450094,-0.48141 0.678226,-0.71916 0.160721,-0.17792 0.341057,-0.35029 0.447416,-0.56906 0.04232,-0.0872 0.0552,-0.15098 0.08016,-0.2433 0.08646,-0.35148 -0.02417,-0.60441 -0.220714,-0.89479 0.0206,0.08 -0.122998,-0.19377 -0.161593,-0.13512 -0.02259,0.0357 -0.02615,0.14107 0.0099,0.12205 1.039056,-0.54002 2.038566,-1.15303 3.063527,-1.71931 0.02734,-0.0159 -0.05342,0.0357 -0.06756,0.0638 -0.02219,0.0436 -0.02496,0.0943 -0.03764,0.14147 -0.05599,0.38278 -0.05468,0.77091 -0.02417,1.15575 0.02496,0.29997 0.09249,0.59042 0.19365,0.87291 0.100649,0.22151 0.168606,0.4576 0.270721,0.67796 0.12173,0.22467 0.235574,0.17514 0.462129,0.22388 0.240131,0.0456 0.484838,0.0523 0.728535,0.0523 0.188736,-0.004 0.377393,-0.004 0.566165,-0.002 0.245044,0.0238 0.485337,-0.0198 0.728044,-0.042 0.03764,-0.0159 0.07711,-0.0277 0.113408,-0.0432 0.06364,-0.0317 0.165674,-0.10461 0.223726,-0.14344 0.03844,-0.0277 0.156441,-0.0987 0.1163,-0.0761 -0.970559,0.55685 -3.879084,2.23282 -2.907799,1.67727 1.052798,-0.60223 2.101555,-1.21144 3.152332,-1.81715 0.202011,-0.12601 0.433068,-0.19258 0.642465,-0.30512 0.03963,-0.0198 0.157234,-0.084 0.118599,-0.0618 -0.963344,0.55499 -1.928067,1.10761 -2.892869,1.66011 -0.0554,0.0317 0.110159,-0.0642 0.164565,-0.0979 0.0613,-0.0357 0.120105,-0.0793 0.182476,-0.11491 3.132103,-1.79841 2.103247,-1.28716 3.396944,-1.92362 0.275358,-0.13671 0.535186,-0.30987 0.834696,-0.38833 0.171895,-0.0159 0.314468,-0.10224 0.463163,-0.18069 0.996474,-0.74615 0.09352,-0.0646 -2.859766,1.64132 -0.03328,0.0198 0.06669,-0.0396 0.0976,-0.0602 0.09157,-0.0678 0.167259,-0.15612 0.24338,-0.23934 0.112299,-0.11729 0.240249,-0.23894 0.236366,-0.41559 -0.0011,-0.0499 -0.01387,-0.0987 -0.021,-0.1482 -0.02417,-0.0586 -0.04252,-0.12046 -0.07228,-0.17633 -0.342167,-0.64574 -1.062364,-1.13262 -1.631272,-1.55487 -1.16119,-0.81545 -2.406889,-1.49265 -3.657011,-2.15848 -0.334281,-0.18743 -0.700511,-0.34989 -0.976757,-0.62378 -0.07545,-0.0749 -0.144871,-0.16881 -0.210253,-0.25242 0.07069,0.0452 -0.113844,-0.12838 -0.121729,-0.0804 -0.0071,0.0432 -0.0099,0.14781 0.02893,0.1276 1.037911,-0.54806 2.028268,-1.18211 3.05269,-1.75502 0.02853,-0.0159 -0.04557,0.0491 -0.05738,0.0801 -0.02061,0.0523 -0.02496,0.11055 -0.03764,0.16524 -0.07628,0.56042 -0.03566,1.12603 0.0059,1.68733 0.05001,0.53328 0.148358,1.06101 0.259349,1.58454 0.03249,0.15336 0.06055,0.30789 0.09978,0.45974 0.03646,0.14107 0.0846,0.27817 0.126881,0.41742 0.1799,0.47475 0.340423,0.98001 0.652573,1.38851 0.02655,0.0198 0.05013,0.0412 0.07953,0.0539 0.03051,0.0119 0.06483,0.0119 0.09692,0.0198 0.167775,0.0444 0.324969,0.0737 0.498462,0.0864 0.327267,-9.1e-4 0.649826,0.0198 0.97382,0.0654 0.553153,0.13037 1.096426,0.29719 1.649721,0.42625 0.264501,0.067 0.477833,0.23379 0.70577,0.37328 0.172609,0.1058 0.218694,0.126 0.39828,0.22071 0.332181,0.19971 0.647878,0.27896 1.028017,0.31383 0.261687,-0.004 0.60654,0.0852 0.846239,-0.0507 0.03923,-0.0198 0.06899,-0.059 0.103422,-0.088 -0.981112,0.56304 -1.958099,1.13333 -2.943339,1.68912 -0.03646,0.0198 0.07006,-0.0483 0.09443,-0.082 0.02734,-0.0396 0.04664,-0.0828 0.05746,-0.12839 0.05072,-0.21398 -0.02932,-0.42518 -0.09011,-0.62592 -0.336698,-0.75963 -0.921614,-1.3651 -1.509534,-1.93642 -0.78199,-0.71794 -1.686375,-1.27999 -2.592571,-1.8248 -0.584971,-0.36218 -1.233823,-0.6056 -1.825666,-0.95355 -0.244569,-0.14106 -0.356748,-0.37802 -0.416785,-0.64249 -0.06043,-0.27698 0.03923,-0.52694 0.177403,-0.76231 0.752925,-1.12636 2.444906,-1.57737 3.44612,-2.11806 0.04612,-0.0238 0.104453,-0.0119 0.15664,-0.0119 0.05132,-0.004 0.10259,-0.0119 0.153905,-0.0119 0.349339,-0.0317 0.680212,0.10699 0.99214,0.24806 0.408155,0.20803 0.754922,0.51818 1.070503,0.84616 0.31954,0.36812 0.571685,0.78486 0.863999,1.17295 0.17879,0.22825 0.326474,0.47825 0.514882,0.69904 0.325761,0.35267 0.707937,0.64899 1.111198,0.90738 0.486816,0.31186 0.994747,0.51292 1.536654,0.70661 0.504139,0.16325 1.008311,0.33562 1.531106,0.42874 0.111031,0.0317 0.228283,0.0119 0.340542,0.0277 0.08218,0.0119 0.164247,0.0357 0.246748,0.0476 0.167299,0.0198 0.33012,0.0848 0.485095,0.15097 0.119471,0.0357 0.05884,0.0198 0.181881,0.0448 0,0 -2.942519,2.02435 -2.942519,2.02435 v 0 c -0.136114,-0.0424 -0.06816,-0.0198 -0.203992,-0.0654 -0.152281,-0.0424 -0.304126,-0.0777 -0.461094,-0.0967 -0.185765,-0.0404 -0.376205,-0.0578 -0.554861,-0.12878 -0.479678,-0.16524 -0.945999,-0.36614 -1.425298,-0.53253 -0.579729,-0.18822 -1.171385,-0.36614 -1.666423,-0.73648 -0.40565,-0.3063 -0.819198,-0.60512 -1.192316,-0.95141 -0.211877,-0.22467 -0.390549,-0.46829 -0.530296,-0.74515 -0.242112,-0.39349 -0.472384,-0.80052 -0.795185,-1.13535 -0.311021,-0.29046 -0.640701,-0.55944 -1.049002,-0.70086 -0.308842,-0.11769 -0.557345,-0.15969 -0.88552,-0.0836 -0.04533,0.0119 -0.09181,0.0198 -0.136113,0.0317 -0.04569,0.0159 -0.17459,0.0812 -0.132944,0.0571 0.971986,-0.56787 1.954307,-1.11795 2.92487,-1.68824 0.03725,-0.0198 -0.08298,0.0238 -0.122165,0.0412 -0.112814,0.0515 -0.122245,0.0745 -0.212116,0.15889 -0.128862,0.15415 -0.267868,0.28848 -0.258794,0.50238 0.0095,0.19812 0.05468,0.2956 0.220516,0.41761 0.503902,0.39875 1.061897,0.72677 1.599714,1.07611 0.934956,0.55333 1.862526,1.13277 2.670561,1.86486 0.632392,0.60555 1.270993,1.23037 1.712433,1.99415 0.08836,0.20566 0.142414,0.30551 0.193491,0.52096 0.371608,1.56774 -1.873898,1.8599 -3.122241,2.50528 -0.348665,0.0396 -0.703428,0.0119 -1.050571,-0.0317 -0.179741,-0.0396 -0.357779,-0.0812 -0.528177,-0.15256 -0.184971,-0.0773 -0.349774,-0.19298 -0.52757,-0.28451 -0.352667,-0.18981 -0.697104,-0.40137 -1.081174,-0.52326 -0.51653,-0.18505 -1.039246,-0.36178 -1.593786,-0.3804 -0.346525,-0.0119 -0.695756,0.0119 -1.039333,-0.0436 -0.311932,-0.0646 -0.630426,-0.16167 -0.830503,-0.42665 -0.101442,-0.18624 -0.158542,-0.35623 -0.225232,-0.55792 -0.110555,-0.33444 -0.216712,-0.67055 -0.307098,-1.01129 -0.222536,-0.82005 -0.454136,-1.63934 -0.564786,-2.4842 -0.08325,-0.56026 -0.14071,-1.12501 -0.142255,-1.69209 -0.0034,-0.0606 -0.0055,-0.12086 -0.0099,-0.18109 -0.0037,-0.0523 -0.05841,-0.12759 -0.01466,-0.15612 2.043075,-1.34271 2.500679,-2.84943 3.364063,-1.57963 0.240487,0.36099 0.571879,0.63341 0.924063,0.88341 0.258557,0.18862 0.59552,0.43822 0.854845,0.61328 0.87106,0.58805 1.793649,1.09299 2.698569,1.62568 0.699842,0.43101 1.483231,0.86031 1.975883,1.54314 0.05112,0.0709 0.08896,0.15057 0.133419,0.22547 0.111823,0.30313 0.186557,0.58265 -0.02338,0.86134 -0.07889,0.0907 -0.156878,0.18188 -0.232245,0.27539 -0.02655,0.0317 -0.04276,0.0781 -0.07913,0.0999 -2.862646,1.72747 -2.034064,1.36339 -3.250159,1.88962 -0.158146,0.065 -0.325366,0.0931 -0.483384,0.15613 -0.249324,0.12165 -0.495224,0.24964 -0.744817,0.37049 -1.157362,0.59066 -0.196582,0.10461 2.59731,-1.51698 0.05738,-0.0317 -0.117807,0.0614 -0.173996,0.0967 -0.0506,0.0317 -0.09427,0.0741 -0.145901,0.10421 -3.012486,1.75399 -2.081235,1.29837 -3.299557,1.8895 -0.214493,0.0935 -0.423573,0.19655 -0.623932,0.3178 0.971737,-0.56149 3.887885,-2.24447 2.91521,-1.68456 -1.053044,0.60615 -2.102574,1.21845 -3.156339,1.82337 -0.07549,0.0432 -0.180217,0.0872 -0.264223,0.10976 -0.121214,0.0317 -0.165516,0.0317 -0.288196,0.0408 -0.252573,0.0238 -0.504861,0.0198 -0.758254,0.0198 -0.191035,0.002 -0.382228,0.008 -0.572783,-0.0119 -0.253643,-0.0198 -0.506497,-0.0507 -0.752853,-0.11769 -0.317757,-0.0804 -0.490164,-0.18822 -0.643942,-0.48418 -0.113012,-0.22983 -0.166586,-0.483 -0.265254,-0.7196 -0.11848,-0.31423 -0.201535,-0.63555 -0.222695,-0.97245 -0.021,-0.40101 -0.02179,-0.80206 -0.0214,-1.20355 -7.88e-4,-0.0559 3.13e-4,-0.11174 -0.0024,-0.16761 -0.0026,-0.0555 -0.06047,-0.13631 -0.01387,-0.16603 2.024068,-1.29643 2.619936,-2.85031 3.414436,-1.4692 0.19781,0.36495 0.431125,0.6751 0.373827,1.109 -0.06665,0.46144 -0.191114,0.70862 -0.533035,1.03946 -0.260418,0.25281 -0.535194,0.49242 -0.791927,0.74904 -0.290772,0.29045 -0.377513,0.40002 -0.638855,0.72257 -0.101322,0.12522 -0.19995,0.25202 -0.299965,0.37842 -0.369151,0.51042 -0.750186,1.01042 -1.139451,1.50546 -0.957543,1.0809 -1.43608,1.00454 -3.441322,2.10851 -0.09585,0.0523 -0.298578,-0.0119 -0.396176,-0.0408 -0.281935,-0.15573 -0.353816,-0.35743 -0.406498,-0.66607 -0.01942,-0.16286 -0.03923,-0.31304 -0.04993,-0.47784 -0.03487,-0.54042 -0.0029,-1.08317 -0.03289,-1.62386 0.01268,-0.7551 0.01942,-1.51769 0.182872,-2.25857 0.379612,-1.37715 0.03966,-0.33008 3.171586,-2.13491 0.04612,-0.0277 0.105008,0.0198 0.154223,0.0412 0.119708,0.0491 0.210887,0.14583 0.316924,0.21636 0.264699,0.18307 0.546301,0.33959 0.809752,0.52464 0.09998,0.0816 0.162504,0.12324 0.241478,0.22547 0.138966,0.1803 0.178235,0.41171 0.208509,0.6306 0.06241,0.77484 0.03011,1.55075 0.0317,2.32733 -0.0044,0.70073 0.03012,1.42057 -0.155015,2.10272 -0.0052,0.0119 -0.139323,0.37486 -0.166149,0.39111 -0.274328,0.16563 -2.343437,2.34266 -3.541832,1.68325 -0.06958,-0.0396 -0.133181,-0.0868 -0.199752,-0.12997 -0.270523,-0.22468 -0.523932,-0.46699 -0.790109,-0.69697 -0.373233,-0.32256 -0.763164,-0.62537 -1.126561,-0.95926 -0.741461,-0.70014 -1.440617,-1.44245 -2.074376,-2.24257 -0.40888,-0.48085 -0.809819,-0.97577 -1.292937,-1.3855 0,0 3.082037,-1.85043 3.082037,-1.85043 z"
           id="path4989"
           style="fill:#217844;fill-opacity:1;stroke-width:3.96255136" />
        <path
           inkscape:connector-curvature="0"
           d="m 87.830925,538.56837 c 0.516578,0.52777 1.087356,0.99551 1.67339,1.443 0.399762,0.26906 0.772994,0.59276 1.211677,0.80052 0.160007,0.0761 0.219565,0.0856 0.383297,0.13155 0.13445,0.0317 0.255268,0.0523 0.374144,-0.0317 0.02932,-0.0198 0.110238,-0.0892 0.07913,-0.0717 -3.190495,1.78414 -4.04502,2.12496 -2.907882,1.66598 0.02298,-0.0238 0.05219,-0.044 0.06887,-0.0729 0.128822,-0.22428 0.09443,-0.5498 0.04454,-0.78985 -0.102749,-0.28015 -0.239893,-0.54473 -0.343553,-0.82477 -0.08579,-0.25994 -0.171103,-0.51402 -0.305077,-0.75348 -0.202922,-0.27064 -0.380405,-0.55844 -0.568951,-0.83903 -0.07097,-0.1161 -0.152202,-0.23101 -0.191827,-0.36297 -0.355362,-1.1852 2.570745,-1.82451 3.130233,-2.15313 0.326197,-0.004 0.655347,7.6e-4 0.977708,0.0535 0.308366,0.0793 0.615313,0.1589 0.932174,0.19495 0.291842,0.0238 0.585028,0.0198 0.877662,0.0277 0.41325,7.9e-4 0.826549,0.0277 1.238761,-0.0119 0.365149,-0.0467 0.701589,-0.2009 1.042939,-0.32849 1.271456,-0.52968 3.493493,-1.90777 -1.762709,1.10773 0.272346,-0.16365 0.462905,-0.32374 0.591038,-0.61816 0.06867,-0.22349 0.114914,-0.28689 -0.03685,-0.47467 -0.301867,-0.29838 -0.681357,-0.4874 -1.065265,-0.65668 -0.335152,-0.14423 -0.661159,-0.30868 -0.993039,-0.45993 -0.285581,-0.13354 -0.574724,-0.25875 -0.846706,-0.41892 -0.0317,-0.0198 -0.06023,-0.0452 -0.09463,-0.0606 -0.01308,-0.004 -0.02893,9.5e-4 -0.04323,10e-4 1.025092,-0.64118 2.028889,-1.31775 3.07528,-1.92354 0.03606,-0.0198 0.04926,0.067 0.07279,0.10104 0.104374,0.15098 0.13342,0.20249 0.239061,0.3705 0.458836,0.74338 0.915453,1.48889 1.42256,2.20056 0.223052,0.25519 0.456486,0.72511 0.805484,0.82921 0.18834,-0.0119 0.390351,0.0277 0.57606,-0.0198 0.06023,-0.0119 0.116697,-0.0408 0.175025,-0.0614 0.07434,-0.0317 0.150379,-0.0634 0.223053,-0.0999 0.0913,-0.0464 0.357461,-0.20051 0.268343,-0.14978 -0.860951,0.48798 -1.709571,0.99856 -2.583781,1.46237 -0.143444,0.0761 0.262242,-0.19218 0.386586,-0.29639 0.346803,-0.29125 0.504505,-0.4704 0.824409,-0.79858 0.591288,-0.63955 1.125492,-1.33831 1.478167,-2.14017 0.241438,-0.54893 0.235573,-0.62707 0.36919,-1.18397 0.04604,-0.41155 0.177364,-1.05483 -0.06257,-1.44082 -0.02179,-0.0357 -0.05262,-0.0634 -0.07897,-0.0955 -0.217702,-0.19337 -0.488773,-0.31542 -0.749477,-0.43989 -0.432603,-0.23022 -0.910479,-0.32453 -1.383509,-0.42874 -0.03646,-0.008 -0.225627,-0.061 -0.282966,-0.0198 -0.02496,0.0198 -0.05171,0.10541 -0.02496,0.0896 1.017053,-0.59621 1.987576,-1.27131 3.017935,-1.84425 0.0447,-0.0238 0.01149,0.10223 0.02734,0.15097 0.03091,0.0967 0.0739,0.18901 0.110832,0.28372 0.316529,0.75756 0.788793,1.43119 1.203579,2.1349 0.0884,0.14939 0.17126,0.30314 0.25689,0.45455 0.20621,0.38872 0.42659,0.77004 0.61886,1.16602 0.11373,0.23418 0.21505,0.47475 0.32469,0.71092 0.0376,0.082 0.0955,0.19852 0.12157,0.28728 0.39909,1.35813 -3.015455,2.04737 -3.15313,2.11878 -0.05595,0.0277 -0.119709,-0.0396 -0.179583,-0.0594 -0.287761,-0.1161 -0.552122,-0.28015 -0.827381,-0.42126 -0.342325,-0.17554 -0.693177,-0.33602 -1.038256,-0.50605 -0.297072,-0.16168 -0.637772,-0.34594 -0.695772,-0.71632 -0.03566,-0.22745 0.02655,-0.29322 0.109881,-0.5076 0.366418,-0.59256 0.849334,-1.09949 1.287857,-1.63752 0.140433,-0.17237 0.261885,-0.3602 0.410212,-0.52611 0.882238,-0.98644 2.161742,-1.60717 3.421862,-2.00057 0.0673,-0.0277 0.18799,-0.0674 0.25103,-0.10699 0.0349,-0.0198 0.13096,-0.0979 0.0954,-0.0777 -6.295936,3.60192 -3.631453,2.30498 -2.777325,1.5826 0.177324,-0.21833 0.186002,-0.52642 0.211758,-0.79603 0.02972,-0.26708 0.03982,-0.53717 0.108733,-0.7979 0.415469,-1.27186 1.734024,-1.20287 3.239564,-2.03002 0.0433,-0.0238 0.0987,0.002 0.14804,0.002 0.67526,0.0119 -0.40174,-0.008 0.37771,0.004 0.54771,-0.004 0.78156,0.15136 1.16704,0.51544 0.12878,0.10065 0.33083,0.40886 0.52215,0.38041 0.0768,-0.0119 0.15038,-0.0812 0.20645,-0.12363 1.04448,-0.71992 0.0147,-0.004 -2.70453,1.52724 -0.0603,0.0357 0.11702,-0.0741 0.17099,-0.11729 0.17051,-0.13671 0.2872,-0.30194 0.40394,-0.48347 0.1925,-0.36931 0.23039,-0.79683 0.0663,-1.18643 -0.0301,-0.0717 -0.0762,-0.13512 -0.11428,-0.20288 -0.10632,-0.12284 -0.22266,-0.30432 -0.3969,-0.34316 -0.15315,-0.0357 -0.3401,0.0678 -0.47341,0.12284 -1.07739,0.56728 -2.497504,1.41832 2.53759,-1.4598 0.0376,-0.0198 -0.0769,0.0408 -0.11305,0.065 -0.0741,0.0495 -0.0887,0.0717 -0.1465,0.13393 -0.0449,0.0198 -0.0357,0.08 -0.0686,0.10659 -0.0159,0.0119 -0.0246,-0.0357 -0.0202,-0.0574 0.0119,-0.0571 0.0514,-0.10541 0.0787,-0.15732 -0.96468,0.54216 -1.92936,1.08431 -2.89405,1.62643 0.0764,-0.0634 0.15973,-0.11967 0.2292,-0.1906 0.0953,-0.0975 0.18354,-0.20248 0.26307,-0.31344 0.19742,-0.275 0.38092,-0.62231 0.5116,-0.93123 0.08,-0.18902 0.14119,-0.38556 0.21176,-0.57826 0.18117,-0.53633 0.24881,-1.09814 0.3495,-1.65215 0.0388,-0.21437 0.085,-0.48105 0.16151,-0.69039 0.0301,-0.0824 0.0745,-0.1589 0.11178,-0.23855 0.86649,-1.13907 0.20665,-0.31938 3.29079,-2.02522 0.0824,-0.0456 0.31407,0.0159 0.38774,0.0404 0.15299,0.0511 0.22309,0.10223 0.36107,0.18347 0.2685,0.20328 0.48121,0.46603 0.6915,0.72617 0.17867,0.23459 0.30535,0.49683 0.42899,0.76244 0.0911,0.212 0.26034,0.38872 0.33979,0.60663 0.0155,0.0424 0.0234,0.0872 0.0353,0.13076 0.0357,0.38516 -0.16686,0.7322 -0.33591,1.06394 -0.17276,0.35822 -0.38516,0.69286 -0.60375,1.02413 -0.47493,0.91665 2.04532,-0.64939 -3.28508,1.47652 -0.0649,0.0277 0.0808,-0.11452 0.11682,-0.17395 0.17463,-0.29046 0.23866,-0.44036 0.39836,-0.76355 0.68524,-1.49313 1.30315,-3.01736 1.87033,-4.55899 0.3241,-0.92835 0.61067,-1.87786 0.74359,-2.85486 0.0433,-0.31859 0.0412,-0.42887 0.0527,-0.73034 0.003,-0.27104 0.0182,-0.54778 0.14448,-0.7939 0.0541,-0.1058 0.12454,-0.1898 0.19579,-0.28332 0.80409,-1.04643 0.42389,-0.58035 3.21866,-1.91558 0.0861,-0.0412 0.13437,0.13909 0.17938,0.22349 0.11543,0.21596 0.11781,0.65469 0.13806,0.89185 0.0743,0.65327 0.15672,1.31093 0.32679,1.94736 0.0143,0.0317 0.0285,0.0634 0.0427,0.0951 0.006,-0.008 0.0242,-0.0198 0.017,-0.0198 -1.0626,0.53819 -2.10793,1.1113 -3.18376,1.62262 -0.0399,0.0198 0.0293,-0.0836 0.0373,-0.12719 0.0262,-0.13949 0.0442,-0.40652 0.0549,-0.53344 0.0566,-0.90893 0.0537,-1.82036 0.0565,-2.73068 0.0131,-0.76964 -0.0139,-1.53838 -0.0741,-2.30545 -0.0139,-0.26549 -0.021,-0.53225 0.0254,-0.79497 0.0234,-0.0895 0.0592,-0.33285 0.14733,-0.38555 3.0781,-1.84152 1.9419,-1.71285 3.26892,-1.84298 0.21489,-0.004 0.43284,-0.0317 0.64696,0.002 0.17546,0.0277 0.2347,0.0547 0.40314,0.11135 0.32335,0.15573 0.58521,0.38912 0.71594,0.72891 0.0246,0.0634 0.0399,0.13037 0.0597,0.19535 0.0915,0.40506 0.0833,0.82279 0.0897,1.23549 0.005,0.2326 0.0194,0.46516 0.0226,0.69792 0,0 -3.19556,1.59192 -3.19556,1.59192 v 0 c 0.05,-0.22785 0.0309,-0.46604 0.0496,-0.69757 0.004,-0.3812 0.008,-0.76588 -0.0571,-1.1426 -0.0932,-0.35624 -0.21259,-0.50356 -0.57448,-0.61959 -0.32529,-0.0543 -0.66534,-0.0444 -0.97483,0.0804 -1.04165,0.6417 -1.02873,0.63278 2.86609,-1.67948 0.0234,-0.0119 -0.052,0.0159 -0.0772,0.0277 -0.0538,0.0198 -0.0844,0.0396 -0.12351,0.0816 -0.0162,0.0198 -0.0277,0.0404 -0.0416,0.0606 -0.0242,0.0915 -0.0606,0.18228 -0.0815,0.2746 -0.0372,0.16326 -0.0455,0.33325 -0.0711,0.49818 -0.0573,0.79203 -0.0869,1.58549 -0.0724,2.37986 0.004,0.89142 0.003,1.78387 0.059,2.67385 0.0115,0.14067 0.0258,0.34911 0.0466,0.49536 0.007,0.0476 0.0683,0.11729 0.0269,0.14147 -2.14426,1.26698 -3.23922,2.95408 -3.20846,1.51995 -0.0182,-0.66923 -0.11638,-1.33197 -0.24996,-1.98738 -0.0702,-0.34395 -0.0388,-0.24409 -0.13437,-0.53748 -0.007,-0.0198 -0.0373,-0.0864 -0.0246,-0.0666 0.0198,0.0317 0.0139,0.11809 0.046,0.0999 1.89806,-1.03569 3.96798,-2.40555 2.84786,-1.66586 -0.18014,0.18743 -0.0448,0.0436 -0.21667,0.2334 -0.0341,0.0357 -0.0732,0.0705 -0.10267,0.11174 -0.12423,0.17356 -0.1614,0.39269 -0.20859,0.59494 -0.25198,1.30253 -0.69575,2.55775 -1.107,3.81625 -0.5332,1.48231 -1.10394,2.95139 -1.59937,4.44709 -0.13988,0.44076 -0.10794,0.32771 -0.21557,0.70443 -0.0147,0.0507 0.005,0.12918 -0.0427,0.15335 -0.66005,0.33325 -4.11822,2.57811 -3.23465,1.41316 0.2297,-0.33008 0.4958,-0.63936 0.66591,-1.00704 0.14111,-0.2647 0.27881,-0.53491 0.35695,-0.82592 0.0178,-0.21001 -0.20082,-0.46615 -0.28463,-0.65508 -0.13263,-0.23261 -0.2376,-0.48256 -0.40637,-0.6923 -0.17765,-0.21834 -0.32652,-0.47468 -0.5839,-0.60861 -0.14816,-0.0511 -0.26973,-0.0895 -0.42421,-0.0317 -0.0454,0.0198 -0.17004,0.0935 -0.12835,0.0682 2.60317,-1.54873 3.79511,-2.22236 2.62972,-1.56216 -0.0598,0.0626 -0.12989,0.1165 -0.1795,0.18743 -0.13489,0.19297 -0.22967,0.47321 -0.29561,0.69047 -0.17055,0.56193 -0.2559,1.14383 -0.40048,1.71218 -0.0559,0.19654 -0.10501,0.39507 -0.16769,0.58955 -0.10394,0.32215 -0.23253,0.64173 -0.38172,0.94602 -0.002,0.004 -0.26656,0.51339 -0.32754,0.55135 -1.04388,0.6495 -2.12582,1.2358 -3.18874,1.85372 -0.0577,-0.0119 -0.11852,-0.0119 -0.17297,-0.0317 -0.0513,-0.0198 -0.0974,-0.0543 -0.13762,-0.0919 -0.15132,-0.14226 -0.18639,-0.30908 -0.12057,-0.49936 0.0422,-0.10382 0.12822,-0.31225 0.22764,-0.37169 1.0127,-0.60334 2.2443,-1.60424 3.53901,-1.93824 0.18521,-0.0198 0.26395,-0.044 0.44693,0.0119 0.30655,0.0919 0.4879,0.35148 0.64484,0.61111 0.0443,0.0872 0.0947,0.17118 0.13279,0.26074 0.19067,0.44943 0.23347,0.94855 0.09,1.41653 -0.0309,0.0737 -0.0561,0.14978 -0.0921,0.2215 -0.0605,0.12007 -0.28479,0.47076 -0.39848,0.53923 -2.99414,1.80344 -2.0177,1.49737 -3.3684,1.89846 -0.063,-0.002 -0.12712,0.008 -0.1891,-0.004 -0.30971,-0.0575 -0.47736,-0.36653 -0.69907,-0.55551 -0.12672,-0.0991 -0.17098,-0.14542 -0.31557,-0.21199 -0.21969,-0.10144 -0.46886,-0.088 -0.703856,-0.0761 -0.121611,0.0159 -0.263549,0.0277 -0.381594,0.0689 -0.04315,0.0159 -0.161712,0.0864 -0.122205,0.063 0.984695,-0.5796 1.979305,-1.14244 2.958025,-1.73211 0.0266,-0.0159 -0.0636,-0.004 -0.0926,0.008 -0.0254,0.0119 -0.0416,0.0357 -0.0623,0.0523 -0.14613,0.21794 -0.15664,0.46441 -0.19749,0.7179 -0.0293,0.31343 -0.0329,0.6327 -0.102,0.93971 -0.0206,0.0495 -0.0703,0.19496 -0.12386,0.22746 -1.4954,0.91471 -2.202771,1.50022 -3.490505,1.99546 -1.107494,0.60995 0.02932,-0.0159 2.753585,-1.61716 0.0504,-0.0277 -0.10572,0.0507 -0.15422,0.0836 -0.20186,0.13592 -0.33365,0.33999 -0.49394,0.51798 -0.415615,0.5256 -0.89575,0.99674 -1.28404,1.54393 -0.04244,0.0737 -0.198405,0.28174 -0.169042,0.38596 0.05559,0.19693 0.304641,0.30155 0.446298,0.41242 0.329486,0.18822 0.659124,0.35742 1.010924,0.50118 0.19472,0.0793 0.43839,0.17673 0.64998,0.21636 0.0721,0.0119 0.14634,0.0119 0.21949,0.0159 1.24543,-0.3919 -0.20954,0.0547 -2.815402,1.69886 -0.03527,0.0198 0.07323,0.0491 0.114875,0.0491 0.103739,-9.1e-4 -0.01427,-0.3075 -0.01744,-0.33167 -0.07327,-0.24924 -0.136272,-0.50229 -0.219882,-0.74809 -0.139363,-0.40969 -0.318391,-0.80475 -0.524027,-1.18532 -0.07985,-0.14938 -0.15553,-0.30036 -0.239536,-0.44717 -0.18624,-0.32493 -0.364317,-0.588 -0.568674,-0.902 -0.180891,-0.27817 -0.358175,-0.5584 -0.54054,-0.8355 -0.07545,-0.11491 -0.153628,-0.22745 -0.230422,-0.34118 -0.06055,-0.0876 -0.121452,-0.17514 -0.181643,-0.2635 -0.0485,-0.0709 -0.211957,-0.16049 -0.144396,-0.21359 3.760771,-2.95198 1.845876,-2.33481 3.346624,-1.88249 0.47643,0.13988 0.944743,0.30393 1.407803,0.48304 0.33222,0.1371 0.66203,0.28847 0.88023,0.58745 0.0349,0.0575 0.0765,0.11135 0.10453,0.17276 0.24219,0.52857 0.0123,1.22134 -0.0837,1.75411 -0.12304,0.45165 -0.21124,0.82124 -0.38413,1.26056 -0.32124,0.81637 -0.81647,1.54449 -1.386854,2.206 -0.287523,0.32611 -0.434014,0.50376 -0.737629,0.80586 -0.106553,0.1062 -0.201456,0.22904 -0.32901,0.30829 -1.062008,0.66194 -2.148377,1.28414 -3.23156,1.91082 -0.102274,0.0594 -0.212868,0.10302 -0.323146,0.14582 -0.09169,0.0357 -0.187786,0.0582 -0.281658,0.0872 -0.322948,0.0432 -0.671871,0.0741 -0.961668,-0.10462 -0.335073,-0.28015 -0.501382,-0.69978 -0.723241,-1.066 -0.224677,-0.39229 -0.446746,-0.78898 -0.709372,-1.15798 -0.239338,-0.33642 -0.50893,-0.65251 -0.781585,-0.96183 -0.08274,-0.0828 -0.193729,-0.20328 -0.295092,-0.27539 -0.02417,-0.0198 -0.103422,-0.0238 -0.07901,-0.0408 7.053869,-4.88063 1.999753,-2.67167 3.089704,-1.88875 0.255862,0.1478 0.51497,0.29165 0.784693,0.41294 0.335905,0.14542 0.668038,0.29719 0.983608,0.48355 0.412834,0.22705 0.849868,0.4299 1.20244,0.74793 0.126683,0.15414 0.244529,0.3281 0.24659,0.5376 4.47e-4,0.046 -0.03883,0.22071 -0.04723,0.25955 -0.09803,0.35504 -0.221586,0.63555 -0.53666,0.8521 -1.400679,0.81328 -2.743211,1.73861 -4.259295,2.32016 -0.358175,0.13472 -0.722845,0.24845 -1.110525,0.24013 -0.423751,-0.002 -0.847289,0.008 -1.271,0.0119 -0.309396,-0.001 -0.62096,-0.004 -0.926413,-0.0594 -0.303135,-0.0638 -0.598492,-0.16881 -0.90996,-0.18783 -0.300441,-0.0159 -0.618396,-0.0472 -0.888281,0.11333 0.981175,-0.58606 1.976318,-1.14938 2.943529,-1.75822 0.0071,-0.004 -0.129179,-0.0626 -0.148912,-0.0159 -0.02655,0.0634 0.09249,0.24686 0.111862,0.29957 0.172887,0.29679 0.379296,0.57112 0.571931,0.85523 0.145783,0.25321 0.296597,0.50202 0.35453,0.79228 0.106434,0.29164 0.216395,0.58206 0.325563,0.87287 0.05175,0.16761 0.08056,0.23141 0.09879,0.40529 0.02457,0.23537 -0.01308,0.47689 -0.021,0.71207 -0.374025,1.2902 -0.02259,0.1906 -3.183046,1.94763 -0.03883,0.0198 -0.239972,-0.0198 -0.266165,-0.0277 -0.102075,-0.0277 -0.193491,-0.069 -0.290257,-0.10936 -0.155847,-0.0793 -0.232839,-0.11294 -0.38191,-0.21596 -0.389797,-0.26985 -0.706682,-0.6333 -1.092091,-0.90925 -0.60272,-0.47004 -1.226612,-0.92954 -1.908123,-1.27935 0,0 3.030016,-1.92631 3.030016,-1.92631 z"
           id="path4991"
           style="fill:#217844;fill-opacity:1;stroke-width:3.96255136" />
        <text
           id="text4995"
           y="604.52271"
           x="-16.97168"
           style="font-style:normal;font-weight:normal;line-height:0%;font-family:sans-serif;letter-spacing:0px;word-spacing:0px;fill:#000000;fill-opacity:1;stroke:none;stroke-width:1px;stroke-linecap:butt;stroke-linejoin:miter;stroke-opacity:1"
           xml:space="preserve"><tspan
             style="font-style:normal;font-variant:normal;font-weight:normal;font-stretch:normal;font-size:26.63047028px;line-height:125%;font-family:'DejaVu Sans';-inkscape-font-specification:'DejaVu Sans, Normal';text-align:start;writing-mode:lr-tb;text-anchor:start"
             y="607.97064"
             x="-16.97168"
             id="tspan4997"
             sodipodi:role="line" /></text>
        <text
           id="text4999"
           y="659.71228"
           x="129.66641"
           style="font-style:normal;font-weight:normal;line-height:0%;font-family:sans-serif;letter-spacing:0px;word-spacing:0px;fill:#000000;fill-opacity:1;stroke:none;stroke-width:1px;stroke-linecap:butt;stroke-linejoin:miter;stroke-opacity:1"
           xml:space="preserve"><tspan
             style="font-size:40px;line-height:1.25"
             y="659.71228"
             x="129.66641"
             id="tspan5001"
             sodipodi:role="line"></tspan></text>
      </g>
    </g>
  </g>
</svg>
