<?xml version="1.0" encoding="UTF-8" standalone="no"?>
<!-- Created with Inkscape (http://www.inkscape.org/) -->

<svg
   xmlns:dc="http://purl.org/dc/elements/1.1/"
   xmlns:cc="http://creativecommons.org/ns#"
   xmlns:rdf="http://www.w3.org/1999/02/22-rdf-syntax-ns#"
   xmlns:svg="http://www.w3.org/2000/svg"
   xmlns="http://www.w3.org/2000/svg"
   xmlns:sodipodi="http://sodipodi.sourceforge.net/DTD/sodipodi-0.dtd"
   xmlns:inkscape="http://www.inkscape.org/namespaces/inkscape"
   width="185"
   height="40"
   viewBox="0 0 185 40"
   id="svg2"
   version="1.1"
   inkscape:version="0.91 r13725"
   sodipodi:docname="logo_soundup_blanc.svg">
  <defs
     id="defs4" />
  <sodipodi:namedview
     id="base"
     pagecolor="#ffffff"
     bordercolor="#666666"
     borderopacity="1.0"
     inkscape:pageopacity="0.0"
     inkscape:pageshadow="2"
     inkscape:zoom="2.8"
     inkscape:cx="97.055398"
     inkscape:cy="-66.932134"
     inkscape:document-units="px"
     inkscape:current-layer="g4767"
     showgrid="false"
     units="px"
     width="234px"
     inkscape:window-width="1920"
     inkscape:window-height="1021"
     inkscape:window-x="0"
     inkscape:window-y="0"
     inkscape:window-maximized="1"
     showguides="true"
     inkscape:guide-bbox="true">
    <sodipodi:guide
       position="241.42646,-26.011428"
       orientation="1,0"
       id="guide5022" />
  </sodipodi:namedview>
  <metadata
     id="metadata7">
    <rdf:RDF>
      <cc:Work
         rdf:about="">
        <dc:format>image/svg+xml</dc:format>
        <dc:type
           rdf:resource="http://purl.org/dc/dcmitype/StillImage" />
        <dc:title></dc:title>
      </cc:Work>
    </rdf:RDF>
  </metadata>
  <g
     inkscape:label="Capa 1"
     inkscape:groupmode="layer"
     id="layer1"
     transform="translate(0,-1012.3622)">
    <g
       id="g4767"
       transform="translate(79.182628,437.39239)">
      <path
         id="path4757"
         d="m -49.11932,581.47746 c -1.406514,-0.78897 -3.133451,-0.33682 -4.455199,0.41566 -5.085095,2.89256 -10.168763,5.83531 -15.251838,8.68878 l -5.272115,0 c -1.969838,0 -3.566821,1.58925 -3.566821,3.55908 l 0,6.65806 c 0,1.96984 1.596983,3.57456 3.566821,3.57456 l 5.436665,0 c 4.987245,2.85345 9.975918,5.78882 14.963401,8.6865 0.954125,0.5304 2.040102,0.91656 3.146653,0.81991 0.84034,-0.0662 1.649531,-0.47571 2.183842,-1.13033 0.781729,-0.94462 1.033782,-2.20858 1.044604,-3.40655 0.0289,-7.97375 0.07062,-15.94893 0.09488,-23.92266 -0.01211,-1.48927 -0.519209,-3.16378 -1.890889,-3.94301 z"
         inkscape:connector-curvature="0"
         style="fill:#cccccc" />
      <g
         id="g4881"
         transform="matrix(-0.02725476,0,0,0.03413568,-20.526902,573.07352)"
         style="fill:#217844">
        <g
           id="g4883"
           style="fill:#217844">
          <g
             id="g4885"
             style="fill:#217844">
            <g
               id="g4887"
               style="fill:#217844">
              <path
                 id="path4889"
                 d="m 830.2,929.5 c -192.9,0 -518,-56.8 -551.9,-433.4 l -268.3,0 425.6,-425.6 425.6,425.6 -279.4,0 c -5.6,42.1 -13.8,164 61.6,257.7 66.7,82.8 177.88945,124.2828 338.68945,124.2828 l 0.685,40.1688 C 980.17445,918.5516 921.7,929.5 830.2,929.5 Z m -727.5,-471.9 211.5,0 1.2,18 C 335.8,797.1 574,880.8 787.1,890.2 713.3,867.3 655.2,829.6 613.4,777.5 509.7,648.4 545.3,479.8 546.9,472.7 l 3.3,-15.1 218.3,0 -332.9,-332.8 z"
                 inkscape:connector-curvature="0"
                 style="fill:#217844"
                 sodipodi:nodetypes="sccccccccscccccccccc" />
            </g>
          </g>
        </g>
        <g
           id="g4891"
           style="fill:#217844" />
        <g
           id="g4893"
           style="fill:#217844" />
        <g
           id="g4895"
           style="fill:#217844" />
        <g
           id="g4897"
           style="fill:#217844" />
        <g
           id="g4899"
           style="fill:#217844" />
        <g
           id="g4901"
           style="fill:#217844" />
        <g
           id="g4903"
           style="fill:#217844" />
        <g
           id="g4905"
           style="fill:#217844" />
        <g
           id="g4907"
           style="fill:#217844" />
        <g
           id="g4909"
           style="fill:#217844" />
        <g
           id="g4911"
           style="fill:#217844" />
        <g
           id="g4913"
           style="fill:#217844" />
        <g
           id="g4915"
           style="fill:#217844" />
        <g
           id="g4917"
           style="fill:#217844" />
        <g
           id="g4919"
           style="fill:#217844" />
      </g>
      <path
         style="fill:#217844;fill-opacity:1"
         d="m -41.222161,603.13975 c 0.310728,-0.15188 0.731914,-0.3786 0.935968,-0.50382 2.501519,-1.5351 4.155566,-4.16386 4.785329,-7.60528 0.205975,-1.12557 0.243461,-1.61065 0.244222,-3.16024 7.33e-4,-1.48213 -0.02338,-1.84485 -0.186595,-2.80715 l -0.05989,-0.3531 -2.966207,-0.0176 -2.966207,-0.0176 4.507698,-5.6439 c 2.479233,-3.10415 4.518059,-5.64302 4.530724,-5.64194 0.02418,0.002 9.024164,11.25905 9.024164,11.28723 0,0.009 -1.286329,0.0163 -2.85851,0.0163 l -2.85851,0 -0.01757,0.11476 c -0.0097,0.0631 -0.02695,0.31337 -0.0384,0.55613 -0.131692,2.79114 -0.764185,5.49478 -1.73854,7.43154 -1.794803,3.5676 -4.8637,5.73799 -9.087021,6.42655 -0.615062,0.10028 -1.418962,0.19465 -1.65672,0.19451 -0.153773,-1.1e-4 -0.14068,-0.009 0.406064,-0.27625 z"
         id="path4949"
         inkscape:connector-curvature="0" />
      <path
         style="fill:#217844;fill-opacity:1"
         id="path4957"
         d="m -35.006135,589.09822 c -0.01172,0.28452 -0.01947,0.56995 -3.3e-5,0.85437 0.0066,0.0969 0.01754,0.19335 0.0263,0.29003 0.07896,0.70285 0.205412,1.39918 0.33571,2.09397 0.06496,0.30327 0.102232,0.61252 0.183518,0.91212 0,0 -0.453007,0.24478 -0.453007,0.24478 l 0,0 c -0.06871,-0.3089 -0.08891,-0.62554 -0.144404,-0.9369 -0.113377,-0.69818 -0.246739,-1.39317 -0.342309,-2.09417 -0.01142,-0.0961 -0.02488,-0.19208 -0.03423,-0.28844 -0.02709,-0.27894 -0.0246,-0.55895 -0.03704,-0.83858 0,0 0.465495,-0.23718 0.465495,-0.23718 z"
         inkscape:connector-curvature="0" />
      <path
         style="fill:#217844;fill-opacity:1"
         id="path4959"
         d="m -35.336029,592.64926 c -0.04974,-0.2702 -0.0635,-0.54443 -0.0727,-0.8184 -0.0111,-0.4734 -0.01035,-0.94698 -0.0094,-1.42048 -0.0064,-0.44324 -3.6e-4,-0.88835 -0.06717,-1.32759 -0.03686,-0.24323 -0.148683,-0.46507 -0.257855,-0.68271 -0.01906,-0.0306 -0.05112,-0.0943 -0.08795,-0.11588 -0.01013,-0.006 -0.02489,-0.009 -0.03507,-0.003 -0.01319,0.008 -0.03937,0.0441 -0.02554,0.0378 0.137693,-0.063 0.260442,-0.15837 0.402646,-0.21046 0.02731,-0.0101 -0.0266,0.0517 -0.0399,0.0776 -0.08526,0.22306 -0.107961,0.46328 -0.09957,0.70024 0.05189,0.36374 0.155253,0.14263 -0.42352,0.46923 0,0 0.431207,-0.30361 0.431207,-0.30361 l 0,0 c -0.147356,0.0888 -0.29548,0.17635 -0.442068,0.26642 -0.0031,0.002 0.01001,0.003 0.0108,-0.002 0.0025,-0.0113 -9.32e-4,-0.0233 -0.0027,-0.0349 -0.03166,-0.1979 0.005,0.0913 -0.02501,-0.16396 -0.0071,-0.24242 0.01072,-0.48622 0.08441,-0.7188 0.101129,-0.25587 0.0242,-0.10708 0.510215,-0.40686 0.01464,-0.009 0.03482,-0.007 0.05152,-0.003 0.06982,0.0172 0.100613,0.10738 0.132873,0.1591 0.106714,0.22484 0.226473,0.45026 0.26004,0.69994 0.05264,0.44577 0.03314,0.89574 0.05048,1.34357 0.0023,0.47085 0.0021,0.9419 0.02055,1.41247 0.01422,0.26746 0.0263,0.53808 0.09358,0.79861 0,0 -0.459877,0.24587 -0.459877,0.24587 z"
         inkscape:connector-curvature="0" />
      <path
         style="fill:#217844;fill-opacity:1"
         id="path4961"
         d="m -36.121783,589.0079 c -0.159921,-0.0176 -0.320547,-0.023 -0.480627,-0.0393 -0.121871,-0.0143 -0.244336,-0.021 -0.366937,-0.0242 -0.136244,-5.7e-4 -0.270893,0.0296 -0.405941,0.0466 -0.162281,0.0199 -0.325898,0.0193 -0.489087,0.0193 -0.254114,-0.002 -0.50823,-8e-5 -0.762346,-1.6e-4 -0.271781,-0.001 -0.543561,-0.002 -0.815342,-0.001 -0.244367,-0.001 -0.48889,0.006 -0.733095,-0.004 -0.192585,-0.0207 -0.38598,-0.0359 -0.578155,-0.0601 -0.161471,-0.0209 -0.324086,-0.0302 -0.486719,-0.0354 -0.128867,-0.0135 -0.257795,-0.0258 -0.387199,-0.0324 -0.05456,-0.003 -0.159242,-0.003 -0.179116,-0.0723 -0.0041,-0.014 -0.0017,-0.029 -0.0026,-0.0437 0.220035,-0.28989 0.548857,-0.31886 0.863379,-0.32785 0.263684,-0.003 0.527392,-0.004 0.791092,-0.005 0.243572,-0.002 0.486773,-3.9e-4 0.730037,0.0119 0.261748,0.0151 0.522903,0.0375 0.784903,0.0489 0.20004,0.008 0.400257,0.009 0.600426,0.008 0.110085,-0.001 0.220158,-0.001 0.330246,-5.6e-4 0.147635,0.0159 0.296857,0.0161 0.444037,0.0355 0.150408,0.024 0.300744,0.046 0.452583,0.0593 0.09797,0.008 0.19628,0.01 0.294538,0.0102 0.102671,0.0181 0.206706,0.0253 0.310677,0.0308 0.07235,0.003 0.144775,0.004 0.217185,0.005 0,0 -0.422888,0.3066 -0.422888,0.3066 l 0,0 c -0.0722,-0.001 -0.144406,-0.003 -0.216467,-0.008 -0.10398,-0.007 -0.207561,-0.0187 -0.311397,-0.027 -0.09757,-0.003 -0.195087,-0.007 -0.292144,-0.0174 -0.151882,-0.0166 -0.302798,-0.0397 -0.454288,-0.0593 -0.146327,-0.0153 -0.293512,-0.025 -0.440506,-0.0304 -0.109741,0.001 -0.219479,0.002 -0.329213,-5.5e-4 -0.19774,-0.003 -0.395472,-0.008 -0.593061,-0.0162 -0.262066,-0.0132 -0.523419,-0.0365 -0.785534,-0.0485 -0.243007,-0.0109 -0.486016,-0.0105 -0.729243,-0.01 -0.264038,-5.6e-4 -0.528219,-0.003 -0.792086,0.008 -0.07499,0.005 -0.120237,0.005 -0.19313,0.0148 -0.02491,0.003 -0.04976,0.007 -0.0744,0.0114 -0.02162,0.004 -0.08256,0.0273 -0.06429,0.015 0.35232,-0.23662 0.550113,-0.25428 0.357881,-0.23223 -0.04069,-0.007 -0.01484,0.009 0.0025,0.0154 0.03945,0.0137 0.08234,0.0112 0.123212,0.0151 0.128058,0.01 0.255611,0.0248 0.383731,0.0334 0.162718,0.007 0.325081,0.0212 0.486851,0.0403 0.189981,0.0211 0.379668,0.0459 0.570272,0.0605 0.243084,0.007 0.486325,0.003 0.729483,0.005 0.272553,5.5e-4 0.545106,2e-5 0.817659,-5.2e-4 0.254785,2.5e-4 0.509592,0.003 0.764355,-0.003 0.16365,-0.003 0.32767,-0.007 0.490238,-0.0277 0.137487,-0.018 0.274619,-0.0497 0.413967,-0.0423 0.122117,0.005 0.243892,0.0145 0.365137,0.0301 0.162492,0.0171 0.325638,0.022 0.488447,0.035 0,0 -0.427061,0.30224 -0.427061,0.30224 z"
         inkscape:connector-curvature="0" />
      <path
         style="fill:#217844;fill-opacity:1"
         id="path4963"
         d="m -41.175662,588.43491 c 0.02077,-0.0102 0.04154,-0.0204 0.06228,-0.0307 0.07524,-0.0372 0.102906,-0.0502 0.177781,-0.0914 0.02969,-0.0164 0.117765,-0.0673 0.08832,-0.0505 -0.380256,0.21717 -0.472792,0.27862 -0.287428,0.15908 0.09269,-0.0634 0.174128,-0.14112 0.244848,-0.22804 0.05559,-0.0678 0.09679,-0.14469 0.151447,-0.21319 0.04886,-0.0603 0.09529,-0.12493 0.118601,-0.19955 2.38e-4,-0.007 0.0025,-0.0136 7.32e-4,-0.0201 -3.96e-4,-0.002 -0.02367,0.0128 -0.05247,0.0261 -0.05435,0.025 -0.02732,0.0103 -0.07942,0.0437 0.717346,-0.41493 0.439535,-0.2961 0.322912,-0.14391 -0.03495,0.0457 -0.06298,0.0962 -0.09076,0.14633 -0.04301,0.088 -0.09544,0.1699 -0.163076,0.24083 -0.07676,0.0737 -0.15996,0.14013 -0.238882,0.21147 -0.09748,0.10068 -0.168589,0.22406 -0.222481,0.35269 -0.04909,-0.0417 0.0061,0.0699 -0.01337,0.0618 -0.0067,-0.003 0.0052,-0.0247 -0.0014,-0.0217 -0.14827,0.0684 -0.288958,0.15224 -0.435938,0.22333 -0.01618,0.008 0.02909,-0.0212 0.0426,-0.033 0.01769,-0.0155 0.03393,-0.0326 0.05088,-0.0489 0.109494,-0.11698 0.186283,-0.25876 0.261675,-0.39885 0.0717,-0.13384 0.153988,-0.26106 0.242176,-0.38446 0.07784,-0.10004 0.132755,-0.21472 0.197458,-0.32311 0.108408,-0.16815 0.251232,-0.3101 0.389615,-0.45324 0.135832,-0.14063 0.264728,-0.28772 0.395104,-0.43336 0,0 0.462221,-0.19437 0.462221,-0.19437 l 0,0 c -0.130092,0.14449 -0.257559,0.29138 -0.390407,0.43335 -0.134773,0.13978 -0.273082,0.27841 -0.383901,0.43861 -0.06742,0.10761 -0.118497,0.22526 -0.195712,0.32641 -0.08799,0.12298 -0.176732,0.24526 -0.247546,0.37943 -0.07519,0.14263 -0.151496,0.28613 -0.253622,0.41178 -0.01573,0.0166 -0.03158,0.0331 -0.04718,0.0499 -0.01208,0.013 -0.02043,0.0306 -0.03585,0.0394 -0.02099,0.0119 -0.445321,0.39572 -0.518158,0.22612 -0.0076,-0.0176 0.0081,-0.0703 0.0106,-0.0813 0.05195,-0.13435 0.125116,-0.26068 0.214453,-0.37364 0.07517,-0.0738 0.157132,-0.13932 0.235859,-0.20919 0.07136,-0.065 0.12974,-0.13903 0.171239,-0.22697 0.165619,-0.32219 0.234483,-0.31271 0.647063,-0.5416 0.07477,-0.0334 0.185224,-0.073 0.196227,0.0491 -0.01127,0.0845 -0.05991,0.156 -0.109773,0.22349 -0.05823,0.0667 -0.101522,0.13988 -0.1521,0.21192 -0.07081,0.0925 -0.150811,0.17685 -0.245192,0.24614 -0.295212,0.19777 -0.609612,0.36769 -0.928346,0.52445 0,0 0.40892,-0.32406 0.40892,-0.32406 z"
         inkscape:connector-curvature="0" />
      <path
         style="fill:#217844;fill-opacity:1"
         id="path4965"
         d="m -32.234612,577.29158 c 0.10343,0.17656 0.231959,0.3379 0.36056,0.49672 0.132205,0.16052 0.277476,0.30941 0.424463,0.45627 0.117994,0.12907 0.265814,0.22218 0.408612,0.32052 0.204802,0.13188 0.3859,0.29335 0.559451,0.4632 0.239799,0.26723 0.467091,0.54584 0.697144,0.8216 0.124084,0.14803 0.249556,0.29476 0.369302,0.44635 0.108209,0.15422 0.218655,0.30696 0.333451,0.45636 0.07125,0.0964 0.157382,0.17997 0.235042,0.27078 0.07385,0.0841 0.135682,0.1774 0.194492,0.27231 0.07607,0.11488 0.146378,0.23327 0.219189,0.35021 0.09136,0.13092 0.172616,0.26837 0.265103,0.39846 0.09159,0.13213 0.193771,0.25639 0.295783,0.38048 0.08789,0.10621 0.183643,0.20536 0.272543,0.31068 0.06642,0.0732 0.123708,0.15374 0.185858,0.23044 0.07915,0.10171 0.142687,0.21534 0.213836,0.32312 0.06503,0.0996 0.14297,0.19024 0.207168,0.29036 0.03634,0.0567 0.07249,0.12544 0.104527,0.18397 0.125789,0.23574 0.268441,0.46093 0.430726,0.67306 0.151147,0.1803 0.291686,0.36902 0.435137,0.55537 0.152097,0.21118 0.299326,0.42521 0.463057,0.62766 0.139875,0.18671 0.304017,0.35167 0.46513,0.51944 0.17225,0.19814 0.321445,0.41449 0.483758,0.62056 0.179627,0.22424 0.352612,0.45364 0.53216,0.67795 0.126008,0.162 0.257976,0.31914 0.389076,0.477 0.12027,0.13805 0.238372,0.27799 0.360723,0.41423 0.13632,0.1461 0.271298,0.2935 0.402419,0.44428 0.10216,0.11731 0.196179,0.24133 0.292073,0.36376 0.05305,0.0557 0.08598,0.14391 0.151956,0.18726 0.0077,0.005 0.01919,0.0109 0.02702,0.006 0.0091,-0.005 0.0076,-0.02 0.01139,-0.03 -0.859824,0.48764 -0.353427,0.34042 -0.407603,0.12593 -0.01058,-0.0419 -0.02486,-0.0572 -0.04809,-0.0926 -0.09787,-0.13217 -0.26116,-0.1716 -0.410385,-0.21921 -0.255746,-0.0661 -0.515448,-0.11554 -0.775894,-0.15897 -0.190454,-0.0344 -0.384157,-0.0362 -0.576224,-0.0536 -0.191708,-0.0147 -0.380253,-0.0537 -0.570884,-0.0776 -0.134862,-0.0168 -0.270726,-0.0207 -0.406446,-0.0231 -0.157591,-0.002 -0.315192,-0.001 -0.472787,-0.002 -0.178884,-3.1e-4 -0.357765,0.001 -0.53665,5.5e-4 -0.196508,-0.007 -0.390759,3.2e-4 -0.584746,0.0324 -0.177269,0.031 -0.356338,0.0479 -0.533207,0.081 -0.104219,0.0136 -0.205665,0.0328 -0.307327,0.0593 -0.09978,0.0309 -0.200248,0.0536 -0.303965,0.0668 -0.08712,0.0124 -0.175498,0.005 -0.262472,0.0166 -0.109065,0.01 -0.216814,0.026 -0.323995,0.0482 -0.110888,0.0219 -0.222918,0.0477 -0.336503,0.0417 -0.01254,-0.006 -0.02801,-0.008 -0.03762,-0.0187 -0.08788,-0.0932 0.04883,-0.25137 0.09948,-0.32449 0.153966,-0.2214 0.408768,-0.47259 0.695297,-0.45493 0.02072,0.001 0.04098,0.007 0.06147,0.01 0.02107,0.006 0.04279,0.0106 0.06322,0.0186 0.04308,0.0171 0.120691,0.0611 0.159184,0.0814 0.08089,0.0427 0.163201,0.0818 0.245837,0.12094 0.141218,0.0739 0.298334,0.10679 0.444181,0.16883 0.126679,0.17329 0.05487,0.0565 -0.448073,0.32238 -0.02162,0.0114 -0.04832,-0.008 -0.07262,-0.0103 -0.03557,-0.004 -0.07125,-0.007 -0.106922,-0.01 -0.131291,-0.0106 -0.166651,-0.0117 -0.302139,-0.0191 -0.26158,-0.013 -0.523465,-0.0173 -0.785331,-0.0179 -0.104716,0.004 -0.210627,-0.007 -0.314706,0.007 -0.13376,0.0409 -0.621684,0.29393 0.317218,-0.1898 0.01475,-0.008 -0.02445,0.0226 -0.03466,0.0358 -0.02361,0.0302 -0.02994,0.0511 -0.04472,0.0857 -0.03878,0.11916 -0.03604,0.15917 0.02326,0.26917 0.104514,0.16318 0.243596,0.2993 0.372473,0.44263 0.09261,0.10136 0.141424,0.20137 0.162132,0.33577 0.01313,0.1097 0.01377,0.22029 0.0129,0.33059 -8.12e-4,0.11513 -0.0032,0.23028 -0.0016,0.3454 0.01447,0.19013 0.01497,0.0904 -0.464368,0.22154 -0.02192,0.006 -7.8e-5,-0.0455 -0.0013,-0.0682 -0.0017,-0.0318 -0.0045,-0.0634 -0.0073,-0.095 -0.01364,-0.15397 -0.0123,-0.12821 -0.03512,-0.2947 -0.06275,-0.42644 -0.09618,-0.856 -0.133743,-1.2851 -0.0044,-0.0443 -0.0081,-0.0886 -0.01315,-0.13271 -0.02652,-0.22972 -0.153123,-0.17067 0.444234,-0.27956 0.03631,-0.007 -0.0052,0.0736 -0.0068,0.11052 -0.0022,0.0525 -0.0031,0.10505 -0.0046,0.15758 -0.01061,0.4226 -0.0061,0.84527 -0.0015,1.26789 5.59e-4,0.30788 6.15e-4,0.61571 0.0061,0.92356 0.0021,0.15143 0.0034,0.30287 0.0047,0.4543 0.0015,0.0982 0.0013,0.19629 6.2e-5,0.29443 -5.56e-4,0.13443 -6.73e-4,0.26885 -0.0017,0.40326 0.0023,0.17458 -0.0226,0.34849 -0.04945,0.52063 -0.02268,0.10678 -0.03104,0.21639 -0.0602,0.32167 -0.03184,0.0998 -0.09661,0.18237 -0.161963,0.26234 -0.193544,0.21405 -0.453975,0.36639 -0.721718,0.4696 -0.178022,0.0816 -0.194662,-0.0375 -0.211367,-0.18996 0.002,-0.0499 0.0018,-0.1 0.0059,-0.14981 0.01084,-0.13235 0.03626,-0.2929 0.05809,-0.42191 0.04823,-0.28499 0.106797,-0.56753 0.168004,-0.84994 0.05341,-0.23752 0.09723,-0.47763 0.162182,-0.71245 0.02502,-0.0905 0.04747,-0.17685 0.108783,-0.24859 0.165123,-0.0646 0.320766,-0.16294 0.49537,-0.19381 0.03439,-0.006 0.01857,0.0675 0.02366,0.10204 0.01271,0.0862 0.01774,0.24973 0.02012,0.33022 0.0049,0.16574 0.005,0.28083 0.0066,0.44835 -0.0038,0.32951 0.01331,0.65961 -0.0055,0.9889 -0.0138,0.24141 -0.02189,0.26091 -0.05642,0.50112 -0.06231,0.36944 -0.152611,0.73264 -0.246695,1.09492 -0.03095,0.1141 -0.05444,0.2314 -0.09741,0.34183 -0.03972,0.0821 -0.08886,0.15931 -0.134152,0.23846 -0.05768,0.1106 -0.105684,0.22559 -0.163692,0.33621 -0.117652,0.21102 -0.144907,0.2021 -0.513978,0.35715 -0.02142,0.009 -0.02443,-0.0407 -0.02854,-0.0636 -0.0043,-0.0236 0.002,-0.048 0.0042,-0.0719 0.0035,-0.0385 0.0085,-0.077 0.0128,-0.11546 0.07504,-0.5506 0.133989,-1.10311 0.206419,-1.65409 0.04881,-0.37667 0.112719,-0.75115 0.164109,-1.12745 0.02627,-0.19236 0.05468,-0.38494 0.0533,-0.57932 -0.121499,-0.12337 -0.104699,-0.0981 0.426976,-0.19962 0.03885,-0.007 -0.03059,0.073 -0.04316,0.11054 -0.07246,0.21615 -0.115948,0.44089 -0.164278,0.66318 -0.130554,0.65224 -0.164548,1.31802 -0.182792,1.98132 -6.72e-4,0.0838 -0.002,0.1677 -0.002,0.25156 -10e-6,0.0587 -9.52e-4,0.1175 0.002,0.17616 0.0016,0.033 0.0032,0.0665 0.01153,0.0985 0.0022,0.008 0.02645,0.0144 0.01867,0.0184 -0.494625,0.25182 -0.503553,0.31276 -0.363917,0.0828 0.217382,-0.43996 0.350363,-0.91439 0.487215,-1.38376 0.09986,-0.33519 0.177162,-0.67606 0.2308,-1.02152 0.0294,-0.27169 -0.07717,-0.15121 0.465749,-0.33111 0.02298,-0.008 -0.02381,0.0423 -0.03335,0.0645 -0.01923,0.0448 -0.0788,0.21513 -0.09132,0.25035 -0.118849,0.34913 -0.20272,0.70812 -0.276087,1.06906 -0.05318,0.23475 0.0071,0.20354 -0.502942,0.26353 -0.03665,0.005 -0.0028,-0.0738 -0.0031,-0.11067 -6.72e-4,-0.0726 0.0019,-0.30765 0.0025,-0.36646 0.0091,-0.53526 0.0053,-1.07056 0.0066,-1.60585 -1.41e-4,-0.0947 0.0021,-0.18945 0.0022,-0.28419 1.44e-4,-0.21129 -0.05268,-0.13075 0.468497,-0.26324 0.03094,-0.008 0.0013,0.0639 0.0032,0.0957 0.003,0.0497 0.0077,0.0992 0.0116,0.14874 0.02308,0.35719 0.06481,0.71337 0.08045,1.07101 -0.0021,0.0331 -0.0042,0.0662 -0.0063,0.0993 0,0 -0.457614,0.22745 -0.457614,0.22745 l 0,0 c 0.0044,-0.032 0.0088,-0.064 0.0132,-0.096 0.0016,-0.35728 -0.03133,-0.71458 -0.07402,-1.069 -0.0073,-0.0483 -0.01478,-0.0967 -0.02191,-0.14503 -0.0042,-0.0283 -0.03461,-0.0675 -0.01199,-0.085 0.725466,-0.56216 0.47569,-0.40614 0.448729,-0.21211 -0.01178,0.0848 -0.0175,0.21345 -0.02237,0.29247 -0.01992,0.5339 -0.01002,1.06834 -0.003,1.60243 0.0035,0.12795 0.0048,0.23017 0.01294,0.3558 0.0022,0.0334 0.03493,0.0788 0.009,0.0999 -0.138925,0.11289 -0.312363,0.17522 -0.464223,0.27 -0.02493,0.0155 0.247859,-0.0162 0.05365,-0.07 0.0936,-0.35791 0.167828,-0.72096 0.276889,-1.07484 3.19e-4,-0.001 0.07235,-0.22603 0.07801,-0.2458 0.007,-0.0245 -0.0035,-0.0607 0.01815,-0.0742 0.512577,-0.32 0.51754,-0.39036 0.468817,-0.0977 -0.0177,0.0998 -0.03328,0.2 -0.05267,0.2995 -0.04868,0.24983 -0.123132,0.49389 -0.196167,0.73738 -0.139,0.46488 -0.268233,0.93443 -0.459879,1.38128 -0.116058,0.27359 -0.04249,0.16587 -0.549585,0.38701 -0.01525,0.007 -0.01726,-0.0295 -0.0194,-0.0459 -0.0076,-0.0586 0.0083,-0.25972 0.01002,-0.29155 0.0045,-0.0857 0.0084,-0.17155 0.01265,-0.25732 0.02967,-0.66324 0.05287,-1.32942 0.17111,-1.9843 0.04198,-0.21938 0.08229,-0.43871 0.135728,-0.65566 0.0093,-0.0377 -0.0015,-0.089 0.02926,-0.11255 0.149792,-0.11485 0.319437,-0.20271 0.489289,-0.28503 0.01313,-0.007 0.0079,0.028 0.01181,0.0421 -0.02433,0.20248 -0.06103,0.40314 -0.09374,0.6044 -0.06096,0.37501 -0.120516,0.75032 -0.166968,1.12747 -0.06493,0.54248 -0.115392,1.0861 -0.163687,1.63026 -0.0016,0.037 -0.0026,0.0739 -0.0046,0.11084 -0.001,0.0187 0.0038,0.0392 -0.0045,0.0559 -0.0031,0.006 -0.01151,-0.0146 -0.01761,-0.0112 -0.147175,0.0815 -0.285774,0.17773 -0.43234,0.26027 -0.02993,0.0168 0.125266,-0.11973 0.05991,-0.0838 0.05997,-0.10882 0.10855,-0.22163 0.157433,-0.33544 0.04613,-0.0773 0.09084,-0.15537 0.136173,-0.23304 0.05406,-0.1068 0.07453,-0.22823 0.113149,-0.34089 0.108217,-0.36249 0.21135,-0.72668 0.273029,-1.10065 0.0123,-0.0829 0.02727,-0.16536 0.03691,-0.24856 0.04742,-0.40924 0.0261,-0.82212 0.02538,-1.2329 -0.005,-0.2071 -0.0072,-0.41502 -0.02758,-0.62138 -0.0045,-0.0451 -0.0099,-0.0902 -0.01784,-0.13492 -0.0046,-0.026 -0.04013,-0.0603 -0.0196,-0.077 0.131829,-0.10753 0.291388,-0.17565 0.437082,-0.26349 -0.01525,0.005 -0.03394,0.003 -0.04576,0.014 -0.05119,0.0464 -0.08698,0.15803 -0.104967,0.21205 -0.07815,0.23464 -0.125533,0.47846 -0.181618,0.7188 -0.09596,0.45661 -0.196462,0.92135 -0.203774,1.38942 0.0044,0.0339 0.005,0.0981 0.02876,0.13254 0.02624,0.038 0.110887,-0.0214 0.137496,-0.0277 0.17915,-0.0878 0.09155,-0.0463 -0.346748,0.20735 -0.01736,0.0101 0.03474,-0.0202 0.05092,-0.032 0.0077,-0.005 0.08476,-0.072 0.09194,-0.0788 0.01399,-0.0132 0.02681,-0.0277 0.04021,-0.0415 0.06618,-0.0725 0.128518,-0.15188 0.168881,-0.24187 0.03521,-0.10332 0.04275,-0.21284 0.06904,-0.31861 0.03194,-0.16853 0.05435,-0.34071 0.05271,-0.51243 -0.001,-0.13385 -0.0011,-0.26768 -0.0017,-0.40153 -0.0013,-0.0982 -0.0015,-0.19633 7.3e-5,-0.29449 0.0013,-0.15303 0.0026,-0.30607 0.0046,-0.45908 0.0053,-0.30975 0.0053,-0.61948 0.0053,-0.92928 0.0039,-0.422 0.0072,-0.84401 -0.0028,-1.26597 -0.0012,-0.0513 -0.002,-0.10258 -0.0035,-0.15388 -0.0011,-0.0357 -0.03145,-0.0837 -0.0044,-0.10696 0.557501,-0.47809 0.455603,-0.3858 0.472914,-0.0494 0.02145,0.42875 0.06103,0.85626 0.135233,1.27942 0.02273,0.12822 0.04478,0.25624 0.06072,0.38549 0.0028,0.0228 0.02561,0.0547 0.0073,0.0686 -0.14434,0.10932 -0.306934,0.19262 -0.466122,0.27888 -0.0081,0.005 0.0015,-0.0182 0.0021,-0.0274 0.0024,-0.11521 0.0011,-0.23047 0.0019,-0.3457 2.23e-4,-0.10811 0.0028,-0.21654 -0.0079,-0.32428 -0.01765,-0.12419 -0.05934,-0.21719 -0.14436,-0.31192 -0.127246,-0.14935 -0.265362,-0.29015 -0.379113,-0.45055 -0.07133,-0.1177 -0.08553,-0.17439 -0.04789,-0.30762 0.01376,-0.0423 0.01758,-0.0602 0.0388,-0.10008 0.113542,-0.21331 0.382632,-0.31679 0.613404,-0.36083 0.10396,-0.005 0.208067,-3.7e-4 0.312084,0.002 0.25826,0.007 0.516481,0.0165 0.7746,0.0279 0.140379,0.006 0.28212,0.0182 0.422684,0.0187 0.21752,5.6e-4 0.235282,-0.11843 -0.331827,0.27752 -0.142357,-0.0673 -0.299537,-0.0989 -0.438854,-0.17406 -0.150341,-0.0735 -0.296844,-0.16819 -0.461854,-0.20256 -0.01828,2e-5 -0.03671,-0.003 -0.05483,7e-5 -0.134547,0.0177 -0.608605,0.33775 0.340566,-0.22005 0.01866,-0.011 -0.03813,0.0213 -0.05412,0.0359 -0.02453,0.0224 -0.07801,0.0993 -0.09567,0.12371 -0.04544,0.0618 -0.092,0.12292 -0.125216,0.19251 -0.0065,0.0136 -0.02371,0.0362 -0.01076,0.044 0.0074,0.005 0.017,0.003 0.02551,0.005 0.110538,-0.003 0.219003,-0.0264 0.327108,-0.0483 0.109154,-0.0209 0.218944,-0.0358 0.329625,-0.0459 0.08691,-0.005 0.174333,-0.005 0.260669,-0.0182 0.101902,-0.016 0.200214,-0.0445 0.299864,-0.0706 0.101717,-0.0251 0.204844,-0.0389 0.308284,-0.0551 0.175464,-0.0282 0.352837,-0.043 0.527686,-0.0756 0.196588,-0.0282 0.393655,-0.0322 0.592094,-0.0281 0.178622,-3.6e-4 0.357241,5.6e-4 0.53586,-1.1e-4 0.159046,-0.001 0.318106,-0.002 0.477151,-3.8e-4 0.136,0.003 0.271822,0.0105 0.406516,0.0304 0.189845,0.027 0.378506,0.0647 0.57039,0.0748 0.191323,0.0144 0.382829,0.027 0.571897,0.0621 0.261973,0.0466 0.523853,0.0961 0.781369,0.16356 0.162574,0.0511 0.336008,0.0961 0.43893,0.24304 0.208448,0.32596 -0.06017,0.3453 -0.403185,0.5544 -0.01241,-0.003 -0.02561,-0.003 -0.03722,-0.008 -0.07381,-0.0328 -0.132487,-0.1583 -0.18686,-0.21637 -0.0949,-0.12185 -0.182556,-0.24912 -0.284706,-0.36511 -0.130466,-0.15108 -0.266663,-0.29705 -0.402985,-0.44283 -0.123064,-0.1366 -0.241791,-0.27697 -0.362432,-0.41568 -0.130475,-0.15824 -0.259763,-0.31737 -0.38144,-0.48258 -0.179343,-0.22445 -0.35101,-0.45485 -0.53073,-0.67902 -0.162918,-0.20391 -0.314636,-0.41688 -0.487498,-0.61267 -0.162385,-0.1685 -0.323602,-0.33757 -0.464919,-0.52485 -0.161975,-0.20413 -0.309726,-0.41823 -0.464324,-0.62785 -0.144757,-0.18562 -0.284986,-0.37484 -0.43549,-0.55592 -0.160675,-0.21596 -0.299865,-0.44567 -0.435336,-0.67811 -0.09515,-0.16266 -0.201011,-0.31715 -0.312933,-0.4688 -0.07323,-0.10494 -0.141246,-0.21387 -0.219269,-0.31491 -0.06168,-0.0766 -0.118278,-0.15716 -0.183395,-0.23101 -0.08742,-0.10645 -0.182792,-0.2058 -0.269111,-0.3132 -0.10243,-0.12526 -0.206046,-0.24959 -0.296806,-0.38382 -0.09376,-0.13054 -0.175754,-0.26881 -0.269132,-0.39967 -0.07368,-0.11627 -0.142927,-0.23515 -0.218797,-0.35004 -0.06003,-0.0915 -0.123423,-0.18083 -0.194582,-0.26411 -0.0772,-0.0922 -0.162312,-0.17775 -0.231471,-0.27651 -0.111302,-0.15131 -0.219881,-0.30463 -0.33126,-0.45589 -0.121015,-0.14965 -0.24283,-0.29866 -0.359525,-0.45174 -0.221211,-0.27999 -0.444639,-0.56008 -0.692534,-0.81697 -0.176583,-0.16433 -0.361681,-0.31804 -0.563425,-0.45094 -0.146806,-0.099 -0.299744,-0.19152 -0.416166,-0.32774 -0.144563,-0.15114 -0.291169,-0.30086 -0.425051,-0.46167 -0.129212,-0.16111 -0.251833,-0.32745 -0.372252,-0.49521 0,0 0.449497,-0.26339 0.449497,-0.26339 z"
         inkscape:connector-curvature="0" />
      <path
         style="fill:#217844;fill-opacity:1"
         id="path4967"
         d="m -31.109127,579.2937 c 0.158878,0.0328 0.255674,0.1514 0.345095,0.27695 0.153185,0.23044 0.240517,0.49333 0.330284,0.75265 0.151517,0.41267 0.317878,0.81928 0.517991,1.21082 0.10953,0.19815 0.216332,0.4048 0.392838,0.55151 0.07084,0.0452 0.03645,0.0234 0.10314,0.0655 0,0 -0.436736,0.28001 -0.436736,0.28001 l 0,0 c -0.06644,-0.0455 -0.03181,-0.0211 -0.103715,-0.0734 -0.174518,-0.15846 -0.278334,-0.37254 -0.382564,-0.58076 -0.190573,-0.39762 -0.362503,-0.80337 -0.525589,-1.21299 -0.09446,-0.25188 -0.181065,-0.50975 -0.33475,-0.73341 -0.09809,-0.12926 -0.173062,-0.21102 -0.338174,-0.24097 0,0 0.43218,-0.29598 0.43218,-0.29598 z"
         inkscape:connector-curvature="0" />
      <path
         style="fill:#217844;fill-opacity:1"
         id="path4969"
         d="m -30.047077,581.14654 c -0.147463,-0.11419 -0.235112,-0.27806 -0.331978,-0.43322 -0.116116,-0.17693 -0.229509,-0.35574 -0.346648,-0.532 -0.06826,-0.10477 -0.17864,-0.1613 -0.278212,-0.23066 -0.07878,-0.0542 -0.149389,-0.11888 -0.220479,-0.1825 0,0 0.437937,-0.27185 0.437937,-0.27185 l 0,0 c 0.06999,0.0621 0.140899,0.12335 0.218599,0.1758 0.106862,0.0713 0.218114,0.13648 0.287145,0.24941 0.111973,0.17959 0.219352,0.36199 0.338642,0.53699 0.09607,0.14817 0.183588,0.30748 0.336178,0.40554 0,0 -0.441184,0.28249 -0.441184,0.28249 z"
         inkscape:connector-curvature="0" />
      <path
         style="fill:#217844;fill-opacity:1"
         id="path4971"
         d="m -35.729805,581.90318 c -0.02357,-0.0561 -0.04841,-0.11166 -0.07242,-0.16758 7.99e-4,-0.0156 -1.14e-4,-0.0314 0.0024,-0.0468 0.0033,-0.0206 0.02457,-0.0861 0.03015,-0.10491 0.01575,-0.0531 0.02869,-0.10632 0.04005,-0.16053 0.01168,-0.0788 0.02238,-0.15692 0.04885,-0.23226 0.03908,-0.0958 0.11022,-0.16819 0.187792,-0.23383 0.163952,-0.11952 0.342949,-0.21753 0.532489,-0.28946 0.09817,-0.0366 0.20049,-0.0604 0.300202,-0.0923 0.01168,-0.005 0.02355,-0.009 0.03503,-0.0138 0.01147,-0.005 0.02251,-0.011 0.03377,-0.0165 -0.06146,0.0349 -0.12206,0.0713 -0.184369,0.10465 -0.01432,0.008 0.02702,-0.018 0.0402,-0.0275 0.01454,-0.0104 0.02884,-0.0213 0.04293,-0.0324 0.01238,-0.01 0.02429,-0.02 0.03644,-0.03 -0.0035,-0.007 0.0317,-0.0223 0.02778,-0.0373 -0.0019,-0.007 -0.03292,-0.006 -0.04419,-0.006 -0.06959,0.002 -0.07658,0.005 -0.153255,0.016 -0.186519,0.0403 -0.370231,0.0979 -0.543672,0.17807 -0.04425,0.0204 -0.08657,0.0448 -0.130037,0.0669 -0.0316,0.016 0.06294,-0.0326 0.0944,-0.0488 -0.08625,0.0607 -0.175508,0.1255 -0.227061,0.22024 -0.01925,0.0354 -0.02178,0.0507 -0.0328,0.088 -0.01929,0.10089 -0.01478,0.20462 -0.0056,0.30635 0.01338,0.0853 0.02812,0.17072 0.04721,0.25497 0.0025,0.006 0.0029,0.0134 0.0074,0.018 0.0073,0.007 0.03237,-0.02 0.02674,-0.0172 -0.06265,0.0304 -0.118704,0.0754 -0.184657,0.0977 -0.02405,0.008 0.03705,-0.0348 0.05422,-0.0535 0.02198,-0.024 0.04206,-0.0497 0.06309,-0.0744 0.107094,-0.14124 0.206664,-0.28881 0.286127,-0.44755 0.06115,-0.12216 0.07429,-0.16216 0.125679,-0.28944 0.08904,-0.25165 0.156158,-0.51048 0.20764,-0.77223 0.0245,-0.12067 -0.0071,-0.0823 0.242611,-0.14295 0.01317,-0.003 -0.006,0.0264 -0.009,0.0397 -0.01975,0.087 -0.0095,0.0425 -0.0331,0.14237 -0.0482,0.20483 -0.09501,0.41054 -0.16932,0.60789 -0.01626,0.0432 -0.03489,0.0855 -0.05233,0.12817 -0.06369,0.16023 -0.146022,0.31174 -0.219353,0.46747 -0.02421,0.055 0.007,-0.005 -0.01257,0.003 -0.07716,0.0314 -0.147638,0.078 -0.225379,0.10791 -0.0096,0.004 0.01011,-0.018 0.01512,-0.027 0.04319,-0.078 -0.0069,0.0117 0.03834,-0.0691 0.0067,-0.0114 0.01346,-0.0228 0.02019,-0.0341 0,0 0.235291,-0.1042 0.235291,-0.1042 l 0,0 c -0.0069,0.0111 -0.01375,0.0223 -0.02064,0.0334 -0.0033,0.005 -0.04865,0.0926 -0.04971,0.0933 -0.07747,0.0496 -0.157387,0.0958 -0.239918,0.13643 -0.0049,0.003 -0.0069,-0.01 -0.0061,-0.0152 9.32e-4,-0.007 0.0071,-0.012 0.01068,-0.018 0.08481,-0.15493 0.170117,-0.30992 0.2374,-0.47356 0.01778,-0.0423 0.03684,-0.0842 0.05331,-0.1271 0.0745,-0.19404 0.119407,-0.3973 0.160563,-0.6005 0.0092,-0.0463 0.01886,-0.0915 0.02626,-0.13799 0.002,-0.0127 -0.0057,-0.031 0.005,-0.0383 0.07526,-0.0511 0.160482,-0.0857 0.240722,-0.12857 -0.0027,0.003 -0.0065,0.005 -0.0081,0.009 -0.0059,0.0129 -0.0094,0.0268 -0.01403,0.0401 -0.06961,0.26189 -0.1318,0.52617 -0.220739,0.78247 -0.05082,0.12917 -0.06269,0.16653 -0.122708,0.29082 -0.07644,0.15828 -0.172788,0.30534 -0.275041,0.44799 -0.0054,0.007 -0.09011,0.11741 -0.106823,0.12898 -0.0828,0.0574 -0.169464,0.10926 -0.257876,0.15751 -0.03046,0.0166 -0.05156,-0.0147 -0.05753,-0.0378 -0.01798,-0.0861 -0.02761,-0.17399 -0.04308,-0.26056 -0.01081,-0.10394 -0.0182,-0.20969 -0.0013,-0.31342 0.01109,-0.0418 0.01254,-0.0553 0.03257,-0.0955 0.05091,-0.10222 0.143495,-0.17152 0.23468,-0.23593 0.104923,-0.0621 0.208553,-0.12643 0.314767,-0.1863 0.209531,-0.1181 0.453239,-0.19014 0.686236,-0.24468 0.04626,-0.007 0.207334,-0.0467 0.233828,0.0231 0.0033,0.009 0.0026,0.0195 -0.0012,0.0281 -0.0049,0.0113 -0.01573,0.0189 -0.0236,0.0284 -0.132006,0.11202 -0.27886,0.2133 -0.44427,0.26834 -0.09931,0.0292 -0.200012,0.0545 -0.296716,0.0919 -0.04261,0.0168 -0.06633,0.0254 -0.10799,0.0446 -0.01779,0.008 -0.06935,0.0363 -0.05279,0.0259 0.05409,-0.0342 0.110381,-0.0647 0.165562,-0.0971 0.01747,-0.0103 -0.03531,0.0199 -0.05244,0.0307 -0.01702,0.0107 -0.0333,0.0226 -0.04996,0.034 -0.07697,0.0614 -0.147776,0.12903 -0.189543,0.22003 -0.02971,0.0737 -0.03991,0.1518 -0.05293,0.22983 -0.0209,0.10025 -0.05105,0.19772 -0.07671,0.29669 0.02393,0.0556 0.04798,0.11118 0.07528,0.16522 0,0 -0.228157,0.12892 -0.228157,0.12892 z"
         inkscape:connector-curvature="0" />
      <path
         style="fill:#217844;fill-opacity:1"
         id="path4973"
         d="m -35.390127,581.07233 c -0.01785,0.0764 -0.03684,0.1525 -0.05315,0.22926 -8.66e-4,0.004 -0.01012,0.0465 -0.0111,0.0543 -1.13e-4,0.001 9.33e-4,0.003 0.0012,0.003 0.0022,-0.007 0.01164,-0.0258 0.0047,-0.0226 -0.0663,0.0301 -0.124755,0.0756 -0.190476,0.10692 -0.02012,0.01 0.03512,-0.0274 0.05268,-0.0412 0.06687,-0.066 0.136836,-0.13338 0.188499,-0.21269 0.0044,-0.007 0.06725,-0.12013 0.07369,-0.13172 0.0061,-0.01 0.04401,-0.0704 0.05258,-0.0863 0.04812,-0.0895 -0.08718,0.008 0.226681,-0.11943 0.01884,-0.008 -0.03443,0.0216 -0.05164,0.0325 -0.1822,0.11721 -0.346982,0.26062 -0.499469,0.41407 -0.103334,0.12067 -0.195453,0.18585 -0.367974,0.2157 -0.01845,0.003 0.0158,-0.0339 0.02369,-0.0509 0.09488,-0.14486 0.231389,-0.25281 0.352997,-0.37337 0.257607,-0.25541 -0.02077,0.005 0.246366,-0.24041 0.204113,-0.20393 0.328687,-0.43291 0.426554,-0.70067 0.01726,-0.0524 0.03286,-0.10537 0.04242,-0.1597 0.0037,-0.0212 0.0025,-0.0395 0.01668,-0.0584 0.04927,-0.0656 0.103525,-0.12735 0.155287,-0.19103 0.368179,-0.45804 0.723539,-0.92619 1.077125,-1.39553 0.107403,-0.13614 0.203557,-0.28123 0.314931,-0.41423 0.05349,-0.0593 0.109181,-0.11668 0.16482,-0.17401 0.04313,-0.0435 0.08265,-0.0902 0.123022,-0.13623 0.04458,-0.0524 0.09987,-0.0935 0.152749,-0.13696 0.0997,-0.0876 0.197794,-0.13975 0.326829,-0.20007 0.006,-0.003 0.01109,0.007 0.01662,0.011 0.0038,0.007 0.0091,0.0139 0.01148,0.0216 0.01508,0.0491 -0.0123,0.14273 -0.0237,0.19069 -0.04904,0.15251 -0.105077,0.30265 -0.154887,0.45493 -0.0177,0.0745 -0.06244,0.15235 -0.0486,0.23152 0.0015,0.009 0.0053,0.0172 0.0079,0.026 0.02176,0.0452 0.05489,0.0544 0.09786,0.0706 0.04002,0.0159 0.08107,0.0336 0.115993,0.0593 0.02433,0.0167 0.04342,0.0395 0.06558,0.0587 0.0032,0.004 0.0064,0.008 0.0096,0.0122 0,0 -0.225192,0.13448 -0.225192,0.13448 l 0,0 c -0.0023,-0.003 -0.0047,-0.005 -0.007,-0.009 -0.02091,-0.0192 -0.04053,-0.0399 -0.06381,-0.0564 -0.03405,-0.0234 -0.07278,-0.0399 -0.11144,-0.0542 -0.04803,-0.0182 -0.08687,-0.0425 -0.108855,-0.0916 -0.0033,-0.0104 -0.0077,-0.0206 -0.0097,-0.0313 -0.01623,-0.0843 0.02843,-0.16612 0.05141,-0.24442 0.0515,-0.14987 0.10453,-0.29929 0.151513,-0.45066 0.01263,-0.0558 0.03116,-0.1187 0.02404,-0.17636 -0.08183,0.031 -1.55e-4,4.4e-4 0.203262,-0.11996 0.0064,-0.004 -0.01366,0.006 -0.01991,0.0101 -0.02484,0.0162 -0.0452,0.0388 -0.06937,0.0559 -0.05191,0.0435 -0.108022,0.0824 -0.153466,0.13299 -0.04117,0.0457 -0.07995,0.0936 -0.123068,0.13754 -0.05645,0.0577 -0.113335,0.11511 -0.168687,0.17393 -0.120497,0.13577 -0.22446,0.28562 -0.341628,0.42421 -0.365623,0.46193 -0.727863,0.92664 -1.081891,1.39751 -0.04112,0.0571 -0.08293,0.11381 -0.12337,0.17144 -0.0058,0.008 -0.0117,0.0166 -0.01527,0.0261 -0.0033,0.009 -0.003,0.0185 -0.005,0.0276 -0.01248,0.0571 -0.03132,0.11268 -0.05093,0.16769 -0.102703,0.26299 -0.233134,0.51461 -0.434919,0.7166 -0.239117,0.21591 -0.0188,0.0109 -0.244648,0.23913 -0.115252,0.11647 -0.244418,0.21996 -0.33818,0.35618 -0.05124,0.13063 -0.006,0.0461 -0.264384,0.16818 -0.0055,0.003 0.0088,-0.008 0.01372,-0.0117 0.05003,-0.0348 0.0369,-0.0173 0.08557,-0.0658 0.01727,-0.0172 0.03272,-0.0362 0.04908,-0.0543 0.107914,-0.10721 0.221158,-0.20664 0.339001,-0.30284 0.02684,-0.022 0.05313,-0.0446 0.08087,-0.0654 0.02314,-0.0173 0.04777,-0.0326 0.07165,-0.0489 0.104091,-0.064 0.146314,-0.0919 0.299259,-0.15428 0.0065,-0.003 0.0085,0.0124 0.0081,0.0194 -0.0021,0.0338 -0.05672,0.0849 -0.06863,0.11401 -0.0121,0.0205 -0.02506,0.0406 -0.03631,0.0615 -0.01279,0.0239 -0.0218,0.0497 -0.03576,0.0729 -0.0119,0.0198 -0.02728,0.0373 -0.04147,0.0555 -0.04446,0.0571 -0.09289,0.11092 -0.14421,0.16195 -0.106081,0.0983 -0.08651,0.0866 -0.302431,0.18984 -0.01841,0.009 -0.03415,-0.0138 -0.0341,-0.0276 6.1e-5,-0.019 0.01504,-0.0361 0.01318,-0.0554 0.0174,-0.0758 0.03719,-0.15108 0.05031,-0.22772 0,0 0.235187,-0.11363 0.235187,-0.11363 z"
         inkscape:connector-curvature="0" />
      <path
         style="fill:#217844;fill-opacity:1"
         id="path4975"
         d="m -33.569075,578.575 c 0.02985,0.0546 0.06794,0.10474 0.106838,0.15325 0.006,0.009 0.01233,0.0179 0.01797,0.0272 0.0182,0.03 0.01544,0.0308 0.03503,0.0604 0.02146,0.0324 0.0481,0.0609 0.07354,0.0901 0.04148,0.0488 0.07178,0.10569 0.105922,0.15966 0.02561,0.0415 0.04719,0.0845 0.06036,0.13148 0.01612,0.048 0.02172,0.0981 0.02412,0.14836 2.23e-4,0.083 2.33e-4,0.16587 -0.01018,0.24832 -0.01632,0.0963 -0.06272,0.1757 -0.134534,0.24182 -0.02381,0.022 -0.04808,0.044 -0.07586,0.0606 -0.270853,0.1618 -0.546135,0.31607 -0.819202,0.4741 -0.08643,0.0379 -0.216563,0.1078 -0.312328,0.0556 -0.05233,-0.0285 -0.05738,-0.0593 -0.08274,-0.10993 -0.02397,-0.0773 -0.02457,-0.15836 -0.03724,-0.23763 -0.0018,-0.0112 -0.0089,-0.0723 -0.02227,-0.0837 1.129209,-0.57153 0.864449,-0.64656 0.776174,-0.30299 -0.01274,0.0495 -0.02147,0.10037 -0.03299,0.15026 -0.0048,0.0279 -0.01383,0.0547 -0.02022,0.0822 -0.0019,0.008 0.0025,0.0211 -0.0049,0.0256 -0.165322,0.0999 -0.692745,0.74886 -0.827706,0.38831 -0.0065,-0.0172 -0.0049,-0.0365 -0.0073,-0.0547 0.01464,-0.27735 0.02294,-0.5547 0.02372,-0.83244 0.0043,-0.14892 0.0027,-0.29801 0.0087,-0.44689 0.0028,-0.0701 0.0079,-0.13684 0.02347,-0.20503 0.265151,-0.15007 0.518697,-0.32281 0.795454,-0.45023 0.02359,-0.0109 0.03391,0.0399 0.0461,0.0628 0.01876,0.0353 0.03592,0.11472 0.04296,0.15162 0.0096,0.0505 0.02506,0.16185 0.03206,0.21036 0.03776,0.23825 0.06677,0.47786 0.11111,0.71501 0.009,0.0294 0.01825,0.13586 0.04758,0.15975 0.0032,0.003 0.0096,-0.004 0.0093,-0.008 -0.0013,-0.0182 0.0027,-0.0611 -0.01358,-0.0529 -0.256225,0.12781 -0.495572,0.28697 -0.743358,0.43046 0.0131,-0.0182 0.0281,-0.035 0.03931,-0.0544 0.03085,-0.0534 0.07849,-0.16684 0.09922,-0.21811 0.06907,-0.17087 0.128463,-0.34545 0.189068,-0.51943 0.08614,-0.25232 0.174293,-0.50431 0.280563,-0.74902 0.04461,-0.10272 0.08371,-0.18262 0.131347,-0.28241 0.198565,-0.40616 0.219188,-0.32752 0.912575,-0.61588 0.02483,-0.0103 0.03097,0.0447 0.04035,0.0699 0.0093,0.025 0.0099,0.0524 0.01491,0.0785 0.01606,0.22316 0.0059,0.44708 0.01113,0.67061 0.0032,0.0691 0.0037,0.10581 0.01065,0.17192 0.0017,0.0166 0.0028,0.0334 0.0069,0.0496 0.0013,0.005 0.0097,0.018 0.0089,0.0129 -0.0033,-0.0196 0.0018,-0.0658 -0.01624,-0.0574 -0.259099,0.12037 -0.500427,0.27577 -0.75064,0.41366 0.01572,-0.0176 0.03265,-0.0343 0.04715,-0.0529 0.03374,-0.0434 0.08579,-0.12605 0.113449,-0.17059 0.06642,-0.10694 0.128717,-0.21544 0.187569,-0.32669 0.05839,-0.117 0.112036,-0.2378 0.138558,-0.36636 0.01256,-0.0712 0.01039,-0.14362 0.0096,-0.21557 -0.0011,-0.0472 -4.22e-4,-0.0944 -0.0013,-0.14163 0,0 0.79682,-0.40682 0.79682,-0.40682 l 0,0 c -1.21e-4,0.047 0.0014,0.0941 0.0017,0.14114 8.39e-4,0.0782 0.0018,0.15675 -0.0077,0.23448 -0.007,0.0392 -0.0097,0.0623 -0.02244,0.10087 -0.03618,0.10976 -0.100695,0.20813 -0.151222,0.31121 -0.09983,0.18027 -0.199804,0.36095 -0.290004,0.54622 -0.267463,0.15746 -0.523881,0.33541 -0.802387,0.47239 -0.02146,0.0106 -0.03483,-0.0339 -0.04583,-0.0552 -0.0101,-0.0195 0.0031,-0.0826 0.0045,-0.0961 0.0077,-0.0733 0.0081,-0.10601 0.0118,-0.18284 0.0045,-0.21237 0.0046,-0.42736 -0.03213,-0.63716 -0.0976,-0.3082 -0.177101,0.0574 0.73199,-0.47123 0.0163,-0.009 -0.03685,0.0113 -0.05174,0.023 -0.04943,0.0385 -0.09505,0.1158 -0.127715,0.16348 -0.07072,0.12026 -0.09618,0.15862 -0.159434,0.28816 -0.116953,0.23952 -0.207875,0.4902 -0.287649,0.74422 -0.07944,0.2558 -0.156535,0.51273 -0.220457,0.77287 -0.261964,0.16276 -0.514706,0.34138 -0.785891,0.48825 -0.02373,0.0128 -0.06277,-0.0566 -0.06825,-0.0717 -0.02226,-0.0613 -0.01403,-0.13114 -0.02152,-0.19434 -0.01784,-0.24034 -0.05033,-0.47878 -0.102851,-0.71417 -0.01045,-0.0459 -0.03158,-0.14413 -0.0467,-0.19211 -0.0072,-0.0227 -0.01593,-0.0449 -0.02562,-0.0666 -0.0054,-0.0121 -0.01009,-0.0252 -0.0195,-0.0346 -0.0028,-0.003 -0.0077,0.0131 -0.0043,0.0111 0.249426,-0.14547 0.496341,-0.29522 0.744512,-0.44283 -0.0129,0.007 -0.02927,0.0108 -0.03871,0.0223 -0.03106,0.0379 -0.04939,0.12232 -0.05733,0.16357 -0.02872,0.14914 -0.03455,0.30207 -0.03766,0.45344 0.0016,0.26017 7.32e-4,0.52325 0.04716,0.78008 0.01582,0.0658 -0.0011,-0.0158 -0.01485,-0.008 -0.261983,0.13922 -0.511895,0.30006 -0.767361,0.4509 -0.0069,0.004 0.01601,-0.005 0.02172,-0.0107 0.01796,-0.0179 0.027,-0.0507 0.03529,-0.0726 0.126706,-0.50257 -0.149013,-0.14507 0.856751,-0.65772 -4.92e-4,0.0368 -0.008,0.0725 -0.0081,0.10949 -2.17e-4,0.0683 0.0078,0.13641 0.03062,0.20103 0.006,0.01 0.0097,0.0218 0.01798,0.0298 0.01488,0.0145 0.04457,0.0133 0.06169,0.0112 0.07625,-0.01 0.145038,-0.0481 0.212081,-0.0827 -0.213603,0.12503 -0.426813,0.25074 -0.640809,0.37511 -0.02506,0.0145 0.05047,-0.0288 0.07399,-0.0457 0.04921,-0.0354 0.09643,-0.0804 0.122561,-0.13586 0.0068,-0.0145 0.01102,-0.03 0.01652,-0.0451 0.013,-0.075 0.01018,-0.15026 0.0049,-0.22602 -0.0022,-0.0426 -0.0039,-0.0858 -0.01659,-0.12698 -0.01311,-0.0392 -0.02356,-0.0788 -0.04564,-0.11447 -0.02945,-0.0515 -0.05974,-0.10272 -0.09323,-0.15166 -0.04578,-0.0582 -0.09564,-0.11333 -0.133017,-0.1777 -0.03684,-0.0499 -0.06898,-0.10432 -0.115294,-0.14618 0,0 0.780402,-0.46643 0.780402,-0.46643 z"
         inkscape:connector-curvature="0" />
      <path
         style="fill:#217844;fill-opacity:1"
         id="path4977"
         d="m -32.17179,577.03186 c 0.0032,0.0112 0.0057,0.0224 0.0095,0.0334 0.0078,0.0225 0.04462,0.11245 0.04956,0.12474 0.04792,0.11924 0.09701,0.23791 0.146571,0.35648 0.08773,0.23132 0.218171,0.44209 0.328939,0.66222 0.04445,0.0819 0.06287,0.15457 0.06442,0.24671 0.0011,0.0603 0.0027,0.12058 0.0035,0.18088 -8.99e-4,0.0332 0.0044,0.0698 -0.0087,0.10155 -0.0089,0.0216 -0.02834,0.0387 -0.0438,0.055 -0.09844,0.0787 -0.196734,0.1579 -0.298371,0.23249 -0.323804,0.21244 -0.142628,0.0955 -0.884094,0.51528 -0.03152,0.0178 -0.139237,0.0628 -0.171583,0.0742 -0.08513,0.03 -0.11587,0.0338 -0.204733,0.0535 -0.260794,0.0437 -0.522145,0.0833 -0.782031,0.1322 -0.140641,0.0303 -0.282829,0.0538 -0.422319,0.0894 -0.112872,0.0288 -0.223721,0.0654 -0.333985,0.1027 -0.105509,0.0347 -0.210917,0.0698 -0.322456,0.0752 -0.05734,0.008 -0.117365,-0.006 -0.173647,0.008 -0.179272,0.25615 -0.014,0.014 0.735275,-0.41011 0.0094,-0.005 -0.01838,0.0118 -0.02518,0.0202 -0.03075,0.0378 -0.03684,0.0917 -0.04575,0.13741 -0.02146,0.12805 -0.0091,0.2569 0.02679,0.38123 0.0077,0.0269 0.018,0.0529 0.027,0.0793 0.02578,0.0724 0.07116,0.13484 0.106101,0.20259 0.02212,0.0429 0.0217,0.046 0.03846,0.0913 0.01841,0.0769 0.03938,0.15852 0.03384,0.23849 -0.0011,0.0153 -0.0042,0.0305 -0.0063,0.0457 -0.02976,0.1181 -0.100878,0.21801 -0.179167,0.30889 -0.102944,0.10095 -0.222738,0.18552 -0.347346,0.2578 -0.27506,0.15952 -0.551479,0.31669 -0.827218,0.47503 -0.173648,0.0782 -0.346917,0.15992 -0.528127,0.21961 -0.03596,0.0118 -0.07254,0.0217 -0.108815,0.0326 -0.127207,0.0256 -0.253544,0.0738 -0.384628,0.0765 -0.02185,4.5e-4 -0.04421,0.001 -0.06543,-0.004 -0.01851,-0.005 -0.03443,-0.0163 -0.05164,-0.0245 -0.01167,-0.0209 -0.0291,-0.0396 -0.035,-0.0628 -0.02281,-0.0898 0.03625,-0.18971 0.07404,-0.26528 0.03134,-0.0626 0.08855,-0.16602 0.121532,-0.2264 0.08819,-0.15451 0.172421,-0.31226 0.274413,-0.45839 0.06281,-0.09 0.08129,-0.10787 0.15173,-0.19088 0.139777,-0.15146 0.299498,-0.28299 0.466029,-0.40381 -0.455907,1.71803 0.558168,-0.59576 0.845348,-0.45469 0.0182,0.009 0.03347,0.0246 0.04411,0.0419 0.04813,0.0781 0.02995,0.18869 0.0264,0.27348 -0.01441,0.24574 -0.02359,0.49211 -0.05945,0.7359 -0.0207,0.11634 -0.065,0.226 -0.103494,0.33707 -0.01013,0.0292 -0.03736,0.11432 -0.04751,0.14586 -0.02926,0.0816 -0.04738,0.16745 -0.08728,0.24485 -0.182053,0.29346 -0.41258,0.27976 -0.838268,0.51964 -0.0084,0.005 -0.01897,0.005 -0.02812,0.007 -0.01057,0.004 -0.02059,0.009 -0.03088,0.0133 -0.06932,0.0182 -0.138863,0.0846 -0.211503,0.0849 -0.0135,7e-5 -0.02638,-0.005 -0.03957,-0.009 -0.01214,-0.0128 -0.02684,-0.0237 -0.03642,-0.0385 -0.05088,-0.0787 -0.019,-0.23164 -0.0069,-0.318 0.0043,-0.0398 0.01241,-0.10906 0.01454,-0.15025 8.65e-4,-0.0172 0.0015,-0.0345 3.9e-4,-0.0516 -5.39e-4,-0.009 -0.0016,-0.0175 -0.0052,-0.0253 -0.0011,-0.003 -0.0055,0.009 -0.003,0.007 0.269603,-0.12667 0.537644,-0.25663 0.806466,-0.38493 -0.0092,0.003 -0.02092,0.002 -0.02759,0.009 -0.01737,0.0182 -0.05092,0.10799 -0.05574,0.12124 -0.03761,0.10316 -0.06788,0.2091 -0.09823,0.31454 -0.0091,0.0327 -0.01796,0.0654 -0.02743,0.0981 -0.0174,0.0598 -0.03194,0.10784 -0.05441,0.16564 -0.02808,0.0723 -0.06329,0.14129 -0.0977,0.21066 -0.04433,0.0883 -0.102001,0.16911 -0.174838,0.2359 0.307493,0.35432 -0.70967,0.67742 -0.863128,0.38017 -0.02323,-0.045 -0.0241,-0.0983 -0.02812,-0.14738 -4.25e-4,-0.009 -0.0042,-0.0942 -0.0052,-0.10527 -0.0011,-0.0127 -0.0023,-0.0256 -0.0047,-0.0381 -0.0014,-0.007 5.1e-4,-0.0196 -0.0066,-0.0204 -0.0066,-5.6e-4 -0.0051,0.0226 8.66e-4,0.0198 0.266667,-0.12774 0.527964,-0.26639 0.791945,-0.39959 -0.01,0.007 -0.02233,0.0122 -0.02995,0.022 -0.02272,0.029 -0.05206,0.10464 -0.06341,0.13429 -0.03423,0.0893 -0.05919,0.18036 -0.08358,0.27271 -0.04485,0.16809 -0.102278,0.33235 -0.155649,0.4978 -8.65e-4,0.003 -0.02757,0.0899 -0.03066,0.10397 -0.07453,0.33906 1.304534,-0.42653 -0.814738,0.43443 -0.02302,0.009 -0.01446,-0.0481 -0.01549,-0.0729 -0.0011,-0.026 0.0062,-0.0517 0.0093,-0.0775 0.05423,-0.32251 0.125753,-0.64172 0.190072,-0.96228 0.03421,-0.17024 0.07379,-0.33925 0.105241,-0.51005 0.01294,-0.0703 0.02657,-0.1411 0.03144,-0.21252 0.265557,-0.14411 0.518989,-0.31326 0.796672,-0.43234 0.02573,-0.011 0.01803,0.0532 0.02323,0.0807 0.0036,0.0193 0.0023,0.0392 0.0031,0.0589 0.0029,0.0648 0.0029,0.12913 0.0019,0.19396 -0.0075,0.20469 -0.01398,0.40938 -0.01445,0.61421 3.66e-4,0.0908 -0.003,0.18338 0.01411,0.27319 0.0023,0.0122 0.0044,0.0249 0.01061,0.0356 0.0015,0.003 0.0088,-0.008 0.006,-0.007 -0.266013,0.12934 -0.530921,0.26092 -0.796382,0.39139 0.0086,-0.021 0.01867,-0.0416 0.0257,-0.0631 0.02471,-0.076 0.04869,-0.18483 0.06445,-0.25982 0.0418,-0.19884 0.07401,-0.39959 0.108914,-0.59972 0.04403,-0.25185 0.07176,-0.50623 0.117715,-0.75773 0.0017,-0.0104 0.0051,-0.0206 0.0053,-0.0312 1.29e-4,-0.009 -0.0029,-0.0181 -0.0045,-0.0271 0.275094,-0.12549 0.543761,-0.26615 0.825283,-0.37648 0.01076,-0.005 0.01022,0.14568 0.01033,0.15427 -3.7e-4,0.1077 -0.0023,0.21536 -0.0023,0.32306 0,0 -0.77889,0.39661 -0.77889,0.39661 l 0,0 c 5.59e-4,-0.10515 5.7e-5,-0.21037 -0.0049,-0.31544 -0.0035,-0.0548 -0.0015,-0.0395 -0.0082,-0.0892 -7.32e-4,-0.005 -0.0072,-0.0135 -0.0025,-0.0161 0.267553,-0.13923 0.543518,-0.26206 0.809605,-0.40407 0.0089,-0.005 -0.01708,-0.0162 -0.0268,-0.0137 -0.01196,0.003 -0.0168,0.0181 -0.0252,0.0272 -0.0099,0.0186 -0.02101,0.0367 -0.02956,0.0559 -0.02729,0.0615 -0.05216,0.13997 -0.06995,0.20314 -0.04901,0.17414 -0.08296,0.35201 -0.118474,0.52923 -0.04057,0.29141 -0.08204,0.5851 -0.08085,0.87988 -0.270557,0.14656 -0.536728,0.30153 -0.811669,0.43969 -0.0089,0.005 -0.0042,-0.0198 -0.0041,-0.0298 1.71e-4,-0.016 0.0037,-0.0317 0.0049,-0.0475 0.0075,-0.096 0.01266,-0.19245 0.01068,-0.2888 3.29e-4,-0.19991 -0.0043,-0.39979 -0.01227,-0.59954 -0.0023,-0.0606 -0.002,-0.1221 -0.008,-0.18251 -0.0015,-0.0154 -0.007,-0.0306 -0.0066,-0.0461 7.4e-5,-0.003 0.0051,0.003 0.0076,0.005 0.257713,-0.14729 0.515426,-0.29458 0.773139,-0.44186 -0.01048,0.011 -0.02351,0.0199 -0.03144,0.0328 -0.02904,0.0473 -0.06269,0.14908 -0.07728,0.19464 -0.05443,0.17 -0.09395,0.34408 -0.1314,0.51844 -0.05772,0.30153 -0.118936,0.6058 -0.120405,0.91393 0.0011,0.0192 0.0051,0.0385 0.0033,0.0576 -2.71e-4,0.003 -0.0062,-0.001 -0.0087,4.3e-4 -0.263839,0.14081 -0.527552,0.28185 -0.789759,0.42566 -0.0083,0.005 0.02031,-0.001 0.02748,-0.008 0.02241,-0.0195 0.04903,-0.0852 0.05875,-0.1058 0.06121,-0.16232 0.106174,-0.32985 0.160635,-0.49446 0.02752,-0.0907 0.05325,-0.18167 0.07661,-0.27359 0.0077,-0.0302 0.02577,-0.10106 0.03168,-0.13523 0.0026,-0.0152 0.0035,-0.0305 0.0054,-0.0457 0.272902,-0.14132 0.539564,-0.29541 0.818704,-0.42396 0.01294,-0.006 0.01633,0.0238 0.02104,0.0372 0.0038,0.0108 0.0032,0.0227 0.0039,0.0341 0.003,0.0478 -0.0015,0.0959 0.0044,0.14357 0.0028,0.0251 0.0019,0.0693 0.01648,0.0925 9.99e-4,0.002 3.44e-4,-0.004 6.66e-4,-0.005 9.32e-4,-0.005 0.0073,-0.0167 0.003,-0.0144 -0.251015,0.1405 -0.498394,0.2874 -0.747591,0.4311 0.02765,-0.0134 0.0431,-0.0192 0.06792,-0.0389 0.05807,-0.0461 0.10317,-0.10695 0.14519,-0.16718 0.0874,-0.14812 0.161839,-0.30384 0.211477,-0.46896 0.02993,-0.10096 0.05586,-0.2013 0.07639,-0.30462 0.0081,-0.0406 0.01887,-0.0809 0.02246,-0.12216 0.0014,-0.0153 -4.02e-4,-0.0308 -6.15e-4,-0.046 0.275975,-0.13336 0.5471,-0.27724 0.827925,-0.40005 0.01069,-0.005 0.0094,0.0217 0.01071,0.0333 0.0031,0.0264 -0.0077,0.0785 -0.01105,0.10118 -0.01235,0.0822 -0.0098,0.0663 -0.01962,0.15143 -0.0037,0.0625 -0.0077,0.12423 -0.0055,0.18686 3.5e-4,0.01 8.66e-4,0.0198 0.0013,0.0297 1.1e-4,0.003 3.43e-4,0.009 4.89e-4,0.007 2.16e-4,-0.003 -1.85e-4,-0.007 -2.77e-4,-0.01 0.07425,-0.0358 0.149516,-0.0695 0.225061,-0.10251 0.01172,-0.005 0.02369,-0.009 0.03516,-0.0148 0.0091,-0.005 0.03524,-0.0198 0.0265,-0.0147 -0.250272,0.14501 -0.502071,0.28743 -0.751093,0.43459 -0.01997,0.0118 0.09537,-0.0311 0.05951,-0.0324 0.06392,-0.0675 0.09137,-0.15026 0.125044,-0.23564 0.06136,-0.15788 0.115876,-0.31825 0.170738,-0.47849 0.01939,-0.0772 0.03387,-0.12836 0.0467,-0.2083 0.02721,-0.16965 0.02943,-0.34228 0.02498,-0.51362 -3.99e-4,-0.005 -0.0103,-0.16328 -0.02817,-0.17545 -0.0029,-0.002 -0.0013,0.007 -0.0038,0.01 -0.0059,0.005 -0.02754,0.0169 -0.02056,0.0128 0.234347,-0.13653 0.468446,-0.27348 0.702669,-0.41021 -0.183712,0.10952 -0.350915,0.24427 -0.503125,0.3944 -0.06787,0.0729 -0.09924,0.10315 -0.160153,0.18279 -0.107622,0.14073 -0.194913,0.29565 -0.279739,0.4507 -0.06684,0.13005 -0.134713,0.26046 -0.180459,0.39981 0.04816,0.0112 0.09396,0.006 0.14281,-0.001 0.09676,-0.0145 0.192068,-0.0383 0.285553,-0.0669 0.213382,-0.0732 0.423469,-0.15763 0.623511,-0.26243 -1.206151,0.70112 -0.536642,0.33575 -0.285591,0.13039 0.01551,-0.0145 0.03182,-0.0281 0.04652,-0.0434 0.0596,-0.062 0.103285,-0.13643 0.137013,-0.21501 0.02911,-0.0843 0.0204,-0.15629 -0.0015,-0.24174 -0.03441,-0.10547 -0.09572,-0.20019 -0.122559,-0.30874 -0.04742,-0.15777 -0.101527,-0.31866 -0.08807,-0.4858 0.0039,-0.0545 0.0075,-0.10864 0.01838,-0.16221 0.0029,-0.0144 -0.0019,-0.0349 0.01037,-0.0427 0.74785,-0.47838 0.486721,-0.4885 0.821827,-0.46811 0.05517,0.003 0.110698,0.002 0.165681,-0.004 0.09576,-0.0153 0.189641,-0.0399 0.282858,-0.0666 0.242696,-0.0648 0.488072,-0.11818 0.735017,-0.16414 0.265964,-0.0493 0.533741,-0.09 0.7974,-0.15092 0.03479,-0.0103 0.07002,-0.019 0.104375,-0.0307 0.06662,-0.0226 0.125069,-0.0486 0.1879,-0.0798 0.02763,-0.0137 0.108411,-0.0589 0.08182,-0.0432 -0.196708,0.11564 -0.933522,0.54352 -0.592243,0.34329 0.05879,-0.0391 0.0651,-0.0413 0.11877,-0.0848 0.05234,-0.0425 0.09977,-0.0912 0.156478,-0.12814 0.0019,-0.001 0.03971,-0.0279 0.0453,-0.0304 0.0055,-0.003 0.01263,-0.001 0.0177,-0.005 0.01442,-0.01 0.01318,-0.0363 0.01381,-0.0501 0.0027,-0.0607 0.0071,-0.12134 0.007,-0.18211 -0.0028,-0.0776 -0.0055,-0.15514 -0.02951,-0.22995 -0.07113,-0.23618 -0.169517,-0.46361 -0.283584,-0.68211 -0.08425,-0.16157 -0.168484,-0.32501 -0.281004,-0.46922 0,0 0.789704,-0.44964 0.789704,-0.44964 z"
         inkscape:connector-curvature="0" />
      <path
         style="fill:#217844;fill-opacity:1"
         id="path4979"
         d="m -37.042225,583.11762 c -0.03549,0.16849 -0.04001,0.34253 -0.04745,0.51409 -0.0067,0.2052 -0.01384,0.4108 -0.0073,0.61613 0.0045,0.14138 0.01018,0.17489 0.02404,0.315 0.0144,0.11348 0.03871,0.22522 0.0636,0.33674 0,0 -0.757781,0.39953 -0.757781,0.39953 l 0,0 c -0.0077,-0.12001 -0.01599,-0.23998 -0.02721,-0.35972 -0.01414,-0.14383 -0.0194,-0.1768 -0.02549,-0.32171 -0.0085,-0.20252 -0.0067,-0.40545 -0.0134,-0.60802 -0.0041,-0.16335 -0.0088,-0.32694 -0.02034,-0.48991 0,0 0.811289,-0.40213 0.811289,-0.40213 z"
         inkscape:connector-curvature="0" />
      <path
         style="fill:#217844;fill-opacity:1"
         id="path4981"
         d="m -37.554287,583.73999 c -0.04315,0.13598 -0.04751,0.28165 -0.05556,0.42309 -0.0065,0.20346 -0.01891,0.40777 -0.0069,0.6113 0.0021,0.0356 0.0063,0.0711 0.0094,0.10671 0.01393,0.1129 0.007,0.059 0.02069,0.16176 0,0 -0.770647,0.39945 -0.770647,0.39945 l 0,0 c -0.0011,-0.11005 -5.59e-4,-0.0523 -0.0017,-0.17323 -0.0015,-0.0792 -0.0049,-0.15829 -0.0061,-0.23747 -0.0023,-0.16139 0.0018,-0.32292 -0.0032,-0.48431 -0.0015,-0.13801 -0.0044,-0.27603 -0.0014,-0.41406 0,0 0.815382,-0.39324 0.815382,-0.39324 z"
         inkscape:connector-curvature="0" />
      <path
         style="fill:#217844;fill-opacity:1"
         id="path4983"
         d="m -38.690139,585.0256 c -0.0081,0.003 -0.0163,0.005 -0.02425,0.008 -0.02391,0.009 -0.03873,0.0166 -0.0616,0.029 -0.01246,0.007 -0.04935,0.028 -0.03705,0.0209 0.741972,-0.42583 0.948616,-0.55561 0.665468,-0.37898 -0.114421,0.0829 -0.190194,0.20456 -0.267287,0.32037 -0.100384,0.1503 -0.177402,0.31271 -0.246817,0.47898 -0.05327,0.13127 -0.09322,0.26742 -0.160072,0.39274 -0.03384,0.055 -0.07318,0.1061 -0.108624,0.16009 -0.02784,0.0441 -0.04969,0.0914 -0.07554,0.13662 -0.0206,0.0421 -0.03342,0.0871 -0.05254,0.13009 -0.02887,0.0565 -0.06695,0.10768 -0.104715,0.15845 -0.04171,0.0561 -0.09698,0.10022 -0.147936,0.14756 -0.05001,0.0487 -0.09519,0.10183 -0.141035,0.15428 -0.03592,0.0502 -0.05942,0.10827 -0.08369,0.16477 -0.0013,0.001 -0.03027,0.0785 -0.01252,0.0477 0.01683,-0.006 0.03545,-0.005 0.05306,-0.005 0,0 -0.733802,0.52383 -0.733802,0.52383 l 0,0 c -0.02895,-0.005 -0.05684,-0.008 -0.08122,-0.0265 -0.05291,-0.0521 -0.06395,-0.0923 -0.04054,-0.16393 0.01546,-0.041 0.03694,-0.0795 0.05252,-0.12036 0.004,-0.0104 0.0059,-0.0214 0.0098,-0.0318 0.0037,-0.01 0.0087,-0.0192 0.013,-0.0288 0.03437,-0.0668 0.09257,-0.11613 0.140983,-0.17262 0.04413,-0.0499 0.09289,-0.0954 0.144683,-0.13732 0.04007,-0.0453 0.07565,-0.094 0.111512,-0.14266 0.02539,-0.0386 0.04028,-0.0806 0.05055,-0.12545 0.02124,-0.0508 0.05547,-0.0945 0.07515,-0.14627 0.03409,-0.0591 0.07084,-0.11685 0.118083,-0.16648 0.09012,-0.1172 0.149372,-0.25143 0.197214,-0.39092 0.06446,-0.16868 0.134649,-0.33513 0.230603,-0.4888 0.07147,-0.12023 0.145209,-0.2424 0.241421,-0.34454 0.273435,-0.24146 0.04413,-0.0441 0.846227,-0.50072 0.04586,-0.0261 0.09901,-0.0377 0.149472,-0.0508 0,0 -0.720556,0.54798 -0.720556,0.54798 z"
         inkscape:connector-curvature="0" />
      <path
         style="fill:#217844;fill-opacity:1"
         id="path4985"
         d="m -38.119184,584.23564 c 0.0062,0.13663 0.07351,0.27241 0.134331,0.39219 0.05588,0.10649 0.117891,0.20938 0.180865,0.31175 0,0 -0.720507,0.4201 -0.720507,0.4201 l 0,0 c -0.06702,-0.10206 -0.133358,-0.20452 -0.197042,-0.30871 -0.07463,-0.12699 -0.1441,-0.25736 -0.200484,-0.39361 0,0 0.802837,-0.42172 0.802837,-0.42172 z"
         inkscape:connector-curvature="0" />
      <path
         style="fill:#217844;fill-opacity:1"
         id="path4987"
         d="m -37.324191,583.0754 c -0.01428,0.11687 -0.02101,0.23498 -0.01469,0.35269 0.0026,0.0489 0.0078,0.0977 0.01176,0.14659 0.03022,0.26112 0.07383,0.52099 0.134797,0.77676 0.04527,0.1899 0.06542,0.25114 0.119943,0.43982 0.07472,0.22637 0.153992,0.45306 0.278313,0.65748 0,0 -0.753621,0.42517 -0.753621,0.42517 l 0,0 c -0.07576,-0.23551 -0.125046,-0.47849 -0.196396,-0.71534 -0.05815,-0.18681 -0.08022,-0.25132 -0.130846,-0.43907 -0.06786,-0.25162 -0.120907,-0.50693 -0.179621,-0.76077 -0.01692,-0.0786 -0.03828,-0.17325 -0.05218,-0.2537 -0.01087,-0.0629 -0.01387,-0.12519 -0.0212,-0.18834 -0.0012,-0.01 -0.0029,-0.0197 -0.0044,-0.0296 0,0 0.808097,-0.41175 0.808097,-0.41175 z"
         inkscape:connector-curvature="0" />
      <path
         style="fill:#217844;fill-opacity:1"
         id="path4989"
         d="m -41.813154,602.62295 c 0.0811,0.13434 0.175981,0.25967 0.271584,0.38389 0.101681,0.13327 0.207144,0.2643 0.32414,0.38459 0.07353,0.0756 0.10796,0.10492 0.185598,0.1758 0.147195,0.11856 0.286543,0.25072 0.446452,0.35277 0.02005,0.0128 0.04144,0.0234 0.06216,0.035 0.0299,0.009 0.05913,0.0243 0.09141,0.013 0.01105,-0.004 0.03813,-0.027 0.02786,-0.0214 -0.247671,0.13517 -0.493014,0.27456 -0.740404,0.41025 -0.01251,0.007 0.0253,-0.0139 0.03563,-0.0237 0.01216,-0.0116 0.02066,-0.0265 0.03098,-0.0398 0.0087,-0.0172 0.0188,-0.0337 0.02607,-0.0515 0.05652,-0.13848 0.05923,-0.31195 0.06715,-0.45923 0.0057,-0.1442 0.01067,-0.28899 -0.0085,-0.43248 -0.0068,-0.0514 -0.01341,-0.0763 -0.02429,-0.12493 -0.01915,-0.0771 -0.03435,-0.10358 -0.09338,-0.15253 -0.06568,-0.044 -0.135964,-0.0803 -0.20191,-0.12396 -0.009,-0.007 -0.01753,-0.0138 -0.0271,-0.0196 -0.01337,-0.008 -0.02686,-0.0184 -0.03676,0.002 -0.0047,0.01 -0.01606,0.0362 -0.0067,0.0312 0.720723,-0.38917 0.916995,-0.65824 0.710373,-0.38665 -0.0095,0.0207 -0.0206,0.0407 -0.02844,0.062 -0.05667,0.15421 -0.06158,0.33201 -0.07167,0.49412 -0.0044,0.16576 0.0091,0.33252 0.05096,0.49317 0.0087,0.0189 0.01519,0.0736 0.0449,0.0777 0.0081,0.001 0.0162,-0.003 0.02435,-0.004 0.0058,-5.6e-4 0.01192,3e-5 0.01744,-0.002 0.01611,-0.005 0.05575,-0.0389 0.04087,-0.0307 -0.246407,0.13713 -0.490126,0.27902 -0.735837,0.41738 -0.014,0.008 0.02768,-0.0164 0.04066,-0.0259 0.01438,-0.0105 0.02752,-0.0226 0.04126,-0.034 0.11761,-0.11998 0.223496,-0.25144 0.328283,-0.38267 0.02799,-0.0339 0.05614,-0.0677 0.08398,-0.10173 0.07827,-0.0957 0.07334,-0.0935 0.153963,-0.18427 0.05522,-0.0622 0.113587,-0.12149 0.171159,-0.18149 0.04056,-0.0449 0.08607,-0.0884 0.112911,-0.14361 0.01068,-0.022 0.01393,-0.0381 0.02023,-0.0614 0.02182,-0.0887 -0.0061,-0.15253 -0.0557,-0.22581 0.0052,0.0202 -0.03104,-0.0489 -0.04078,-0.0341 -0.0057,0.009 -0.0066,0.0356 0.0025,0.0308 0.262219,-0.13628 0.514458,-0.29098 0.77312,-0.43389 0.0069,-0.004 -0.01348,0.009 -0.01705,0.0161 -0.0056,0.011 -0.0063,0.0238 -0.0095,0.0357 -0.01413,0.0966 -0.0138,0.19455 -0.0061,0.29167 0.0063,0.0757 0.02334,0.149 0.04887,0.22029 0.0254,0.0559 0.04255,0.11548 0.06832,0.17109 0.03072,0.0567 0.05945,0.0442 0.116624,0.0565 0.0606,0.0115 0.122355,0.0132 0.183855,0.0132 0.04763,-0.001 0.09524,-0.001 0.142879,-5.5e-4 0.06184,0.006 0.122481,-0.005 0.183731,-0.0106 0.0095,-0.004 0.01946,-0.007 0.02862,-0.0109 0.01606,-0.008 0.04181,-0.0264 0.05646,-0.0362 0.0097,-0.007 0.03948,-0.0249 0.02935,-0.0192 -0.244933,0.14053 -0.978936,0.56348 -0.73382,0.42328 0.265687,-0.15198 0.530354,-0.30572 0.795531,-0.45858 0.05098,-0.0318 0.10929,-0.0486 0.162134,-0.077 0.01,-0.005 0.03968,-0.0212 0.02993,-0.0156 -0.243112,0.14006 -0.486572,0.27952 -0.730052,0.41895 -0.01398,0.008 0.0278,-0.0162 0.04153,-0.0247 0.01547,-0.009 0.03031,-0.02 0.04605,-0.029 0.790426,-0.45385 0.530781,-0.32483 0.857262,-0.48545 0.06949,-0.0345 0.135061,-0.0782 0.210646,-0.098 0.04338,-0.004 0.07936,-0.0258 0.116885,-0.0456 0.251473,-0.1883 0.0236,-0.0163 -0.721698,0.41421 -0.0084,0.005 0.01683,-0.01 0.02463,-0.0152 0.02311,-0.0171 0.04221,-0.0394 0.06142,-0.0604 0.02834,-0.0296 0.06063,-0.0603 0.05965,-0.10488 -2.75e-4,-0.0126 -0.0035,-0.0249 -0.0053,-0.0374 -0.0061,-0.0148 -0.01073,-0.0304 -0.01824,-0.0445 -0.08635,-0.16296 -0.268101,-0.28583 -0.411672,-0.39239 -0.293041,-0.20579 -0.607409,-0.37669 -0.922893,-0.54472 -0.08436,-0.0473 -0.176783,-0.0883 -0.246497,-0.15742 -0.01904,-0.0189 -0.03656,-0.0426 -0.05306,-0.0637 0.01784,0.0114 -0.02873,-0.0324 -0.03072,-0.0203 -0.0018,0.0109 -0.0025,0.0373 0.0073,0.0322 0.26193,-0.13831 0.511859,-0.29832 0.770385,-0.4429 0.0072,-0.004 -0.0115,0.0124 -0.01448,0.0202 -0.0052,0.0132 -0.0063,0.0279 -0.0095,0.0417 -0.01925,0.14143 -0.009,0.28417 0.0015,0.42582 0.01262,0.13458 0.03744,0.26776 0.06545,0.39988 0.0082,0.0387 0.01528,0.0777 0.02518,0.11602 0.0092,0.0356 0.02135,0.0702 0.03202,0.10534 0.0454,0.11981 0.08591,0.24732 0.164685,0.35041 0.0067,0.005 0.01265,0.0104 0.02007,0.0136 0.0077,0.003 0.01636,0.003 0.02446,0.005 0.04234,0.0112 0.08201,0.0186 0.125793,0.0218 0.08259,-2.3e-4 0.163992,0.005 0.245756,0.0165 0.139595,0.0329 0.276697,0.075 0.416328,0.10757 0.06675,0.0169 0.120587,0.059 0.17811,0.0942 0.04356,0.0267 0.05519,0.0318 0.100511,0.0557 0.08383,0.0504 0.1635,0.0704 0.259433,0.0792 0.06604,-0.001 0.153068,0.0215 0.213559,-0.0128 0.0099,-0.005 0.01741,-0.0149 0.0261,-0.0222 -0.247596,0.14209 -0.494151,0.28601 -0.742789,0.42627 -0.0092,0.005 0.01768,-0.0122 0.02383,-0.0207 0.0069,-0.01 0.01177,-0.0209 0.0145,-0.0324 0.0128,-0.054 -0.0074,-0.1073 -0.02274,-0.15796 -0.08497,-0.1917 -0.232581,-0.3445 -0.38095,-0.48868 -0.197345,-0.18118 -0.425578,-0.32302 -0.654268,-0.46051 -0.147625,-0.0914 -0.311371,-0.15283 -0.46073,-0.24064 -0.06172,-0.0356 -0.09003,-0.0954 -0.105181,-0.16214 -0.01525,-0.0699 0.0099,-0.13298 0.04477,-0.19238 0.19001,-0.28425 0.617003,-0.39807 0.869672,-0.53452 0.01164,-0.006 0.02636,-0.003 0.03953,-0.003 0.01295,-0.001 0.02589,-0.003 0.03884,-0.003 0.08816,-0.008 0.17166,0.027 0.250379,0.0626 0.103003,0.0525 0.190514,0.13077 0.270155,0.21354 0.08064,0.0929 0.144272,0.19807 0.218041,0.29601 0.04512,0.0576 0.08239,0.12069 0.129937,0.17641 0.08221,0.089 0.178657,0.16378 0.280425,0.22899 0.122854,0.0787 0.251037,0.12944 0.387794,0.17832 0.127226,0.0412 0.25446,0.0847 0.386394,0.1082 0.02802,0.008 0.05761,0.003 0.08594,0.007 0.02074,0.003 0.04145,0.009 0.06227,0.012 0.04222,0.005 0.08331,0.0214 0.12242,0.0381 0.03015,0.009 0.01485,0.005 0.0459,0.0113 0,0 -0.742582,0.51087 -0.742582,0.51087 l 0,0 c -0.03435,-0.0107 -0.0172,-0.005 -0.05148,-0.0165 -0.03843,-0.0107 -0.07675,-0.0196 -0.116363,-0.0244 -0.04688,-0.0102 -0.09494,-0.0146 -0.140026,-0.0325 -0.121053,-0.0417 -0.238735,-0.0924 -0.359692,-0.13439 -0.146302,-0.0475 -0.295614,-0.0924 -0.420543,-0.18586 -0.102371,-0.0773 -0.206735,-0.15271 -0.300896,-0.2401 -0.05347,-0.0567 -0.09856,-0.11818 -0.133827,-0.18805 -0.0611,-0.0993 -0.119212,-0.20202 -0.200675,-0.28652 -0.07849,-0.0733 -0.161689,-0.14118 -0.264729,-0.17687 -0.07794,-0.0297 -0.140653,-0.0403 -0.223472,-0.0211 -0.01144,0.003 -0.02317,0.005 -0.03435,0.008 -0.01153,0.004 -0.04406,0.0205 -0.03355,0.0144 0.245293,-0.14331 0.493194,-0.28213 0.738128,-0.42605 0.0094,-0.005 -0.02094,0.006 -0.03083,0.0104 -0.02847,0.013 -0.03085,0.0188 -0.05353,0.0401 -0.03252,0.0389 -0.0676,0.0728 -0.06531,0.12678 0.0024,0.05 0.0138,0.0746 0.05565,0.10539 0.127166,0.10063 0.267983,0.18341 0.403708,0.27157 0.235948,0.13964 0.470032,0.28587 0.67395,0.47062 0.159592,0.15282 0.320751,0.3105 0.432154,0.50325 0.0223,0.0519 0.03594,0.0771 0.04883,0.13147 0.09378,0.39564 -0.472902,0.46937 -0.787937,0.63224 -0.08799,0.01 -0.177519,0.003 -0.265125,-0.008 -0.04536,-0.01 -0.09029,-0.0205 -0.133292,-0.0385 -0.04668,-0.0195 -0.08827,-0.0487 -0.133139,-0.0718 -0.089,-0.0479 -0.175923,-0.10129 -0.272848,-0.13205 -0.130353,-0.0467 -0.262267,-0.0913 -0.402212,-0.096 -0.08745,-0.003 -0.175583,0.003 -0.262289,-0.011 -0.07872,-0.0163 -0.159096,-0.0408 -0.209588,-0.10767 -0.0256,-0.047 -0.04001,-0.0899 -0.05684,-0.1408 -0.0279,-0.0844 -0.05469,-0.16922 -0.0775,-0.25521 -0.05616,-0.20695 -0.114607,-0.41371 -0.142531,-0.62692 -0.02101,-0.14139 -0.03551,-0.28391 -0.0359,-0.42702 -8.65e-4,-0.0153 -0.0014,-0.0305 -0.0025,-0.0457 -9.32e-4,-0.0132 -0.01474,-0.0322 -0.0037,-0.0394 0.515596,-0.33885 0.631078,-0.71909 0.848964,-0.39864 0.06069,0.0911 0.144321,0.15985 0.233199,0.22294 0.06525,0.0476 0.150287,0.11059 0.215731,0.15477 0.219823,0.1484 0.45265,0.27583 0.681018,0.41026 0.176614,0.10877 0.374312,0.21711 0.498639,0.38943 0.0129,0.0179 0.02245,0.038 0.03367,0.0569 0.02822,0.0765 0.04708,0.14704 -0.0059,0.21737 -0.01991,0.0229 -0.03959,0.0459 -0.05861,0.0695 -0.0067,0.008 -0.01079,0.0197 -0.01997,0.0252 -0.722425,0.43595 -0.513322,0.34407 -0.820219,0.47687 -0.03991,0.0164 -0.08211,0.0235 -0.121988,0.0394 -0.06292,0.0307 -0.124976,0.063 -0.187964,0.0935 -0.292075,0.14906 -0.04961,0.0264 0.655464,-0.38283 0.01448,-0.008 -0.02973,0.0155 -0.04391,0.0244 -0.01277,0.008 -0.02379,0.0187 -0.03682,0.0263 -0.760239,0.44264 -0.525226,0.32766 -0.832685,0.47684 -0.05413,0.0236 -0.106894,0.0496 -0.157457,0.0802 0.24523,-0.1417 0.981157,-0.56642 0.73569,-0.42512 -0.265749,0.15297 -0.530611,0.30749 -0.796542,0.46015 -0.01905,0.0109 -0.04548,0.022 -0.06668,0.0277 -0.03059,0.008 -0.04177,0.008 -0.07273,0.0103 -0.06374,0.006 -0.127408,0.005 -0.191355,0.005 -0.04821,5.7e-4 -0.09646,0.002 -0.144549,-0.003 -0.06401,-0.005 -0.127821,-0.0128 -0.189992,-0.0297 -0.08019,-0.0203 -0.123699,-0.0475 -0.162507,-0.12219 -0.02852,-0.058 -0.04204,-0.12189 -0.06694,-0.1816 -0.0299,-0.0793 -0.05086,-0.16039 -0.0562,-0.24541 -0.0053,-0.1012 -0.0055,-0.20241 -0.0054,-0.30373 -1.99e-4,-0.0141 7.9e-5,-0.0282 -6.15e-4,-0.0423 -6.66e-4,-0.014 -0.01526,-0.0344 -0.0035,-0.0419 0.510799,-0.32717 0.661174,-0.71931 0.861676,-0.37077 0.04992,0.0921 0.1088,0.17037 0.09434,0.27987 -0.01682,0.11645 -0.04823,0.17883 -0.134518,0.26232 -0.06572,0.0638 -0.135063,0.12427 -0.199853,0.18903 -0.07338,0.0733 -0.09527,0.10095 -0.161223,0.18235 -0.02557,0.0316 -0.05046,0.0636 -0.0757,0.0955 -0.09316,0.12881 -0.189319,0.25499 -0.287555,0.37992 -0.241648,0.27278 -0.362413,0.25351 -0.868461,0.53211 -0.02419,0.0132 -0.07535,-0.003 -0.09998,-0.0103 -0.07115,-0.0393 -0.08929,-0.0902 -0.102585,-0.16809 -0.0049,-0.0411 -0.0099,-0.079 -0.0126,-0.12059 -0.0088,-0.13638 -7.32e-4,-0.27335 -0.0083,-0.4098 0.0032,-0.19056 0.0049,-0.38301 0.04615,-0.56998 0.0958,-0.34754 0.01001,-0.0833 0.80039,-0.53877 0.01164,-0.007 0.0265,0.005 0.03892,0.0104 0.03021,0.0124 0.05322,0.0368 0.07998,0.0546 0.0668,0.0462 0.137866,0.0857 0.204351,0.1324 0.02523,0.0206 0.04101,0.0311 0.06094,0.0569 0.03507,0.0455 0.04498,0.1039 0.05262,0.15914 0.01575,0.19554 0.0076,0.39135 0.008,0.58733 -0.0011,0.17684 0.0076,0.3585 -0.03912,0.53065 -0.0013,0.003 -0.03516,0.0946 -0.04193,0.0987 -0.06923,0.0418 -0.591396,0.5912 -0.893826,0.42479 -0.01756,-0.01 -0.03361,-0.0219 -0.05041,-0.0328 -0.06827,-0.0567 -0.132221,-0.11785 -0.199394,-0.17589 -0.09419,-0.0814 -0.192594,-0.15782 -0.284302,-0.24208 -0.187117,-0.17669 -0.363558,-0.36402 -0.523495,-0.56594 -0.103186,-0.12135 -0.204368,-0.24625 -0.326289,-0.34965 0,0 0.777791,-0.46698 0.777791,-0.46698 z"
         inkscape:connector-curvature="0" />
      <path
         style="fill:#217844;fill-opacity:1"
         id="path4991"
         d="m -36.554304,601.97568 c 0.130365,0.13319 0.274408,0.25123 0.422301,0.36416 0.100885,0.0679 0.195075,0.14959 0.305782,0.20202 0.04038,0.0192 0.05541,0.0216 0.09673,0.0332 0.03393,0.008 0.06442,0.0132 0.09442,-0.008 0.0074,-0.005 0.02782,-0.0225 0.01997,-0.0181 -0.805162,0.45025 -1.020812,0.53626 -0.733841,0.42043 0.0058,-0.006 0.01317,-0.0111 0.01738,-0.0184 0.03251,-0.0566 0.02383,-0.13875 0.01124,-0.19933 -0.02593,-0.0707 -0.06054,-0.13747 -0.0867,-0.20814 -0.02165,-0.0656 -0.04318,-0.12972 -0.07699,-0.19015 -0.05121,-0.0683 -0.096,-0.14093 -0.143582,-0.21174 -0.01791,-0.0293 -0.03841,-0.0583 -0.04841,-0.0916 -0.08968,-0.2991 0.64876,-0.46044 0.789954,-0.54337 0.08232,-0.001 0.165385,1.9e-4 0.246737,0.0135 0.07782,0.02 0.155282,0.0401 0.235246,0.0492 0.07365,0.006 0.147639,0.005 0.221489,0.007 0.104289,2e-4 0.20859,0.007 0.312617,-0.003 0.09215,-0.0118 0.177055,-0.0507 0.263199,-0.0829 0.320868,-0.13367 0.881627,-0.48145 -0.444842,0.27955 0.06873,-0.0413 0.11682,-0.0817 0.149156,-0.156 0.01733,-0.0564 0.029,-0.0724 -0.0093,-0.11979 -0.07618,-0.0753 -0.171949,-0.123 -0.268833,-0.16572 -0.08458,-0.0364 -0.166852,-0.0779 -0.250606,-0.11607 -0.07207,-0.0337 -0.145039,-0.0653 -0.213677,-0.10572 -0.008,-0.005 -0.0152,-0.0114 -0.02388,-0.0153 -0.0033,-0.001 -0.0073,2.4e-4 -0.01091,3.7e-4 0.258695,-0.16181 0.512016,-0.33255 0.776086,-0.48543 0.0091,-0.005 0.01243,0.0169 0.01837,0.0255 0.02634,0.0381 0.03367,0.0511 0.06033,0.0935 0.115793,0.1876 0.231026,0.37574 0.359001,0.55534 0.05629,0.0644 0.1152,0.18299 0.203274,0.20926 0.04753,-0.003 0.09851,0.007 0.145376,-0.005 0.0152,-0.003 0.02945,-0.0103 0.04417,-0.0155 0.01876,-0.008 0.03795,-0.016 0.05629,-0.0252 0.02304,-0.0117 0.09021,-0.0506 0.06772,-0.0378 -0.217272,0.12315 -0.431432,0.252 -0.65205,0.36905 -0.0362,0.0192 0.06618,-0.0485 0.09756,-0.0748 0.08752,-0.0735 0.127318,-0.11871 0.20805,-0.20153 0.149219,-0.1614 0.284032,-0.33774 0.373034,-0.5401 0.06093,-0.13853 0.05945,-0.15825 0.09317,-0.29879 0.01162,-0.10386 0.04476,-0.2662 -0.01579,-0.36361 -0.0055,-0.009 -0.01328,-0.016 -0.01993,-0.0241 -0.05494,-0.0488 -0.123348,-0.0796 -0.18914,-0.11101 -0.109173,-0.0581 -0.229771,-0.0819 -0.349146,-0.1082 -0.0092,-0.002 -0.05694,-0.0154 -0.07141,-0.005 -0.0063,0.005 -0.01305,0.0266 -0.0063,0.0226 0.256666,-0.15046 0.50159,-0.32083 0.761614,-0.46542 0.01128,-0.006 0.0029,0.0258 0.0069,0.0381 0.0078,0.0244 0.01865,0.0477 0.02797,0.0716 0.07988,0.19118 0.199062,0.36118 0.303739,0.53877 0.0223,0.0377 0.04322,0.0765 0.06483,0.11471 0.05204,0.0981 0.107655,0.19433 0.156177,0.29426 0.0287,0.0591 0.05427,0.11981 0.08194,0.17941 0.0095,0.0207 0.0241,0.0501 0.03068,0.0725 0.100714,0.34274 -0.76099,0.51668 -0.795734,0.5347 -0.01412,0.007 -0.03021,-0.01 -0.04532,-0.015 -0.07262,-0.0293 -0.139335,-0.0707 -0.2088,-0.10631 -0.08639,-0.0443 -0.174932,-0.0848 -0.262017,-0.12771 -0.07497,-0.0408 -0.16095,-0.0873 -0.175587,-0.18077 -0.009,-0.0574 0.0067,-0.074 0.02773,-0.1281 0.09247,-0.14954 0.21434,-0.27747 0.325007,-0.41325 0.03544,-0.0435 0.06609,-0.0909 0.103522,-0.13277 0.222644,-0.24894 0.545543,-0.40559 0.863552,-0.50487 0.01698,-0.007 0.04744,-0.017 0.06335,-0.027 0.0088,-0.005 0.03305,-0.0247 0.02407,-0.0196 -1.58886,0.90899 -0.916444,0.58169 -0.700894,0.39939 0.04475,-0.0551 0.04694,-0.13285 0.05344,-0.20089 0.0075,-0.0674 0.01005,-0.13556 0.02744,-0.20136 0.104849,-0.32097 0.437604,-0.30356 0.817547,-0.5123 0.01092,-0.006 0.0249,5.3e-4 0.03736,5.6e-4 0.17041,0.003 -0.101385,-0.002 0.09532,0.001 0.138221,-0.001 0.197235,0.0382 0.294515,0.13008 0.0325,0.0254 0.08349,0.10318 0.131773,0.096 0.01937,-0.003 0.03795,-0.0205 0.0521,-0.0312 0.263587,-0.18168 0.0037,-0.001 -0.682522,0.38542 -0.01521,0.009 0.02953,-0.0187 0.04315,-0.0296 0.04303,-0.0345 0.07248,-0.0762 0.101941,-0.12201 0.04858,-0.0932 0.05814,-0.20109 0.01672,-0.29941 -0.0076,-0.0181 -0.01923,-0.0341 -0.02884,-0.0512 -0.02683,-0.031 -0.05619,-0.0768 -0.100161,-0.0866 -0.03865,-0.009 -0.08583,0.0171 -0.119472,0.031 -0.271895,0.14316 -0.630278,0.35793 0.640393,-0.3684 0.0095,-0.005 -0.01942,0.0103 -0.02853,0.0164 -0.01871,0.0125 -0.02238,0.0181 -0.03697,0.0338 -0.01134,0.005 -0.009,0.0202 -0.0173,0.0269 -0.004,0.003 -0.0062,-0.009 -0.0051,-0.0145 0.003,-0.0144 0.01296,-0.0266 0.01987,-0.0397 -0.24345,0.13682 -0.486899,0.27364 -0.730349,0.41045 0.01928,-0.016 0.04031,-0.0302 0.05784,-0.0481 0.02404,-0.0246 0.04632,-0.0511 0.06639,-0.0791 0.04982,-0.0694 0.09613,-0.15705 0.129109,-0.23501 0.02018,-0.0477 0.03563,-0.0973 0.05344,-0.14593 0.04572,-0.13535 0.06279,-0.27713 0.0882,-0.41694 0.0098,-0.0541 0.02146,-0.1214 0.04076,-0.17423 0.0076,-0.0208 0.01881,-0.0401 0.02821,-0.0602 0.218669,-0.28746 0.05215,-0.0806 0.830472,-0.51109 0.0208,-0.0115 0.07926,0.004 0.09785,0.0102 0.03861,0.0129 0.0563,0.0258 0.09112,0.0463 0.06776,0.0513 0.121441,0.11761 0.174509,0.18326 0.04509,0.0592 0.07706,0.12538 0.108263,0.19241 0.02299,0.0535 0.0657,0.0981 0.08575,0.15309 0.0039,0.0107 0.0059,0.022 0.0089,0.033 0.009,0.0972 -0.04211,0.18478 -0.08477,0.2685 -0.0436,0.0904 -0.0972,0.17485 -0.152365,0.25845 -0.119856,0.23133 0.516163,-0.16388 -0.829031,0.37262 -0.01639,0.007 0.02039,-0.0289 0.02948,-0.0439 0.04407,-0.0733 0.06023,-0.11113 0.100532,-0.19269 0.172929,-0.37681 0.328866,-0.76147 0.472001,-1.15052 0.08179,-0.23428 0.154111,-0.4739 0.187654,-0.72046 0.01094,-0.0804 0.01041,-0.10823 0.01329,-0.18431 7.86e-4,-0.0684 0.0046,-0.13824 0.03646,-0.20035 0.01366,-0.0267 0.03143,-0.0479 0.04941,-0.0715 0.202923,-0.26408 0.106976,-0.14646 0.81227,-0.48342 0.02174,-0.0104 0.03391,0.0351 0.04527,0.0564 0.02913,0.0545 0.02973,0.16522 0.03484,0.22507 0.01875,0.16486 0.03955,0.33083 0.08247,0.49144 0.0036,0.008 0.0072,0.016 0.01079,0.024 0.0014,-0.002 0.0061,-0.005 0.0043,-0.005 -0.268161,0.13582 -0.531964,0.28045 -0.803462,0.40949 -0.01008,0.005 0.0074,-0.0211 0.0094,-0.0321 0.0066,-0.0352 0.01115,-0.10259 0.01385,-0.13462 0.01428,-0.22938 0.01356,-0.45939 0.01425,-0.68912 0.0033,-0.19423 -0.0035,-0.38823 -0.01871,-0.58181 -0.0035,-0.067 -0.0053,-0.13432 0.0064,-0.20062 0.0059,-0.0226 0.01494,-0.084 0.03718,-0.0973 0.776797,-0.46473 0.490064,-0.43226 0.824955,-0.4651 0.05423,-0.001 0.109231,-0.008 0.163267,3.9e-4 0.04428,0.007 0.05923,0.0138 0.101739,0.0281 0.0816,0.0393 0.147684,0.0982 0.180675,0.18395 0.0062,0.016 0.01006,0.0329 0.01508,0.0493 0.0231,0.10222 0.02102,0.20764 0.02264,0.31179 0.0012,0.0587 0.0049,0.11739 0.0057,0.17613 0,0 -0.80644,0.40174 -0.80644,0.40174 l 0,0 c 0.01262,-0.0575 0.0078,-0.11761 0.01251,-0.17604 0.0011,-0.0962 0.0021,-0.19328 -0.0144,-0.28835 -0.02351,-0.0899 -0.05365,-0.12708 -0.144979,-0.15636 -0.08209,-0.0137 -0.167906,-0.0112 -0.24601,0.0203 -0.262874,0.16194 -0.259614,0.15969 0.723293,-0.42384 0.0059,-0.003 -0.01312,0.004 -0.01947,0.007 -0.01357,0.005 -0.02129,0.01 -0.03117,0.0206 -0.0041,0.005 -0.007,0.0102 -0.01049,0.0153 -0.0061,0.0231 -0.01529,0.046 -0.02057,0.0693 -0.0094,0.0412 -0.01148,0.0841 -0.01794,0.12572 -0.01447,0.19988 -0.02193,0.40012 -0.01827,0.60059 0.001,0.22496 7.86e-4,0.45018 0.01488,0.67478 0.0029,0.0355 0.0065,0.0881 0.01176,0.12501 0.0017,0.012 0.01724,0.0296 0.0068,0.0357 -0.54113,0.31974 -0.817459,0.7455 -0.809696,0.38358 -0.0046,-0.16889 -0.02937,-0.33614 -0.06308,-0.50154 -0.01771,-0.0868 -0.0098,-0.0616 -0.03391,-0.13564 -0.0018,-0.005 -0.0094,-0.0218 -0.0062,-0.0168 0.005,0.008 0.0035,0.0298 0.01162,0.0252 0.479001,-0.26137 1.00137,-0.60707 0.718694,-0.4204 -0.04546,0.0473 -0.0113,0.011 -0.05468,0.0589 -0.0086,0.009 -0.01848,0.0178 -0.02591,0.0282 -0.03135,0.0438 -0.04073,0.0991 -0.05264,0.15014 -0.06359,0.32871 -0.175581,0.64548 -0.279364,0.96308 -0.13456,0.37408 -0.278595,0.74482 -0.403623,1.12228 -0.0353,0.11123 -0.02724,0.0827 -0.0544,0.17777 -0.0037,0.0128 0.0012,0.0326 -0.01077,0.0387 -0.166571,0.0841 -1.039285,0.65062 -0.816305,0.35663 0.05797,-0.0833 0.125122,-0.16135 0.168052,-0.25414 0.03561,-0.0668 0.07036,-0.13499 0.09008,-0.20843 0.0045,-0.053 -0.05068,-0.11764 -0.07183,-0.16532 -0.03347,-0.0587 -0.05996,-0.12178 -0.102553,-0.17471 -0.04483,-0.0551 -0.0824,-0.11979 -0.147353,-0.15359 -0.03739,-0.0129 -0.06807,-0.0226 -0.107056,-0.008 -0.01145,0.005 -0.04291,0.0236 -0.03239,0.0172 0.656942,-0.39084 0.957743,-0.56084 0.663643,-0.39423 -0.0151,0.0158 -0.03278,0.0294 -0.0453,0.0473 -0.03404,0.0487 -0.05796,0.11942 -0.0746,0.17425 -0.04304,0.14181 -0.06458,0.28866 -0.101066,0.43209 -0.01411,0.0496 -0.0265,0.0997 -0.04232,0.14878 -0.02623,0.0813 -0.05868,0.16195 -0.09633,0.23874 -5.6e-4,0.001 -0.06727,0.12956 -0.08266,0.13914 -0.263437,0.16391 -0.536477,0.31187 -0.804719,0.46781 -0.01455,-0.003 -0.02991,-0.003 -0.04365,-0.008 -0.01296,-0.005 -0.02457,-0.0137 -0.03473,-0.0232 -0.03819,-0.0359 -0.04704,-0.078 -0.03043,-0.12602 0.01066,-0.0262 0.03236,-0.0788 0.05745,-0.0938 0.255568,-0.15226 0.566377,-0.40485 0.893115,-0.48914 0.04674,-0.005 0.06661,-0.0111 0.112788,0.003 0.07736,0.0232 0.123127,0.0887 0.162733,0.15422 0.01117,0.022 0.02389,0.0432 0.03351,0.0658 0.04812,0.11342 0.05892,0.23938 0.02271,0.35748 -0.0078,0.0186 -0.01417,0.0378 -0.02325,0.0559 -0.01528,0.0303 -0.07187,0.1188 -0.10056,0.13608 -0.75561,0.45512 -0.509193,0.37788 -0.85006,0.4791 -0.01591,-3.9e-4 -0.03208,0.002 -0.04772,-0.001 -0.07816,-0.0145 -0.120468,-0.0925 -0.17642,-0.14019 -0.03198,-0.025 -0.04315,-0.0367 -0.07964,-0.0535 -0.05544,-0.0256 -0.118322,-0.0222 -0.177626,-0.0192 -0.03069,0.004 -0.06651,0.007 -0.0963,0.0174 -0.01089,0.004 -0.04081,0.0218 -0.03084,0.0159 0.2485,-0.14627 0.499504,-0.28831 0.746496,-0.43712 0.0067,-0.004 -0.01606,-0.001 -0.02337,0.002 -0.0064,0.003 -0.01049,0.009 -0.01573,0.0132 -0.03688,0.055 -0.03953,0.1172 -0.04984,0.18117 -0.0074,0.0791 -0.0083,0.15967 -0.02574,0.23715 -0.0052,0.0125 -0.01775,0.0492 -0.03126,0.0574 -0.377384,0.23084 -0.555897,0.3786 -0.880873,0.50358 -0.27949,0.15393 0.0074,-0.004 0.694903,-0.40811 0.01271,-0.007 -0.02668,0.0128 -0.03892,0.0211 -0.05094,0.0343 -0.0842,0.0858 -0.124652,0.13072 -0.104886,0.13264 -0.226054,0.25154 -0.324044,0.38963 -0.01071,0.0186 -0.05007,0.0711 -0.04266,0.0974 0.01403,0.0497 0.07688,0.0761 0.112629,0.10408 0.08315,0.0475 0.166339,0.0902 0.25512,0.12648 0.04914,0.02 0.110635,0.0446 0.164032,0.0546 0.01819,0.003 0.03693,0.003 0.05539,0.004 0.3143,-0.0989 -0.05288,0.0138 -0.710503,0.42873 -0.0089,0.005 0.01848,0.0124 0.02899,0.0124 0.02618,-2.3e-4 -0.0036,-0.0776 -0.0044,-0.0837 -0.01849,-0.0629 -0.03439,-0.12676 -0.05549,-0.18879 -0.03517,-0.10339 -0.08035,-0.20309 -0.132245,-0.29913 -0.02015,-0.0377 -0.03925,-0.0758 -0.06045,-0.11285 -0.047,-0.082 -0.09194,-0.14839 -0.143512,-0.22763 -0.04565,-0.0702 -0.09039,-0.14092 -0.136412,-0.21085 -0.01904,-0.029 -0.03877,-0.0574 -0.05815,-0.0861 -0.01528,-0.0221 -0.03065,-0.0442 -0.04584,-0.0665 -0.01224,-0.0179 -0.05349,-0.0405 -0.03644,-0.0539 0.949078,-0.74497 0.46583,-0.58922 0.844563,-0.47507 0.120233,0.0353 0.238418,0.0767 0.355276,0.1219 0.08384,0.0346 0.167073,0.0728 0.222137,0.14825 0.0088,0.0145 0.01931,0.0281 0.02638,0.0436 0.06112,0.13339 0.0031,0.30822 -0.02112,0.44267 -0.03105,0.11398 -0.05331,0.20725 -0.09694,0.31812 -0.08107,0.20602 -0.206047,0.38977 -0.34999,0.55671 -0.07256,0.0823 -0.109529,0.12713 -0.18615,0.20337 -0.02689,0.0268 -0.05084,0.0578 -0.08303,0.0778 -0.268011,0.16705 -0.54217,0.32407 -0.815525,0.48222 -0.02581,0.015 -0.05372,0.026 -0.08155,0.0368 -0.02314,0.009 -0.04739,0.0147 -0.07108,0.022 -0.0815,0.0109 -0.169555,0.0187 -0.242689,-0.0264 -0.08456,-0.0707 -0.12653,-0.1766 -0.182519,-0.26902 -0.0567,-0.099 -0.112742,-0.19911 -0.179019,-0.29223 -0.0604,-0.0849 -0.128435,-0.16467 -0.197243,-0.24273 -0.02088,-0.0209 -0.04889,-0.0513 -0.07447,-0.0695 -0.0061,-0.005 -0.0261,-0.006 -0.01994,-0.0103 1.780133,-1.23169 0.504663,-0.67423 0.779726,-0.47665 0.06457,0.0373 0.129959,0.0736 0.198027,0.10421 0.08477,0.0367 0.168588,0.075 0.248226,0.12203 0.104184,0.0573 0.214475,0.10849 0.303451,0.18875 0.03197,0.0389 0.06171,0.0828 0.06223,0.13567 1.13e-4,0.0116 -0.0098,0.0557 -0.01192,0.0655 -0.02474,0.0896 -0.05592,0.16039 -0.135433,0.21504 -0.353479,0.20524 -0.692284,0.43876 -1.074887,0.58552 -0.09039,0.034 -0.182419,0.0627 -0.280255,0.0606 -0.106939,-4.7e-4 -0.213824,0.002 -0.320753,0.003 -0.07808,-3.1e-4 -0.156707,-0.001 -0.233792,-0.015 -0.0765,-0.0161 -0.151037,-0.0426 -0.22964,-0.0474 -0.07582,-0.004 -0.15606,-0.0119 -0.224169,0.0286 0.247612,-0.1479 0.498749,-0.29006 0.742837,-0.44371 0.0018,-0.001 -0.0326,-0.0158 -0.03758,-0.004 -0.0067,0.016 0.02334,0.0623 0.02823,0.0756 0.04363,0.0749 0.09572,0.14413 0.144334,0.21583 0.03679,0.0639 0.07485,0.12669 0.08947,0.19994 0.02686,0.0736 0.05461,0.14689 0.08216,0.22028 0.01306,0.0423 0.02033,0.0584 0.02493,0.10228 0.0062,0.0594 -0.0033,0.12035 -0.0053,0.1797 -0.09439,0.3256 -0.0057,0.0481 -0.803282,0.49151 -0.0098,0.005 -0.06056,-0.005 -0.06717,-0.007 -0.02576,-0.007 -0.04883,-0.0174 -0.07325,-0.0276 -0.03933,-0.02 -0.05876,-0.0285 -0.09638,-0.0545 -0.09837,-0.0681 -0.17834,-0.15982 -0.275603,-0.22946 -0.152104,-0.11862 -0.309551,-0.23458 -0.481539,-0.32286 0,0 0.764663,-0.48613 0.764663,-0.48613 z"
         inkscape:connector-curvature="0" />
      <path
         style="fill:#217844;fill-opacity:1"
         id="path4993"
         d="m -35.187556,591.16644 c -0.04029,0.18003 -0.04458,0.36652 -0.05477,0.55008 -0.02644,0.40559 0.0083,0.81077 0.05091,1.21383 0.05152,0.42388 0.123747,0.84494 0.208739,1.26329 0.08179,0.38047 0.177904,0.75763 0.272083,1.13515 0.08016,0.30408 0.150515,0.61056 0.226093,0.91575 0.04638,0.18388 0.09355,0.36736 0.126479,0.5542 0.02205,0.0967 0.05254,0.1901 0.0652,0.28872 0.01176,0.14339 0.01112,0.28736 0.01647,0.43106 0.0096,0.0977 -2.18e-4,0.20207 0.02447,0.29785 -0.269694,0.13335 -0.532451,0.28177 -0.809079,0.40007 -0.01574,0.007 -0.0057,-0.0338 -0.0077,-0.0508 -0.0027,-0.0233 -0.004,-0.0467 -0.0066,-0.0701 -0.01223,-0.11117 -0.03298,-0.22008 -0.05439,-0.32979 -0.05437,-0.27528 -0.132012,-0.54502 -0.213906,-0.81315 -0.05615,-0.16562 -0.14896,-0.31474 -0.212224,-0.47727 -0.05047,-0.17589 -0.06209,-0.36075 -0.07651,-0.54243 -0.0066,-0.19447 -0.02971,-0.38764 -0.06303,-0.57918 -0.0087,-0.0745 -0.038,-0.14214 -0.0666,-0.21036 -0.0225,-0.0512 -0.03003,-0.10695 -0.03553,-0.16211 -0.0014,-0.004 -0.0035,-0.0149 -0.0041,-0.011 -9.32e-4,0.006 -0.0027,0.0212 0.003,0.0185 0.268092,-0.1291 0.531691,-0.26735 0.796326,-0.40341 0.007,-0.003 -0.01718,2.6e-4 -0.02279,0.005 -0.01688,0.0165 -0.0276,0.0725 -0.03183,0.0883 -0.01646,0.13012 -0.01961,0.26181 -0.026,0.3928 -0.0089,0.22015 -0.01112,0.44052 -0.01286,0.66083 -0.0049,0.21246 0.0059,0.42468 0.01136,0.63701 -0.002,0.13728 0.0022,0.27434 0.0113,0.4113 0.0063,0.0708 0.0038,0.14196 0.0021,0.21291 -0.0021,0.10776 -0.01668,0.21427 -0.0428,0.31868 -0.01628,0.0594 -0.03638,0.11759 -0.0537,0.17664 -0.0041,0.0142 -0.008,0.0285 -0.01156,0.0428 -0.0023,0.009 0.0023,0.0226 -0.0057,0.0275 -0.257093,0.16078 -0.52122,0.31002 -0.78183,0.46503 -0.01407,-0.0249 -0.03271,-0.0477 -0.0422,-0.0747 -0.0081,-0.023 -0.0033,-0.11494 -0.0027,-0.13255 0.004,-0.11533 0.0093,-0.2306 0.01329,-0.34593 0.01038,-0.32831 0.01075,-0.6568 0.01212,-0.98523 -0.0091,-0.25904 0.02085,-0.52458 -0.03617,-0.77973 -0.0046,-0.009 -0.0041,-0.0241 -0.0138,-0.0263 -0.0074,-0.002 -0.0085,0.026 -0.0017,0.0226 0.265714,-0.12875 0.523363,-0.27366 0.788373,-0.40386 0.01233,-0.006 -0.02198,0.0179 -0.02796,0.0302 -0.01998,0.0413 -0.03174,0.13256 -0.03851,0.17169 -0.03118,0.25689 -0.02919,0.51615 -0.02747,0.77444 3.74e-4,0.14584 0.0098,0.292 -0.0018,0.43769 -0.0061,0.0762 -0.01519,0.12719 -0.02666,0.20241 -0.03648,0.17835 -0.06982,0.35735 -0.108601,0.53521 -0.03457,0.16755 -0.108365,0.32228 -0.169909,0.48072 -0.04268,0.12552 -0.08897,0.24951 -0.136043,0.37343 -0.04429,0.10892 -0.08748,0.21827 -0.132174,0.32703 -0.05117,0.11169 -0.106714,0.22121 -0.158363,0.3327 -0.02897,0.0581 -0.05531,0.11741 -0.08299,0.1761 -0.01415,0.03 -0.03124,0.0591 -0.03923,0.0914 -0.272422,0.12218 -0.539792,0.25629 -0.817264,0.36651 -0.01422,0.005 0.0047,-0.0302 0.0083,-0.0451 0.01235,-0.0527 0.02855,-0.10439 0.04157,-0.1569 0.02722,-0.10977 0.03826,-0.16349 0.06372,-0.27839 0.08906,-0.42312 0.148278,-0.85166 0.212899,-1.27897 0.02618,-0.1672 0.04601,-0.33547 0.05451,-0.50454 0.0029,-0.0586 0.0065,-0.1184 -0.0045,-0.17634 0.268358,-0.12199 0.529845,-0.2604 0.805074,-0.36597 0.01903,-0.007 -0.0053,0.0404 -0.0087,0.0604 -0.03375,0.19959 0.0067,-0.0613 -0.02781,0.1538 -0.01481,0.0922 -0.01399,0.0945 -0.02514,0.19003 -0.0177,0.20153 -0.02386,0.40423 -0.01847,0.60645 0.006,0.0993 0.01085,0.19862 0.01523,0.29799 0.0027,0.0495 -0.0031,0.0987 -0.0087,0.14775 -0.01708,0.0833 -0.04242,0.16478 -0.06664,0.24627 -0.04012,0.14343 -0.09752,0.28056 -0.156689,0.41691 -0.07131,0.16692 -0.184286,0.30997 -0.300492,0.44751 -0.07897,0.0902 -0.154996,0.18343 -0.24074,0.26741 -0.04666,0.0377 -0.09112,0.0768 -0.131883,0.12084 0.279531,0.89137 -0.813738,0.67005 -0.838644,0.35012 -0.0014,-0.0178 0.0019,-0.0357 0.0034,-0.0535 0.0052,-0.0658 0.0087,-0.0888 0.01688,-0.15809 0.0074,-0.0852 0.01766,-0.17029 0.02077,-0.25584 0.0013,-0.035 0.0056,-0.0822 -0.007,-0.11634 1.648681,-0.76758 0.874962,-0.63902 0.794169,-0.34372 -0.0074,0.0272 -0.01068,0.0553 -0.0179,0.0825 -0.0082,0.0308 -0.01671,0.0536 -0.02714,0.0837 -0.0049,0.0146 -0.0099,0.0292 -0.01464,0.0438 -0.0081,0.0252 -0.02097,0.0669 -0.02608,0.0926 -0.0026,0.0132 -0.0044,0.0268 -0.0051,0.0402 -0.0019,0.0331 -6.15e-4,0.0284 0.0032,0.019 -0.27021,0.12871 -0.54042,0.25741 -0.81063,0.38611 0.0094,-0.007 0.02158,-0.0118 0.02806,-0.0218 0.01419,-0.0217 0.0229,-0.0467 0.03241,-0.0708 0.01346,-0.0342 0.0246,-0.0693 0.03641,-0.10412 0.01565,-0.0461 0.09411,-0.28502 0.1048,-0.31751 0.09558,-0.28463 0.183267,-0.57263 0.249524,-0.86568 0.02918,-0.12904 0.04637,-0.23485 0.069,-0.36354 0.0063,-0.0416 0.0133,-0.0833 0.01863,-0.12505 0.0035,-0.0276 0.0063,-0.0553 0.0079,-0.083 8.66e-4,-0.0151 0.0013,-0.0302 -2.93e-4,-0.0453 -6.14e-4,-0.005 -0.0112,-0.0128 -0.0063,-0.0152 0.835666,-0.41561 0.895285,-0.67563 0.802255,-0.3406 -0.0667,0.23962 -0.140288,0.47718 -0.213886,0.71475 -0.09401,0.308 -0.231129,0.59977 -0.37432,0.88732 -0.11491,0.21739 -0.237322,0.43333 -0.38846,0.62794 -0.0963,0.1162 -0.235426,0.18142 -0.362591,0.25746 -0.126058,0.0775 -0.255132,0.15301 -0.36361,0.25465 -0.04762,0.0449 -0.06085,0.10165 -0.06685,0.16397 -9.99e-4,0.0489 4.56e-4,0.0979 2.53e-4,0.14684 -0.0038,0.0738 -0.0019,0.14766 -0.0013,0.22152 -0.0059,0.0641 -0.01925,0.12694 -0.02646,0.19096 -0.0041,0.0454 -0.0041,0.091 -0.0041,0.13658 2.9e-5,0.006 7.99e-4,0.0124 8.4e-5,0.0186 -1.37e-4,0.001 -0.0015,-0.003 -0.0017,-0.003 -0.002,-0.0153 -0.0035,-0.023 0.0099,-0.0347 0.01938,-0.0168 0.05409,-0.027 0.07582,-0.0352 0.267635,-0.12297 0.683113,-0.36304 -0.56732,0.33306 -0.02054,0.0114 0.03898,-0.0264 0.05716,-0.0414 0.04206,-0.0345 0.06078,-0.0582 0.09698,-0.0984 0.07877,-0.0923 0.139493,-0.19719 0.183324,-0.31001 0.02179,-0.0607 0.02892,-0.12444 0.04959,-0.18538 0.03854,-0.0858 0.0799,-0.16979 0.110278,-0.25891 0.01638,-0.0615 0.03485,-0.12174 0.05982,-0.18021 0.02529,-0.0543 0.06173,-0.10185 0.08907,-0.15495 0.111098,0.29071 5.58e-4,0.01 0.833782,-0.35727 0.0052,-0.003 -0.01145,0.003 -0.01571,0.007 -0.008,0.007 -0.01328,0.0167 -0.02009,0.025 -0.04118,0.0499 -0.01688,0.0166 -0.05349,0.0711 -0.05433,0.0798 -0.08518,0.16358 -0.104507,0.25745 -0.01308,0.0925 -0.02399,0.18736 -0.01,0.28034 0.0027,0.007 0.0055,0.0142 0.0082,0.0214 0,0 -0.782726,0.43557 -0.782726,0.43557 l 0,0 c -0.0053,-0.014 -0.01067,-0.028 -0.016,-0.042 -0.01026,-0.10217 -0.0024,-0.20512 0.0065,-0.30718 0.01312,-0.0992 0.03104,-0.20011 0.08648,-0.28553 0.0133,-0.0252 0.0248,-0.0513 0.03898,-0.076 0.004,-0.007 0.01078,-0.0122 0.01401,-0.0194 0.0027,-0.006 -0.0027,-0.017 0.0033,-0.0198 0.845867,-0.39537 0.838166,-0.68086 0.840436,-0.35589 -0.03499,0.0491 -0.06774,0.0998 -0.09963,0.15104 -0.03255,0.0535 -0.0555,0.11085 -0.07057,0.17177 -0.03162,0.0888 -0.07075,0.17462 -0.107482,0.26141 -0.0085,0.0182 -0.01809,0.0367 -0.0234,0.0563 -0.01173,0.0434 -0.0092,0.0905 -0.03062,0.13158 -0.04911,0.12069 -0.112248,0.23564 -0.187136,0.34229 -0.03485,0.0447 -0.05361,0.0709 -0.09257,0.11247 -0.262668,0.28018 -0.639064,0.43133 -0.991222,0.57648 -0.03306,0.0109 -0.07254,0.029 -0.109449,0.0241 -0.04788,-0.006 -0.08899,-0.0531 -0.08683,-0.10073 7.99e-4,-0.049 0.0026,-0.0979 0.0067,-0.14676 0.0051,-0.0636 0.01261,-0.12757 0.02947,-0.18916 0.01012,-0.0708 0.0039,-0.14239 8.66e-4,-0.21354 -0.0018,-0.0509 -0.0039,-0.10182 -0.0025,-0.15278 0.0016,-0.0778 0.01193,-0.15793 0.05334,-0.2253 0.01126,-0.0139 0.02144,-0.0288 0.03379,-0.0416 0.09796,-0.10251 0.23401,-0.16568 0.348409,-0.24662 0.0371,-0.0233 0.106234,-0.0672 0.145273,-0.0903 0.07455,-0.044 0.153872,-0.0815 0.218029,-0.14093 0.02026,-0.0196 0.04157,-0.0381 0.06076,-0.0588 0.156716,-0.16848 0.275675,-0.36927 0.385765,-0.56979 0.142873,-0.28257 0.28235,-0.5686 0.375144,-0.87229 0.0648,-0.21992 0.132172,-0.44172 0.152563,-0.6711 -0.01349,-0.33675 -0.0116,-0.0408 0.815649,-0.44265 0.0078,-0.004 -0.01212,0.0128 -0.01591,0.0207 -0.009,0.0185 -0.01513,0.0383 -0.02212,0.0576 -0.03624,0.10058 -0.04051,0.1194 -0.07541,0.23158 -0.115017,0.40877 -0.207724,0.82331 -0.318321,1.23328 -0.02976,0.13081 -0.05872,0.26081 -0.07849,0.39354 -0.0033,0.0222 -0.0074,0.0445 -0.0088,0.067 -9.98e-4,0.0158 0.01547,0.0399 0.0015,0.0475 -0.269041,0.14689 -0.551058,0.26862 -0.826586,0.40294 -0.0021,-0.009 -0.0059,-0.0187 -0.0064,-0.0284 -6.66e-4,-0.0132 0.0083,-0.0758 0.0094,-0.0836 0.007,-0.0486 0.01563,-0.0969 0.03205,-0.14342 0.01509,-0.0503 0.04058,-0.0993 0.04514,-0.15207 0.0011,-0.0122 -0.01037,-0.0309 3.57e-4,-0.0368 0.267714,-0.14932 0.545505,-0.27981 0.818257,-0.41972 -0.03517,0.12821 -0.03901,0.26171 -0.05066,0.39346 -4.9e-4,0.0264 -0.0019,0.0529 -0.0015,0.0793 3.67e-4,0.0206 0.0025,0.0411 0.004,0.0616 9.98e-4,0.013 0.0043,0.0259 0.0037,0.0389 -8.4e-5,0.002 -0.0043,0.003 -0.0055,0.002 -0.0099,-0.0117 -0.01168,-0.0455 -0.02528,-0.0384 -0.261943,0.13644 -0.509096,0.29956 -0.763643,0.44935 0.02073,-0.0186 0.04205,-0.0375 0.06116,-0.0577 0.0252,-0.0268 0.04773,-0.0557 0.08073,-0.0739 0.103983,-0.0767 0.188952,-0.1754 0.278052,-0.26818 0.113954,-0.12944 0.225979,-0.26323 0.301498,-0.41959 0.05684,-0.13064 0.115368,-0.26203 0.149231,-0.40085 0.02059,-0.0748 0.03606,-0.1508 0.04832,-0.22737 0.01193,-0.0447 0.01284,-0.0922 0.02387,-0.13725 0.0041,-0.10521 0.0088,-0.21033 0.01652,-0.31536 0.0093,-0.20493 0.0093,-0.41022 0.02135,-0.61506 0.0043,-0.0793 0.0053,-0.11061 0.0118,-0.18822 0.0045,-0.0541 0.0096,-0.09 0.0132,-0.14309 9.99e-4,-0.015 -0.01113,-0.0373 0.0018,-0.045 0.261705,-0.15498 0.535815,-0.28799 0.803722,-0.43199 -0.006,0.01 -0.0135,0.0186 -0.01794,0.029 -0.02068,0.0489 -0.03736,0.12443 -0.048,0.17222 -0.03892,0.1747 -0.06791,0.3514 -0.09759,0.52784 -0.0746,0.41798 -0.135634,0.83807 -0.176084,1.26084 -0.01174,0.11531 -0.02468,0.23052 -0.03313,0.34613 -0.0014,0.0187 -0.0019,0.0374 -0.0037,0.0561 -8.65e-4,0.01 0.0045,0.024 -0.0041,0.0285 -0.269161,0.14262 -0.545412,0.27145 -0.818118,0.40718 0.02599,-0.0251 0.01371,-0.0107 0.03864,-0.0505 0.04439,-0.0708 0.08301,-0.14472 0.119415,-0.2199 0.04951,-0.10879 0.09134,-0.22113 0.148542,-0.32641 0.04927,-0.1064 0.09277,-0.21535 0.136606,-0.32405 0.04838,-0.12963 0.107687,-0.25448 0.156211,-0.38409 0.06076,-0.15343 0.121576,-0.30739 0.167345,-0.46606 0.0454,-0.17764 0.08642,-0.35621 0.123153,-0.53586 0.01334,-0.0734 0.02332,-0.12173 0.03208,-0.19592 0.01723,-0.14594 0.01272,-0.29307 0.01752,-0.43965 0.0046,-0.25756 0.0091,-0.51513 0.0091,-0.77275 -1.96e-4,-0.057 0.0012,-0.11395 -1.88e-4,-0.1709 -4.61e-4,-0.0194 -0.01985,-0.0481 -0.0033,-0.0581 0.26284,-0.15965 0.536066,-0.30261 0.813955,-0.43433 0.0132,-0.006 0.016,0.025 0.01959,0.0392 0.0038,0.015 0.0015,0.031 0.0022,0.0465 -0.0049,0.10547 -0.01449,0.21074 -0.0182,0.31627 -0.0059,0.16682 -0.0028,0.33388 -0.0044,0.50075 8.66e-4,0.32415 9e-6,0.64841 0.01196,0.97239 0.0051,0.10785 0.0091,0.21595 0.02192,0.32324 0.0025,0.0204 0.0057,0.0409 0.0092,0.0612 0.0016,0.009 0.01479,0.0327 0.0063,0.0282 -0.01387,-0.007 -0.01768,-0.0259 -0.02652,-0.0388 -0.253479,0.15278 -0.506959,0.30555 -0.760439,0.45833 0.0073,-0.007 0.01621,-0.0122 0.02197,-0.0204 0.0091,-0.013 0.01589,-0.0276 0.0221,-0.0422 0.02339,-0.0549 0.0361,-0.11408 0.05399,-0.17083 0.02671,-0.0951 0.04889,-0.19371 0.04288,-0.29315 -0.0017,-0.0717 -0.004,-0.14353 0.0021,-0.21507 0.0088,-0.1408 0.01338,-0.28168 0.01125,-0.42278 0.0053,-0.21609 0.01589,-0.43208 0.01088,-0.6483 -0.0019,-0.21633 -0.005,-0.43267 -0.01227,-0.64889 -0.0044,-0.13296 -0.005,-0.26295 0.0073,-0.39564 3.13e-4,-0.0344 0.0021,-0.0687 0.0022,-0.10299 4.8e-5,-0.0139 -0.01344,-0.0349 -0.0013,-0.0417 0.0887,-0.0503 0.743929,-0.7186 0.845479,-0.36286 0.0084,0.0481 0.0058,0.0981 0.02382,0.14446 0.02834,0.0781 0.05388,0.15746 0.05804,0.24131 0.0112,0.19902 0.0059,0.39894 0.02985,0.59711 0.02324,0.17089 0.05603,0.34006 0.09901,0.50714 0.05524,0.16893 0.126417,0.33266 0.169611,0.50562 0.08094,0.2694 0.158859,0.53962 0.225951,0.81287 0.02837,0.10522 0.05722,0.20991 0.09001,0.31385 0.0063,0.02 0.01254,0.0402 0.01919,0.0602 0.0035,0.0106 0.02096,0.0258 0.01137,0.0318 -0.25816,0.15726 -0.527418,0.29554 -0.791127,0.44331 0.003,-0.005 0.0076,-0.009 0.0091,-0.0143 0.0042,-0.0157 0.0063,-0.0728 0.0068,-0.0839 0.0032,-0.069 0.0053,-0.13813 0.0037,-0.20724 -0.0033,-0.1384 -0.01493,-0.27581 -0.03226,-0.41314 -0.01292,-0.0991 -0.03869,-0.19518 -0.05502,-0.29362 -0.01776,-0.19141 -0.035,-0.3834 -0.07689,-0.57141 -0.06755,-0.30912 -0.135365,-0.61816 -0.205185,-0.92678 -0.08495,-0.38211 -0.173585,-0.76335 -0.258692,-1.1454 -0.08314,-0.42227 -0.148142,-0.8477 -0.200708,-1.27488 -0.04915,-0.39839 -0.09377,-0.798 -0.09914,-1.19985 -0.0072,-0.17343 -0.01407,-0.34692 -0.02766,-0.51999 0,0 0.813077,-0.40163 0.813077,-0.40163 z"
         inkscape:connector-curvature="0" />
      <text
         xml:space="preserve"
         style="font-style:normal;font-weight:normal;font-size:26.63047028px;line-height:125%;font-family:sans-serif;letter-spacing:0px;word-spacing:0px;fill:#cccccc;fill-opacity:1;stroke:none;stroke-width:1px;stroke-linecap:butt;stroke-linejoin:miter;stroke-opacity:1;"
         x="-16.97168"
         y="604.52271"
         id="text4995"
         sodipodi:linespacing="125%"><tspan
           sodipodi:role="line"
           id="tspan4997"
           x="-16.97168"
           y="604.52271"
           style="font-style:normal;font-variant:normal;font-weight:normal;font-stretch:normal;font-size:26.63047028px;line-height:125%;font-family:'DejaVu Sans';-inkscape-font-specification:'DejaVu Sans, Normal';text-align:start;writing-mode:lr-tb;text-anchor:start;fill:#cccccc;">SoundUP</tspan></text>
      <text
         xml:space="preserve"
         style="font-style:normal;font-weight:normal;font-size:40px;line-height:125%;font-family:sans-serif;letter-spacing:0px;word-spacing:0px;fill:#000000;fill-opacity:1;stroke:none;stroke-width:1px;stroke-linecap:butt;stroke-linejoin:miter;stroke-opacity:1"
         x="129.66641"
         y="662.95203"
         id="text4999"
         sodipodi:linespacing="125%"><tspan
           sodipodi:role="line"
           id="tspan5001"
           x="129.66641"
           y="662.95203" /></text>
    </g>
  </g>
</svg>
